STARTFONT 2.1
COMMENT
COMMENT Converted from OpenType font "Ubuntu-RI.otf" by "otf2bdf 3.0".
COMMENT
FONT -FreeType-Ubuntu-Medium-I-Normal--17-120-100-100-P-98-ISO10646-1
SIZE 12 100 100
FONTBOUNDINGBOX 62 19 -2 -3
STARTPROPERTIES 19
FOUNDRY "FreeType"
FAMILY_NAME "Ubuntu"
WEIGHT_NAME "Medium"
SLANT "I"
SETWIDTH_NAME "Normal"
ADD_STYLE_NAME ""
PIXEL_SIZE 17
POINT_SIZE 120
RESOLUTION_X 100
RESOLUTION_Y 100
SPACING "P"
AVERAGE_WIDTH 98
CHARSET_REGISTRY "ISO10646"
CHARSET_ENCODING "1"
FONT_ASCENT 15
FONT_DESCENT 3
COPYRIGHT "Copyright 2011 Canonical Ltd.  Licensed under the Ubuntu Font Licence 1.0"
_OTF_FONTFILE "Ubuntu-RI.otf"
_OTF_PSNAME "Ubuntu-Italic"
ENDPROPERTIES
CHARS 1194
STARTCHAR 0000
ENCODING 0
SWIDTH 0 0
DWIDTH 0 0
BBX 0 0 0 0
BITMAP
ENDCHAR
STARTCHAR 0008
ENCODING 8
SWIDTH 0 0
DWIDTH 0 0
BBX 0 0 0 0
BITMAP
ENDCHAR
STARTCHAR 0009
ENCODING 9
SWIDTH 240 0
DWIDTH 4 0
BBX 0 0 0 0
BITMAP
ENDCHAR
STARTCHAR 000D
ENCODING 13
SWIDTH 240 0
DWIDTH 4 0
BBX 0 0 0 0
BITMAP
ENDCHAR
STARTCHAR 001D
ENCODING 29
SWIDTH 0 0
DWIDTH 0 0
BBX 0 0 0 0
BITMAP
ENDCHAR
STARTCHAR 0020
ENCODING 32
SWIDTH 240 0
DWIDTH 4 0
BBX 0 0 0 0
BITMAP
ENDCHAR
STARTCHAR 0021
ENCODING 33
SWIDTH 240 0
DWIDTH 4 0
BBX 5 12 1 0
BITMAP
18
10
10
30
30
20
20
20
00
00
C0
C0
ENDCHAR
STARTCHAR 0022
ENCODING 34
SWIDTH 420 0
DWIDTH 7 0
BBX 5 5 4 8
BITMAP
D8
D0
90
90
20
ENDCHAR
STARTCHAR 0023
ENCODING 35
SWIDTH 660 0
DWIDTH 11 0
BBX 10 12 2 0
BITMAP
0440
0CC0
0880
7FC0
7FC0
3300
2200
2200
FF80
4400
CC00
8800
ENDCHAR
STARTCHAR 0024
ENCODING 36
SWIDTH 540 0
DWIDTH 9 0
BBX 8 15 2 -2
BITMAP
04
04
1F
31
60
60
30
1C
06
06
06
FC
70
20
20
ENDCHAR
STARTCHAR 0025
ENCODING 37
SWIDTH 840 0
DWIDTH 14 0
BBX 11 12 3 0
BITMAP
3060
D8C0
8980
8900
9200
F600
0DC0
1B60
1220
2220
6240
C3C0
ENDCHAR
STARTCHAR 0026
ENCODING 38
SWIDTH 660 0
DWIDTH 11 0
BBX 10 12 1 0
BITMAP
0700
1D80
1180
1100
1B00
1E00
3C40
66C0
C280
C300
C780
7C80
ENDCHAR
STARTCHAR 0027
ENCODING 39
SWIDTH 240 0
DWIDTH 4 0
BBX 2 4 4 8
BITMAP
C0
C0
80
80
ENDCHAR
STARTCHAR 0028
ENCODING 40
SWIDTH 300 0
DWIDTH 5 0
BBX 6 16 2 -3
BITMAP
04
08
18
30
20
60
40
C0
C0
C0
C0
C0
C0
C0
40
40
ENDCHAR
STARTCHAR 0029
ENCODING 41
SWIDTH 300 0
DWIDTH 5 0
BBX 6 16 -1 -3
BITMAP
08
0C
0C
04
04
04
04
04
0C
0C
08
18
30
20
60
C0
ENDCHAR
STARTCHAR 002A
ENCODING 42
SWIDTH 480 0
DWIDTH 8 0
BBX 6 7 3 5
BITMAP
30
30
A4
FC
30
58
48
ENDCHAR
STARTCHAR 002B
ENCODING 43
SWIDTH 540 0
DWIDTH 9 0
BBX 8 8 2 1
BITMAP
08
08
08
FF
FF
10
10
30
ENDCHAR
STARTCHAR 002C
ENCODING 44
SWIDTH 240 0
DWIDTH 4 0
BBX 2 4 1 -3
BITMAP
40
C0
C0
80
ENDCHAR
STARTCHAR 002D
ENCODING 45
SWIDTH 300 0
DWIDTH 5 0
BBX 5 2 1 4
BITMAP
78
F8
ENDCHAR
STARTCHAR 002E
ENCODING 46
SWIDTH 240 0
DWIDTH 4 0
BBX 2 2 1 0
BITMAP
C0
C0
ENDCHAR
STARTCHAR 002F
ENCODING 47
SWIDTH 360 0
DWIDTH 6 0
BBX 10 16 -1 -3
BITMAP
0040
00C0
0080
0180
0100
0300
0600
0400
0C00
0800
1800
1000
3000
6000
4000
C000
ENDCHAR
STARTCHAR 0030
ENCODING 48
SWIDTH 540 0
DWIDTH 9 0
BBX 8 12 2 0
BITMAP
0E
3F
23
61
41
C3
C3
C3
C2
C6
CC
78
ENDCHAR
STARTCHAR 0031
ENCODING 49
SWIDTH 540 0
DWIDTH 9 0
BBX 5 12 4 0
BITMAP
08
38
70
D0
30
30
20
20
60
60
40
40
ENDCHAR
STARTCHAR 0032
ENCODING 50
SWIDTH 540 0
DWIDTH 9 0
BBX 9 12 1 0
BITMAP
0E00
3F00
0180
0180
0100
0300
0600
1C00
3000
6000
4000
FE00
ENDCHAR
STARTCHAR 0033
ENCODING 51
SWIDTH 540 0
DWIDTH 9 0
BBX 9 12 1 0
BITMAP
0E00
1F00
0180
0180
0300
0E00
0E00
0300
0300
0300
0600
FC00
ENDCHAR
STARTCHAR 0034
ENCODING 52
SWIDTH 540 0
DWIDTH 9 0
BBX 8 12 2 0
BITMAP
03
07
0F
1A
32
66
46
C4
FE
0C
0C
08
ENDCHAR
STARTCHAR 0035
ENCODING 53
SWIDTH 540 0
DWIDTH 9 0
BBX 9 12 1 0
BITMAP
0F80
0F80
1800
1800
1000
3C00
0600
0300
0300
0300
0600
FC00
ENDCHAR
STARTCHAR 0036
ENCODING 54
SWIDTH 540 0
DWIDTH 9 0
BBX 9 12 2 0
BITMAP
0180
0F00
1800
3000
6000
7E00
C600
C300
C200
C200
C600
7C00
ENDCHAR
STARTCHAR 0037
ENCODING 55
SWIDTH 540 0
DWIDTH 9 0
BBX 8 12 3 0
BITMAP
7F
7F
06
0C
08
18
30
20
60
40
C0
80
ENDCHAR
STARTCHAR 0038
ENCODING 56
SWIDTH 540 0
DWIDTH 9 0
BBX 8 12 2 0
BITMAP
0E
3B
21
61
63
36
7C
C6
82
86
C6
FC
ENDCHAR
STARTCHAR 0039
ENCODING 57
SWIDTH 540 0
DWIDTH 9 0
BBX 8 12 2 0
BITMAP
1C
37
63
43
43
43
7F
02
06
0C
38
E0
ENDCHAR
STARTCHAR 003A
ENCODING 58
SWIDTH 240 0
DWIDTH 4 0
BBX 4 9 1 0
BITMAP
30
30
20
00
00
00
00
C0
C0
ENDCHAR
STARTCHAR 003B
ENCODING 59
SWIDTH 240 0
DWIDTH 4 0
BBX 4 11 1 -3
BITMAP
30
30
20
00
00
00
00
40
C0
C0
80
ENDCHAR
STARTCHAR 003C
ENCODING 60
SWIDTH 540 0
DWIDTH 9 0
BBX 8 6 2 2
BITMAP
07
1C
F0
E0
38
0E
ENDCHAR
STARTCHAR 003D
ENCODING 61
SWIDTH 540 0
DWIDTH 9 0
BBX 8 4 2 3
BITMAP
7F
00
00
FE
ENDCHAR
STARTCHAR 003E
ENCODING 62
SWIDTH 540 0
DWIDTH 9 0
BBX 8 7 2 1
BITMAP
40
70
1C
07
07
38
E0
ENDCHAR
STARTCHAR 003F
ENCODING 63
SWIDTH 360 0
DWIDTH 6 0
BBX 6 12 2 0
BITMAP
78
4C
04
0C
08
30
60
40
00
00
C0
C0
ENDCHAR
STARTCHAR 0040
ENCODING 64
SWIDTH 960 0
DWIDTH 16 0
BBX 14 15 2 -3
BITMAP
03E0
0E70
1818
200C
67CC
4C44
C84C
98CC
98C8
9898
8FF0
C000
6000
3F00
0C00
ENDCHAR
STARTCHAR 0041
ENCODING 65
SWIDTH 660 0
DWIDTH 11 0
BBX 10 12 0 0
BITMAP
0180
0180
0380
0680
04C0
0CC0
18C0
10C0
3FC0
2040
6040
C040
ENDCHAR
STARTCHAR 0042
ENCODING 66
SWIDTH 600 0
DWIDTH 10 0
BBX 10 12 1 0
BITMAP
0F00
1FC0
10C0
30C0
30C0
3F80
3F80
6080
6080
6180
4380
FE00
ENDCHAR
STARTCHAR 0043
ENCODING 67
SWIDTH 600 0
DWIDTH 10 0
BBX 10 12 2 0
BITMAP
0780
1FC0
3000
6000
4000
C000
C000
C000
C000
C000
6100
3F00
ENDCHAR
STARTCHAR 0044
ENCODING 68
SWIDTH 720 0
DWIDTH 12 0
BBX 11 12 1 0
BITMAP
0F00
1FC0
1060
3060
3060
3060
2060
6060
60C0
61C0
4380
FE00
ENDCHAR
STARTCHAR 0045
ENCODING 69
SWIDTH 540 0
DWIDTH 9 0
BBX 10 12 1 0
BITMAP
1FC0
1FC0
1000
3000
3000
3F00
3F00
6000
6000
6000
4000
FF00
ENDCHAR
STARTCHAR 0046
ENCODING 70
SWIDTH 540 0
DWIDTH 9 0
BBX 10 12 1 0
BITMAP
1FC0
1FC0
1000
3000
3000
3F00
3F00
6000
6000
6000
4000
C000
ENDCHAR
STARTCHAR 0047
ENCODING 71
SWIDTH 660 0
DWIDTH 11 0
BBX 10 12 2 0
BITMAP
0780
1FC0
3000
6000
4000
C000
C180
C180
C180
C100
6100
3F00
ENDCHAR
STARTCHAR 0048
ENCODING 72
SWIDTH 660 0
DWIDTH 11 0
BBX 12 12 1 0
BITMAP
1830
1020
1020
3060
3060
3FC0
3FC0
60C0
60C0
60C0
4080
C180
ENDCHAR
STARTCHAR 0049
ENCODING 73
SWIDTH 240 0
DWIDTH 4 0
BBX 5 12 1 0
BITMAP
18
10
10
30
30
30
20
60
60
60
40
C0
ENDCHAR
STARTCHAR 004A
ENCODING 74
SWIDTH 480 0
DWIDTH 8 0
BBX 8 12 1 0
BITMAP
01
01
03
03
02
02
06
06
06
04
8C
F8
ENDCHAR
STARTCHAR 004B
ENCODING 75
SWIDTH 600 0
DWIDTH 10 0
BBX 11 12 1 0
BITMAP
1860
10C0
1180
3300
3600
3C00
3C00
6C00
6600
6300
4100
C180
ENDCHAR
STARTCHAR 004C
ENCODING 76
SWIDTH 480 0
DWIDTH 8 0
BBX 7 12 1 0
BITMAP
18
10
10
30
30
30
20
60
60
60
40
FE
ENDCHAR
STARTCHAR 004D
ENCODING 77
SWIDTH 840 0
DWIDTH 14 0
BBX 14 12 1 0
BITMAP
080C
180C
1C1C
1C38
3468
3448
24D8
6798
6718
4310
C010
C010
ENDCHAR
STARTCHAR 004E
ENCODING 78
SWIDTH 720 0
DWIDTH 12 0
BBX 12 12 1 0
BITMAP
1830
1830
1C20
3420
3660
2660
2260
6340
61C0
61C0
41C0
C080
ENDCHAR
STARTCHAR 004F
ENCODING 79
SWIDTH 720 0
DWIDTH 12 0
BBX 11 12 2 0
BITMAP
0780
1FC0
3060
6060
4060
C060
C060
C040
C0C0
C180
6380
3E00
ENDCHAR
STARTCHAR 0050
ENCODING 80
SWIDTH 600 0
DWIDTH 10 0
BBX 10 12 1 0
BITMAP
0F00
1FC0
10C0
30C0
30C0
30C0
3F80
7C00
6000
6000
4000
C000
ENDCHAR
STARTCHAR 0051
ENCODING 81
SWIDTH 720 0
DWIDTH 12 0
BBX 11 15 2 -3
BITMAP
0780
1FC0
3060
6060
4060
C060
C060
C040
C0C0
C180
6380
3E00
0800
0E00
0700
ENDCHAR
STARTCHAR 0052
ENCODING 82
SWIDTH 600 0
DWIDTH 10 0
BBX 10 12 1 0
BITMAP
0F00
1F80
10C0
30C0
30C0
3180
3F00
6600
6200
6300
4100
C180
ENDCHAR
STARTCHAR 0053
ENCODING 83
SWIDTH 540 0
DWIDTH 9 0
BBX 9 12 1 0
BITMAP
0F00
3F80
3000
2000
3000
3800
0E00
0600
0300
0200
8600
FC00
ENDCHAR
STARTCHAR 0054
ENCODING 84
SWIDTH 540 0
DWIDTH 9 0
BBX 9 12 3 0
BITMAP
FF80
FF00
1800
1000
1000
3000
3000
2000
2000
6000
6000
6000
ENDCHAR
STARTCHAR 0055
ENCODING 85
SWIDTH 660 0
DWIDTH 11 0
BBX 11 12 2 0
BITMAP
3060
2040
20C0
60C0
60C0
4080
4180
C180
C180
C300
E700
7E00
ENDCHAR
STARTCHAR 0056
ENCODING 86
SWIDTH 600 0
DWIDTH 10 0
BBX 10 12 3 0
BITMAP
80C0
C080
C180
C100
C300
C600
C600
4C00
4800
5800
7000
6000
ENDCHAR
STARTCHAR 0057
ENCODING 87
SWIDTH 900 0
DWIDTH 15 0
BBX 14 12 3 0
BITMAP
C004
C00C
C30C
C718
C718
CF10
C930
D920
F160
E140
E1C0
C180
ENDCHAR
STARTCHAR 0058
ENCODING 88
SWIDTH 600 0
DWIDTH 10 0
BBX 11 12 1 0
BITMAP
3060
10C0
1880
0980
0F00
0E00
0E00
1E00
3200
6300
4100
C180
ENDCHAR
STARTCHAR 0059
ENCODING 89
SWIDTH 600 0
DWIDTH 10 0
BBX 9 12 3 0
BITMAP
8180
C100
C300
4600
6C00
7800
3000
3000
2000
6000
6000
6000
ENDCHAR
STARTCHAR 005A
ENCODING 90
SWIDTH 540 0
DWIDTH 9 0
BBX 10 12 1 0
BITMAP
1FC0
3FC0
0180
0300
0600
0C00
1800
1000
3000
6000
C000
FF00
ENDCHAR
STARTCHAR 005B
ENCODING 91
SWIDTH 300 0
DWIDTH 5 0
BBX 7 16 1 -3
BITMAP
0E
18
18
10
10
30
30
20
20
60
60
40
40
C0
C0
F0
ENDCHAR
STARTCHAR 005C
ENCODING 92
SWIDTH 360 0
DWIDTH 6 0
BBX 3 16 3 -3
BITMAP
80
80
80
C0
C0
C0
C0
40
40
40
40
40
60
60
60
60
ENDCHAR
STARTCHAR 005D
ENCODING 93
SWIDTH 300 0
DWIDTH 5 0
BBX 8 16 -1 -3
BITMAP
0F
03
02
02
06
06
04
04
0C
0C
08
08
18
18
10
F0
ENDCHAR
STARTCHAR 005E
ENCODING 94
SWIDTH 540 0
DWIDTH 9 0
BBX 7 7 3 5
BITMAP
08
18
3C
6C
C4
86
04
ENDCHAR
STARTCHAR 005F
ENCODING 95
SWIDTH 480 0
DWIDTH 8 0
BBX 9 1 -1 -3
BITMAP
FF80
ENDCHAR
STARTCHAR 0060
ENCODING 96
SWIDTH 360 0
DWIDTH 6 0
BBX 3 3 4 10
BITMAP
80
C0
60
ENDCHAR
STARTCHAR 0061
ENCODING 97
SWIDTH 540 0
DWIDTH 9 0
BBX 8 9 2 0
BITMAP
1F
3B
62
C6
86
86
84
CC
FC
ENDCHAR
STARTCHAR 0062
ENCODING 98
SWIDTH 540 0
DWIDTH 9 0
BBX 9 13 1 0
BITMAP
1800
1800
1000
1000
3E00
3B00
2180
2180
6100
6100
4300
4600
FC00
ENDCHAR
STARTCHAR 0063
ENCODING 99
SWIDTH 480 0
DWIDTH 8 0
BBX 7 9 2 0
BITMAP
1E
74
40
C0
80
80
80
C0
78
ENDCHAR
STARTCHAR 0064
ENCODING 100
SWIDTH 540 0
DWIDTH 9 0
BBX 9 13 2 0
BITMAP
0180
0180
0100
0100
1F00
3B00
6200
C200
8600
8600
8400
CC00
FC00
ENDCHAR
STARTCHAR 0065
ENCODING 101
SWIDTH 540 0
DWIDTH 9 0
BBX 7 9 2 0
BITMAP
1C
76
42
C6
FC
E0
80
C4
7C
ENDCHAR
STARTCHAR 0066
ENCODING 102
SWIDTH 360 0
DWIDTH 6 0
BBX 9 16 0 -3
BITMAP
0780
0E80
0800
0800
1F00
1F00
1000
1000
3000
3000
2000
2000
6000
6000
4000
C000
ENDCHAR
STARTCHAR 0067
ENCODING 103
SWIDTH 540 0
DWIDTH 9 0
BBX 10 12 0 -3
BITMAP
0780
0FC0
1880
3080
2180
2180
2100
3F00
1B00
0300
4600
FC00
ENDCHAR
STARTCHAR 0068
ENCODING 104
SWIDTH 540 0
DWIDTH 9 0
BBX 8 13 1 0
BITMAP
18
18
10
10
3E
3F
21
21
61
63
43
42
C2
ENDCHAR
STARTCHAR 0069
ENCODING 105
SWIDTH 240 0
DWIDTH 4 0
BBX 5 12 1 0
BITMAP
18
10
00
30
30
20
20
60
60
40
40
C0
ENDCHAR
STARTCHAR 006A
ENCODING 106
SWIDTH 240 0
DWIDTH 4 0
BBX 8 15 -2 -3
BITMAP
03
02
00
06
06
04
04
0C
0C
08
08
18
18
30
F0
ENDCHAR
STARTCHAR 006B
ENCODING 107
SWIDTH 540 0
DWIDTH 9 0
BBX 9 13 1 0
BITMAP
1800
1800
1000
1000
3180
3300
2600
3800
7800
6C00
4400
4600
C200
ENDCHAR
STARTCHAR 006C
ENCODING 108
SWIDTH 300 0
DWIDTH 5 0
BBX 4 13 2 0
BITMAP
30
20
20
60
60
40
40
C0
C0
C0
80
C0
C0
ENDCHAR
STARTCHAR 006D
ENCODING 109
SWIDTH 840 0
DWIDTH 14 0
BBX 13 9 1 0
BITMAP
1E70
3FF8
2318
2318
6318
6310
4210
4230
C630
ENDCHAR
STARTCHAR 006E
ENCODING 110
SWIDTH 540 0
DWIDTH 9 0
BBX 8 9 1 0
BITMAP
1E
3F
21
21
61
63
43
42
C2
ENDCHAR
STARTCHAR 006F
ENCODING 111
SWIDTH 540 0
DWIDTH 9 0
BBX 8 9 2 0
BITMAP
1C
76
43
C3
82
82
86
CC
78
ENDCHAR
STARTCHAR 0070
ENCODING 112
SWIDTH 540 0
DWIDTH 9 0
BBX 8 12 1 -3
BITMAP
1E
33
21
21
61
63
43
4E
FC
C0
80
80
ENDCHAR
STARTCHAR 0071
ENCODING 113
SWIDTH 540 0
DWIDTH 9 0
BBX 8 12 2 -3
BITMAP
1F
3B
62
C2
86
86
84
CC
FC
0C
08
08
ENDCHAR
STARTCHAR 0072
ENCODING 114
SWIDTH 360 0
DWIDTH 6 0
BBX 7 9 1 0
BITMAP
1E
3E
20
20
60
60
40
40
C0
ENDCHAR
STARTCHAR 0073
ENCODING 115
SWIDTH 420 0
DWIDTH 7 0
BBX 7 9 1 0
BITMAP
1E
36
60
60
38
0C
0C
8C
F8
ENDCHAR
STARTCHAR 0074
ENCODING 116
SWIDTH 360 0
DWIDTH 6 0
BBX 6 11 2 0
BITMAP
20
60
7C
78
40
C0
C0
C0
80
C0
F0
ENDCHAR
STARTCHAR 0075
ENCODING 117
SWIDTH 540 0
DWIDTH 9 0
BBX 8 9 2 0
BITMAP
63
43
42
C2
C6
86
84
CC
FE
ENDCHAR
STARTCHAR 0076
ENCODING 118
SWIDTH 480 0
DWIDTH 8 0
BBX 8 9 2 0
BITMAP
C3
C2
C6
C4
CC
48
50
70
60
ENDCHAR
STARTCHAR 0077
ENCODING 119
SWIDTH 780 0
DWIDTH 13 0
BBX 13 9 2 0
BITMAP
C218
C610
C630
CE20
CA60
5A40
52C0
6380
6300
ENDCHAR
STARTCHAR 0078
ENCODING 120
SWIDTH 480 0
DWIDTH 8 0
BBX 8 9 1 0
BITMAP
63
22
36
1C
18
38
6C
44
86
ENDCHAR
STARTCHAR 0079
ENCODING 121
SWIDTH 480 0
DWIDTH 8 0
BBX 10 12 -1 -3
BITMAP
1840
18C0
18C0
1880
0980
0900
0B00
0E00
0E00
0C00
1800
F000
ENDCHAR
STARTCHAR 007A
ENCODING 122
SWIDTH 480 0
DWIDTH 8 0
BBX 8 9 1 0
BITMAP
3F
3F
06
0C
18
30
60
C0
FC
ENDCHAR
STARTCHAR 007B
ENCODING 123
SWIDTH 300 0
DWIDTH 5 0
BBX 6 16 2 -3
BITMAP
0C
18
10
30
30
20
20
C0
C0
40
40
40
C0
80
C0
E0
ENDCHAR
STARTCHAR 007C
ENCODING 124
SWIDTH 300 0
DWIDTH 5 0
BBX 5 16 1 -3
BITMAP
08
18
10
10
10
30
30
20
20
60
60
40
40
C0
C0
80
ENDCHAR
STARTCHAR 007D
ENCODING 125
SWIDTH 300 0
DWIDTH 5 0
BBX 7 16 -1 -3
BITMAP
0C
06
06
04
04
04
0C
06
0E
08
18
18
10
10
30
E0
ENDCHAR
STARTCHAR 007E
ENCODING 126
SWIDTH 540 0
DWIDTH 9 0
BBX 8 2 2 4
BITMAP
71
9E
ENDCHAR
STARTCHAR 00A0
ENCODING 160
SWIDTH 240 0
DWIDTH 4 0
BBX 0 0 0 0
BITMAP
ENDCHAR
STARTCHAR 00A1
ENCODING 161
SWIDTH 240 0
DWIDTH 4 0
BBX 4 12 1 -3
BITMAP
30
30
20
00
20
60
40
40
C0
C0
80
80
ENDCHAR
STARTCHAR 00A2
ENCODING 162
SWIDTH 540 0
DWIDTH 9 0
BBX 7 14 3 -2
BITMAP
0C
0C
08
3E
60
C0
80
80
80
80
F8
20
20
60
ENDCHAR
STARTCHAR 00A3
ENCODING 163
SWIDTH 540 0
DWIDTH 9 0
BBX 9 12 2 0
BITMAP
0700
0F80
1800
1000
3000
3000
FE00
2000
6000
6000
4000
FE00
ENDCHAR
STARTCHAR 00A4
ENCODING 164
SWIDTH 540 0
DWIDTH 9 0
BBX 8 7 2 3
BITMAP
FF
66
42
42
42
7E
C3
ENDCHAR
STARTCHAR 00A5
ENCODING 165
SWIDTH 540 0
DWIDTH 9 0
BBX 10 12 2 0
BITMAP
60C0
6180
2100
2300
3600
1C00
7E00
1000
1000
FE00
3000
3000
ENDCHAR
STARTCHAR 00A6
ENCODING 166
SWIDTH 300 0
DWIDTH 5 0
BBX 5 16 1 -3
BITMAP
08
18
10
10
10
30
00
00
00
00
60
40
40
C0
C0
80
ENDCHAR
STARTCHAR 00A7
ENCODING 167
SWIDTH 480 0
DWIDTH 8 0
BBX 8 14 1 -2
BITMAP
0F
19
30
30
1C
26
43
42
76
3C
0C
04
DC
F0
ENDCHAR
STARTCHAR 00A8
ENCODING 168
SWIDTH 360 0
DWIDTH 6 0
BBX 5 2 3 10
BITMAP
C8
48
ENDCHAR
STARTCHAR 00A9
ENCODING 169
SWIDTH 840 0
DWIDTH 14 0
BBX 12 12 2 0
BITMAP
0F00
39C0
6060
4F20
5830
D010
D010
D830
4D20
6720
30C0
1F80
ENDCHAR
STARTCHAR 00AA
ENCODING 170
SWIDTH 420 0
DWIDTH 7 0
BBX 5 6 3 5
BITMAP
38
48
88
98
90
F0
ENDCHAR
STARTCHAR 00AB
ENCODING 171
SWIDTH 480 0
DWIDTH 8 0
BBX 7 7 2 1
BITMAP
32
64
C8
98
C8
4C
64
ENDCHAR
STARTCHAR 00AC
ENCODING 172
SWIDTH 540 0
DWIDTH 9 0
BBX 8 6 2 1
BITMAP
7F
FF
03
02
02
06
ENDCHAR
STARTCHAR 00AD
ENCODING 173
SWIDTH 300 0
DWIDTH 5 0
BBX 5 2 1 4
BITMAP
78
F8
ENDCHAR
STARTCHAR 00AE
ENCODING 174
SWIDTH 840 0
DWIDTH 14 0
BBX 12 12 2 0
BITMAP
0F00
39C0
6060
4F20
4930
C910
CF10
CB30
4920
68A0
30C0
1F80
ENDCHAR
STARTCHAR 00AF
ENCODING 175
SWIDTH 360 0
DWIDTH 6 0
BBX 4 1 4 11
BITMAP
F0
ENDCHAR
STARTCHAR 00B0
ENCODING 176
SWIDTH 360 0
DWIDTH 6 0
BBX 4 5 3 8
BITMAP
E0
90
90
B0
60
ENDCHAR
STARTCHAR 00B1
ENCODING 177
SWIDTH 540 0
DWIDTH 9 0
BBX 9 10 1 0
BITMAP
0600
0400
0400
7F80
0C00
0800
0800
0800
0000
FF00
ENDCHAR
STARTCHAR 00B2
ENCODING 178
SWIDTH 360 0
DWIDTH 6 0
BBX 5 7 2 5
BITMAP
38
48
08
10
60
C0
F8
ENDCHAR
STARTCHAR 00B3
ENCODING 179
SWIDTH 360 0
DWIDTH 6 0
BBX 5 7 2 5
BITMAP
38
08
08
30
08
18
F0
ENDCHAR
STARTCHAR 00B4
ENCODING 180
SWIDTH 360 0
DWIDTH 6 0
BBX 3 3 4 10
BITMAP
20
60
C0
ENDCHAR
STARTCHAR 00B5
ENCODING 181
SWIDTH 600 0
DWIDTH 10 0
BBX 9 12 1 -3
BITMAP
3180
3180
2180
2100
6100
6300
6300
6300
FD00
C000
8000
8000
ENDCHAR
STARTCHAR 00B6
ENCODING 182
SWIDTH 660 0
DWIDTH 11 0
BBX 9 15 3 -3
BITMAP
0F00
7F80
F900
F900
F900
F300
F200
3200
3200
3600
2400
2400
6400
6C00
4800
ENDCHAR
STARTCHAR 00B7
ENCODING 183
SWIDTH 240 0
DWIDTH 4 0
BBX 2 2 2 4
BITMAP
C0
C0
ENDCHAR
STARTCHAR 00B8
ENCODING 184
SWIDTH 360 0
DWIDTH 6 0
BBX 3 3 1 -3
BITMAP
40
60
E0
ENDCHAR
STARTCHAR 00B9
ENCODING 185
SWIDTH 360 0
DWIDTH 6 0
BBX 4 7 3 5
BITMAP
10
60
A0
20
20
60
40
ENDCHAR
STARTCHAR 00BA
ENCODING 186
SWIDTH 420 0
DWIDTH 7 0
BBX 6 7 3 5
BITMAP
38
48
8C
88
88
F0
40
ENDCHAR
STARTCHAR 00BB
ENCODING 187
SWIDTH 480 0
DWIDTH 8 0
BBX 8 7 1 1
BITMAP
24
32
33
13
26
6C
C8
ENDCHAR
STARTCHAR 00BC
ENCODING 188
SWIDTH 900 0
DWIDTH 15 0
BBX 12 12 3 0
BITMAP
1060
6040
A080
2180
2300
6600
4430
08E0
18A0
31F0
6020
4040
ENDCHAR
STARTCHAR 00BD
ENCODING 189
SWIDTH 900 0
DWIDTH 15 0
BBX 12 12 3 0
BITMAP
1060
60C0
A180
2100
2200
6640
4CA0
1830
1060
20C0
6100
C3E0
ENDCHAR
STARTCHAR 00BE
ENCODING 190
SWIDTH 900 0
DWIDTH 15 0
BBX 13 12 2 0
BITMAP
3810
0820
0860
30C0
0980
1900
F218
0670
0C50
18F8
1010
2020
ENDCHAR
STARTCHAR 00BF
ENCODING 191
SWIDTH 360 0
DWIDTH 6 0
BBX 6 12 1 -3
BITMAP
08
1C
08
00
18
18
30
60
C0
80
88
F8
ENDCHAR
STARTCHAR 00C0
ENCODING 192
SWIDTH 660 0
DWIDTH 11 0
BBX 10 15 0 1
BITMAP
0100
0080
0000
0180
0180
0380
0680
04C0
0CC0
18C0
10C0
3FC0
2040
6040
C040
ENDCHAR
STARTCHAR 00C1
ENCODING 193
SWIDTH 660 0
DWIDTH 11 0
BBX 10 15 0 1
BITMAP
00C0
0180
0100
0180
0180
0380
0680
04C0
0CC0
18C0
10C0
3FC0
2040
6040
C040
ENDCHAR
STARTCHAR 00C2
ENCODING 194
SWIDTH 660 0
DWIDTH 11 0
BBX 10 15 0 0
BITMAP
00C0
0140
0000
0180
0180
0380
0680
04C0
0CC0
18C0
10C0
3FC0
2040
6040
C040
ENDCHAR
STARTCHAR 00C3
ENCODING 195
SWIDTH 660 0
DWIDTH 11 0
BBX 11 15 0 0
BITMAP
01A0
02E0
0000
0180
0180
0380
0680
04C0
0CC0
18C0
10C0
3FC0
2040
6040
C040
ENDCHAR
STARTCHAR 00C4
ENCODING 196
SWIDTH 660 0
DWIDTH 11 0
BBX 11 15 0 0
BITMAP
0320
0360
0000
0180
0180
0380
0680
04C0
0CC0
18C0
10C0
3FC0
2040
6040
C040
ENDCHAR
STARTCHAR 00C5
ENCODING 197
SWIDTH 660 0
DWIDTH 11 0
BBX 10 14 0 0
BITMAP
0180
0240
0140
0180
0380
0680
04C0
0CC0
18C0
10C0
3FC0
2040
6040
C040
ENDCHAR
STARTCHAR 00C6
ENCODING 198
SWIDTH 900 0
DWIDTH 15 0
BBX 17 12 0 0
BITMAP
003F80
007F80
00F000
01A000
032000
067E00
0C7E00
184000
1FC000
30C000
60C000
C0FE00
ENDCHAR
STARTCHAR 00C7
ENCODING 199
SWIDTH 600 0
DWIDTH 10 0
BBX 10 15 2 -3
BITMAP
0780
1FC0
3000
6000
4000
C000
C000
C000
C000
C000
6100
3F00
1000
1800
3800
ENDCHAR
STARTCHAR 00C8
ENCODING 200
SWIDTH 540 0
DWIDTH 9 0
BBX 10 15 1 1
BITMAP
0600
0300
0100
1FC0
1FC0
1000
3000
3000
3F00
3F00
6000
6000
6000
4000
FF00
ENDCHAR
STARTCHAR 00C9
ENCODING 201
SWIDTH 540 0
DWIDTH 9 0
BBX 10 15 1 1
BITMAP
0180
0300
0000
1FC0
1FC0
1000
3000
3000
3F00
3F00
6000
6000
6000
4000
FF00
ENDCHAR
STARTCHAR 00CA
ENCODING 202
SWIDTH 540 0
DWIDTH 9 0
BBX 10 15 1 0
BITMAP
0300
0780
0080
1FC0
1FC0
1000
3000
3000
3F00
3F00
6000
6000
6000
4000
FF00
ENDCHAR
STARTCHAR 00CB
ENCODING 203
SWIDTH 540 0
DWIDTH 9 0
BBX 10 15 1 0
BITMAP
0480
04C0
0000
1FC0
1FC0
1000
3000
3000
3F00
3F00
6000
6000
6000
4000
FF00
ENDCHAR
STARTCHAR 00CC
ENCODING 204
SWIDTH 240 0
DWIDTH 4 0
BBX 5 16 1 0
BITMAP
10
10
08
00
18
10
10
30
30
30
20
60
60
60
40
C0
ENDCHAR
STARTCHAR 00CD
ENCODING 205
SWIDTH 240 0
DWIDTH 4 0
BBX 6 16 1 0
BITMAP
04
0C
18
10
18
10
10
30
30
30
20
60
60
60
40
C0
ENDCHAR
STARTCHAR 00CE
ENCODING 206
SWIDTH 240 0
DWIDTH 4 0
BBX 6 15 1 0
BITMAP
08
14
20
18
10
10
30
30
30
20
60
60
60
40
C0
ENDCHAR
STARTCHAR 00CF
ENCODING 207
SWIDTH 240 0
DWIDTH 4 0
BBX 7 15 1 0
BITMAP
36
36
00
18
10
10
30
30
30
20
60
60
60
40
C0
ENDCHAR
STARTCHAR 00D0
ENCODING 208
SWIDTH 720 0
DWIDTH 12 0
BBX 10 12 2 0
BITMAP
1E00
3F80
30C0
2040
6040
F840
F840
40C0
40C0
C180
C700
FC00
ENDCHAR
STARTCHAR 00D1
ENCODING 209
SWIDTH 720 0
DWIDTH 12 0
BBX 12 15 1 0
BITMAP
0320
06C0
0000
1830
1830
1C20
3420
3660
2660
2260
6340
61C0
61C0
41C0
C080
ENDCHAR
STARTCHAR 00D2
ENCODING 210
SWIDTH 720 0
DWIDTH 12 0
BBX 11 16 2 0
BITMAP
0200
0600
0300
0100
0780
1FC0
3060
6060
4060
C060
C060
C040
C0C0
C180
6380
3E00
ENDCHAR
STARTCHAR 00D3
ENCODING 211
SWIDTH 720 0
DWIDTH 12 0
BBX 11 16 2 0
BITMAP
0080
0180
0300
0200
0780
1FC0
3060
6060
4060
C060
C060
C040
C0C0
C180
6380
3E00
ENDCHAR
STARTCHAR 00D4
ENCODING 212
SWIDTH 720 0
DWIDTH 12 0
BBX 11 15 2 0
BITMAP
0100
0680
0400
0780
1FC0
3060
6060
4060
C060
C060
C040
C0C0
C180
6380
3E00
ENDCHAR
STARTCHAR 00D5
ENCODING 213
SWIDTH 720 0
DWIDTH 12 0
BBX 11 15 2 0
BITMAP
0240
05C0
0000
0780
1FC0
3060
6060
4060
C060
C060
C040
C0C0
C180
6380
3E00
ENDCHAR
STARTCHAR 00D6
ENCODING 214
SWIDTH 720 0
DWIDTH 12 0
BBX 11 15 2 0
BITMAP
06C0
06C0
0000
0780
1FC0
3060
6060
4060
C060
C060
C040
C0C0
C180
6380
3E00
ENDCHAR
STARTCHAR 00D7
ENCODING 215
SWIDTH 540 0
DWIDTH 9 0
BBX 8 6 2 2
BITMAP
63
36
1C
38
6C
C6
ENDCHAR
STARTCHAR 00D8
ENCODING 216
SWIDTH 720 0
DWIDTH 12 0
BBX 11 12 2 -1
BITMAP
07A0
1FC0
30E0
61E0
4360
C660
CC60
C840
D0C0
E180
6380
FE00
ENDCHAR
STARTCHAR 00D9
ENCODING 217
SWIDTH 660 0
DWIDTH 11 0
BBX 11 15 2 1
BITMAP
0600
0200
0000
3060
2040
20C0
60C0
60C0
4080
4180
C180
C180
C300
E700
7E00
ENDCHAR
STARTCHAR 00DA
ENCODING 218
SWIDTH 660 0
DWIDTH 11 0
BBX 11 15 2 1
BITMAP
0180
0200
0000
3060
2040
20C0
60C0
60C0
4080
4180
C180
C180
C300
E700
7E00
ENDCHAR
STARTCHAR 00DB
ENCODING 219
SWIDTH 660 0
DWIDTH 11 0
BBX 11 15 2 0
BITMAP
0300
0500
0000
3060
2040
20C0
60C0
60C0
4080
4180
C180
C180
C300
E700
7E00
ENDCHAR
STARTCHAR 00DC
ENCODING 220
SWIDTH 660 0
DWIDTH 11 0
BBX 11 15 2 0
BITMAP
0480
0D80
0000
3060
2040
20C0
60C0
60C0
4080
4180
C180
C180
C300
E700
7E00
ENDCHAR
STARTCHAR 00DD
ENCODING 221
SWIDTH 600 0
DWIDTH 10 0
BBX 9 15 3 1
BITMAP
0600
0C00
0000
8180
C100
C300
4600
6C00
7800
3000
3000
2000
6000
6000
6000
ENDCHAR
STARTCHAR 00DE
ENCODING 222
SWIDTH 600 0
DWIDTH 10 0
BBX 10 12 1 0
BITMAP
1800
1000
1E00
3F80
30C0
30C0
2080
6180
7F00
7800
4000
C000
ENDCHAR
STARTCHAR 00DF
ENCODING 223
SWIDTH 600 0
DWIDTH 10 0
BBX 11 16 0 -3
BITMAP
03C0
0EC0
0C60
0840
1880
1900
1300
1300
3180
30C0
2040
20C0
6F80
6000
4000
C000
ENDCHAR
STARTCHAR 00E0
ENCODING 224
SWIDTH 540 0
DWIDTH 9 0
BBX 8 13 2 0
BITMAP
08
0C
04
00
1F
3B
62
C6
86
86
84
CC
FC
ENDCHAR
STARTCHAR 00E1
ENCODING 225
SWIDTH 540 0
DWIDTH 9 0
BBX 8 13 2 0
BITMAP
02
06
0C
00
1F
3B
62
C6
86
86
84
CC
FC
ENDCHAR
STARTCHAR 00E2
ENCODING 226
SWIDTH 540 0
DWIDTH 9 0
BBX 8 13 2 0
BITMAP
04
0E
12
00
1F
3B
62
C6
86
86
84
CC
FC
ENDCHAR
STARTCHAR 00E3
ENCODING 227
SWIDTH 540 0
DWIDTH 9 0
BBX 8 12 2 0
BITMAP
1D
02
00
1F
3B
62
C6
86
86
84
CC
FC
ENDCHAR
STARTCHAR 00E4
ENCODING 228
SWIDTH 540 0
DWIDTH 9 0
BBX 8 12 2 0
BITMAP
1B
12
00
1F
3B
62
C6
86
86
84
CC
FC
ENDCHAR
STARTCHAR 00E5
ENCODING 229
SWIDTH 540 0
DWIDTH 9 0
BBX 8 13 2 0
BITMAP
0E
12
0A
04
1F
3B
62
C6
86
86
84
CC
FC
ENDCHAR
STARTCHAR 00E6
ENCODING 230
SWIDTH 840 0
DWIDTH 14 0
BBX 13 9 2 0
BITMAP
38F0
7FB0
0718
0210
7FF0
C780
8600
8E00
FBE0
ENDCHAR
STARTCHAR 00E7
ENCODING 231
SWIDTH 480 0
DWIDTH 8 0
BBX 7 12 2 -3
BITMAP
1E
74
40
C0
80
80
80
C0
78
20
20
E0
ENDCHAR
STARTCHAR 00E8
ENCODING 232
SWIDTH 540 0
DWIDTH 9 0
BBX 7 13 2 0
BITMAP
08
08
04
00
1C
76
42
C6
FC
E0
80
C4
7C
ENDCHAR
STARTCHAR 00E9
ENCODING 233
SWIDTH 540 0
DWIDTH 9 0
BBX 7 13 2 0
BITMAP
02
06
08
00
1C
76
42
C6
FC
E0
80
C4
7C
ENDCHAR
STARTCHAR 00EA
ENCODING 234
SWIDTH 540 0
DWIDTH 9 0
BBX 7 13 2 0
BITMAP
04
0C
12
00
1C
76
42
C6
FC
E0
80
C4
7C
ENDCHAR
STARTCHAR 00EB
ENCODING 235
SWIDTH 540 0
DWIDTH 9 0
BBX 8 12 2 0
BITMAP
1B
12
00
1C
76
42
C6
FC
E0
80
C4
7C
ENDCHAR
STARTCHAR 00EC
ENCODING 236
SWIDTH 240 0
DWIDTH 4 0
BBX 5 13 1 0
BITMAP
20
30
18
00
30
30
20
20
60
60
40
40
C0
ENDCHAR
STARTCHAR 00ED
ENCODING 237
SWIDTH 240 0
DWIDTH 4 0
BBX 5 13 1 0
BITMAP
08
18
30
00
30
30
20
20
60
60
40
40
C0
ENDCHAR
STARTCHAR 00EE
ENCODING 238
SWIDTH 240 0
DWIDTH 4 0
BBX 6 12 1 1
BITMAP
18
6C
00
30
30
20
20
60
60
40
40
C0
ENDCHAR
STARTCHAR 00EF
ENCODING 239
SWIDTH 240 0
DWIDTH 4 0
BBX 6 12 1 0
BITMAP
6C
64
00
30
30
20
20
60
60
40
40
C0
ENDCHAR
STARTCHAR 00F0
ENCODING 240
SWIDTH 540 0
DWIDTH 9 0
BBX 9 13 2 0
BITMAP
0400
0780
0F00
0A00
0300
3F00
6300
C300
8300
8200
8600
CC00
7800
ENDCHAR
STARTCHAR 00F1
ENCODING 241
SWIDTH 540 0
DWIDTH 9 0
BBX 9 12 1 0
BITMAP
0E80
0100
0000
1E00
3F00
2100
2100
6100
6300
4300
4200
C200
ENDCHAR
STARTCHAR 00F2
ENCODING 242
SWIDTH 540 0
DWIDTH 9 0
BBX 8 13 2 0
BITMAP
08
08
04
00
1C
76
43
C3
82
82
86
CC
78
ENDCHAR
STARTCHAR 00F3
ENCODING 243
SWIDTH 540 0
DWIDTH 9 0
BBX 8 13 2 0
BITMAP
02
06
08
00
1C
76
43
C3
82
82
86
CC
78
ENDCHAR
STARTCHAR 00F4
ENCODING 244
SWIDTH 540 0
DWIDTH 9 0
BBX 8 13 2 0
BITMAP
04
0C
12
00
1C
76
43
C3
82
82
86
CC
78
ENDCHAR
STARTCHAR 00F5
ENCODING 245
SWIDTH 540 0
DWIDTH 9 0
BBX 8 12 2 0
BITMAP
1F
06
00
1C
76
43
C3
82
82
86
CC
78
ENDCHAR
STARTCHAR 00F6
ENCODING 246
SWIDTH 540 0
DWIDTH 9 0
BBX 8 12 2 0
BITMAP
1B
12
00
1C
76
43
C3
82
82
86
CC
78
ENDCHAR
STARTCHAR 00F7
ENCODING 247
SWIDTH 540 0
DWIDTH 9 0
BBX 8 8 2 1
BITMAP
0C
08
00
FF
FE
00
10
30
ENDCHAR
STARTCHAR 00F8
ENCODING 248
SWIDTH 540 0
DWIDTH 9 0
BBX 8 9 2 -1
BITMAP
1D
76
47
CB
92
B2
E6
CC
F8
ENDCHAR
STARTCHAR 00F9
ENCODING 249
SWIDTH 540 0
DWIDTH 9 0
BBX 8 13 2 0
BITMAP
08
08
04
00
63
43
42
C2
C6
86
84
CC
FE
ENDCHAR
STARTCHAR 00FA
ENCODING 250
SWIDTH 540 0
DWIDTH 9 0
BBX 8 13 2 0
BITMAP
02
06
08
00
63
43
42
C2
C6
86
84
CC
FE
ENDCHAR
STARTCHAR 00FB
ENCODING 251
SWIDTH 540 0
DWIDTH 9 0
BBX 8 13 2 0
BITMAP
04
0C
12
00
63
43
42
C2
C6
86
84
CC
FE
ENDCHAR
STARTCHAR 00FC
ENCODING 252
SWIDTH 540 0
DWIDTH 9 0
BBX 8 12 2 0
BITMAP
1B
12
00
63
43
42
C2
C6
86
84
CC
FE
ENDCHAR
STARTCHAR 00FD
ENCODING 253
SWIDTH 480 0
DWIDTH 8 0
BBX 10 16 -1 -3
BITMAP
0080
0180
0300
0000
1840
18C0
18C0
1880
0980
0900
0B00
0E00
0E00
0C00
1800
F000
ENDCHAR
STARTCHAR 00FE
ENCODING 254
SWIDTH 540 0
DWIDTH 9 0
BBX 8 16 1 -3
BITMAP
18
18
10
10
3E
33
21
21
61
63
43
4E
FC
C0
80
80
ENDCHAR
STARTCHAR 00FF
ENCODING 255
SWIDTH 480 0
DWIDTH 8 0
BBX 10 15 -1 -3
BITMAP
06C0
0480
0000
1840
18C0
18C0
1880
0980
0900
0B00
0E00
0E00
0C00
1800
F000
ENDCHAR
STARTCHAR 0100
ENCODING 256
SWIDTH 660 0
DWIDTH 11 0
BBX 11 14 0 0
BITMAP
03E0
0000
0180
0180
0380
0680
04C0
0CC0
18C0
10C0
3FC0
2040
6040
C040
ENDCHAR
STARTCHAR 0101
ENCODING 257
SWIDTH 540 0
DWIDTH 9 0
BBX 8 12 2 0
BITMAP
1F
00
00
1F
3B
62
C6
86
86
84
CC
FC
ENDCHAR
STARTCHAR 0102
ENCODING 258
SWIDTH 660 0
DWIDTH 11 0
BBX 11 15 0 0
BITMAP
0120
01C0
0000
0180
0180
0380
0680
04C0
0CC0
18C0
10C0
3FC0
2040
6040
C040
ENDCHAR
STARTCHAR 0103
ENCODING 259
SWIDTH 540 0
DWIDTH 9 0
BBX 8 12 2 0
BITMAP
1B
0E
00
1F
3B
62
C6
86
86
84
CC
FC
ENDCHAR
STARTCHAR 0104
ENCODING 260
SWIDTH 660 0
DWIDTH 11 0
BBX 10 15 0 -3
BITMAP
0180
0180
0380
0680
04C0
0CC0
18C0
10C0
3FC0
2040
6040
C040
00C0
0180
01C0
ENDCHAR
STARTCHAR 0105
ENCODING 261
SWIDTH 540 0
DWIDTH 9 0
BBX 8 12 2 -3
BITMAP
1F
3B
62
C6
86
86
84
CC
FC
04
08
0C
ENDCHAR
STARTCHAR 0106
ENCODING 262
SWIDTH 600 0
DWIDTH 10 0
BBX 10 15 2 1
BITMAP
0180
0300
0200
0780
1FC0
3000
6000
4000
C000
C000
C000
C000
C000
6100
3F00
ENDCHAR
STARTCHAR 0107
ENCODING 263
SWIDTH 480 0
DWIDTH 8 0
BBX 7 13 2 0
BITMAP
02
06
08
00
1E
74
40
C0
80
80
80
C0
78
ENDCHAR
STARTCHAR 0108
ENCODING 264
SWIDTH 600 0
DWIDTH 10 0
BBX 10 15 2 0
BITMAP
0300
0780
0480
0780
1FC0
3000
6000
4000
C000
C000
C000
C000
C000
6100
3F00
ENDCHAR
STARTCHAR 0109
ENCODING 265
SWIDTH 480 0
DWIDTH 8 0
BBX 7 13 2 0
BITMAP
04
0C
12
00
1E
74
40
C0
80
80
80
C0
78
ENDCHAR
STARTCHAR 010A
ENCODING 266
SWIDTH 600 0
DWIDTH 10 0
BBX 10 15 2 0
BITMAP
0300
0300
0000
0780
1FC0
3000
6000
4000
C000
C000
C000
C000
C000
6100
3F00
ENDCHAR
STARTCHAR 010B
ENCODING 267
SWIDTH 480 0
DWIDTH 8 0
BBX 7 12 2 0
BITMAP
0C
04
00
1E
74
40
C0
80
80
80
C0
78
ENDCHAR
STARTCHAR 010C
ENCODING 268
SWIDTH 600 0
DWIDTH 10 0
BBX 10 15 2 1
BITMAP
0680
0300
0000
0780
1FC0
3000
6000
4000
C000
C000
C000
C000
C000
6100
3F00
ENDCHAR
STARTCHAR 010D
ENCODING 269
SWIDTH 480 0
DWIDTH 8 0
BBX 7 13 2 0
BITMAP
10
0E
0C
00
1E
74
40
C0
80
80
80
C0
78
ENDCHAR
STARTCHAR 010E
ENCODING 270
SWIDTH 720 0
DWIDTH 12 0
BBX 11 15 1 1
BITMAP
02C0
0180
0100
0F00
1FC0
1060
3060
3060
3060
2060
6060
60C0
61C0
4380
FE00
ENDCHAR
STARTCHAR 010F
ENCODING 271
SWIDTH 600 0
DWIDTH 10 0
BBX 11 13 2 0
BITMAP
01A0
01A0
0160
0140
1F00
3B00
6200
C200
8600
8600
8400
CC00
FC00
ENDCHAR
STARTCHAR 0110
ENCODING 272
SWIDTH 720 0
DWIDTH 12 0
BBX 10 12 2 0
BITMAP
1E00
3F80
30C0
2040
6040
F840
F840
40C0
40C0
C180
C700
FC00
ENDCHAR
STARTCHAR 0111
ENCODING 273
SWIDTH 540 0
DWIDTH 9 0
BBX 10 13 2 0
BITMAP
0180
0180
0FC0
0100
0F00
3F00
6200
C200
8600
8600
8400
CC00
FC00
ENDCHAR
STARTCHAR 0112
ENCODING 274
SWIDTH 540 0
DWIDTH 9 0
BBX 10 14 1 0
BITMAP
0780
0000
1FC0
1FC0
1000
3000
3000
3F00
3F00
6000
6000
6000
4000
FF00
ENDCHAR
STARTCHAR 0113
ENCODING 275
SWIDTH 540 0
DWIDTH 9 0
BBX 8 12 2 0
BITMAP
1F
00
00
1C
76
42
C6
FC
E0
80
C4
7C
ENDCHAR
STARTCHAR 0114
ENCODING 276
SWIDTH 540 0
DWIDTH 9 0
BBX 10 15 1 0
BITMAP
0480
0780
0000
1FC0
1FC0
1000
3000
3000
3F00
3F00
6000
6000
6000
4000
FF00
ENDCHAR
STARTCHAR 0115
ENCODING 277
SWIDTH 540 0
DWIDTH 9 0
BBX 7 12 2 0
BITMAP
1A
0C
00
1C
76
42
C6
FC
E0
80
C4
7C
ENDCHAR
STARTCHAR 0116
ENCODING 278
SWIDTH 540 0
DWIDTH 9 0
BBX 10 15 1 0
BITMAP
0300
0300
0000
1FC0
1FC0
1000
3000
3000
3F00
3F00
6000
6000
6000
4000
FF00
ENDCHAR
STARTCHAR 0117
ENCODING 279
SWIDTH 540 0
DWIDTH 9 0
BBX 7 12 2 0
BITMAP
0C
0C
00
1C
76
42
C6
FC
E0
80
C4
7C
ENDCHAR
STARTCHAR 0118
ENCODING 280
SWIDTH 540 0
DWIDTH 9 0
BBX 10 15 1 -3
BITMAP
1FC0
1FC0
1000
3000
3000
3F00
3F00
6000
6000
6000
4000
FF00
0600
0C00
0E00
ENDCHAR
STARTCHAR 0119
ENCODING 281
SWIDTH 540 0
DWIDTH 9 0
BBX 7 12 2 -3
BITMAP
1C
76
42
C6
FC
E0
80
C4
7C
18
30
38
ENDCHAR
STARTCHAR 011A
ENCODING 282
SWIDTH 540 0
DWIDTH 9 0
BBX 10 15 1 1
BITMAP
0680
0300
0000
1FC0
1FC0
1000
3000
3000
3F00
3F00
6000
6000
6000
4000
FF00
ENDCHAR
STARTCHAR 011B
ENCODING 283
SWIDTH 540 0
DWIDTH 9 0
BBX 7 13 2 0
BITMAP
10
0E
0C
00
1C
76
42
C6
FC
E0
80
C4
7C
ENDCHAR
STARTCHAR 011C
ENCODING 284
SWIDTH 660 0
DWIDTH 11 0
BBX 10 15 2 0
BITMAP
0300
0780
0480
0780
1FC0
3000
6000
4000
C000
C180
C180
C180
C100
6100
3F00
ENDCHAR
STARTCHAR 011D
ENCODING 285
SWIDTH 540 0
DWIDTH 9 0
BBX 10 16 0 -3
BITMAP
0100
0380
0680
0000
0780
0FC0
1880
3080
2180
2180
2100
3F00
1B00
0300
4600
FC00
ENDCHAR
STARTCHAR 011E
ENCODING 286
SWIDTH 660 0
DWIDTH 11 0
BBX 10 15 2 0
BITMAP
0440
0380
0000
0780
1FC0
3000
6000
4000
C000
C180
C180
C180
C100
6100
3F00
ENDCHAR
STARTCHAR 011F
ENCODING 287
SWIDTH 540 0
DWIDTH 9 0
BBX 10 15 0 -3
BITMAP
02C0
0380
0000
0780
0FC0
1880
3080
2180
2180
2100
3F00
1B00
0300
4600
FC00
ENDCHAR
STARTCHAR 0120
ENCODING 288
SWIDTH 660 0
DWIDTH 11 0
BBX 10 15 2 0
BITMAP
0100
0300
0000
0780
1FC0
3000
6000
4000
C000
C180
C180
C180
C100
6100
3F00
ENDCHAR
STARTCHAR 0121
ENCODING 289
SWIDTH 540 0
DWIDTH 9 0
BBX 10 15 0 -3
BITMAP
0300
0100
0000
0780
0FC0
1880
3080
2180
2180
2100
3F00
1B00
0300
4600
FC00
ENDCHAR
STARTCHAR 0122
ENCODING 290
SWIDTH 660 0
DWIDTH 11 0
BBX 10 15 2 -3
BITMAP
0780
1FC0
3000
6000
4000
C000
C180
C180
C180
C100
6100
3F00
0000
1800
3000
ENDCHAR
STARTCHAR 0123
ENCODING 291
SWIDTH 540 0
DWIDTH 9 0
BBX 10 16 0 -3
BITMAP
0080
0100
0300
0000
0780
0FC0
1880
3080
2180
2180
2100
3F00
1B00
0300
4600
FC00
ENDCHAR
STARTCHAR 0124
ENCODING 292
SWIDTH 660 0
DWIDTH 11 0
BBX 12 15 1 0
BITMAP
0180
03C0
0000
1830
1020
1020
3060
3060
3FC0
3FC0
60C0
60C0
60C0
4080
C180
ENDCHAR
STARTCHAR 0125
ENCODING 293
SWIDTH 540 0
DWIDTH 9 0
BBX 8 16 1 0
BITMAP
04
1A
00
18
18
10
10
3E
3F
21
21
61
63
43
42
C2
ENDCHAR
STARTCHAR 0126
ENCODING 294
SWIDTH 720 0
DWIDTH 12 0
BBX 12 12 2 0
BITMAP
3060
3060
7FF0
2040
60C0
7FC0
7F80
4080
C180
C180
C180
8100
ENDCHAR
STARTCHAR 0127
ENCODING 295
SWIDTH 540 0
DWIDTH 9 0
BBX 8 13 1 0
BITMAP
18
18
3E
10
3E
3F
21
21
61
63
43
42
C2
ENDCHAR
STARTCHAR 0128
ENCODING 296
SWIDTH 240 0
DWIDTH 4 0
BBX 7 15 1 0
BITMAP
1A
2E
00
18
10
10
30
30
30
20
60
60
60
40
C0
ENDCHAR
STARTCHAR 0129
ENCODING 297
SWIDTH 240 0
DWIDTH 4 0
BBX 6 12 1 0
BITMAP
7C
48
00
30
30
20
20
60
60
40
40
C0
ENDCHAR
STARTCHAR 012A
ENCODING 298
SWIDTH 240 0
DWIDTH 4 0
BBX 7 14 1 0
BITMAP
3E
00
18
10
10
30
30
30
20
60
60
60
40
C0
ENDCHAR
STARTCHAR 012B
ENCODING 299
SWIDTH 240 0
DWIDTH 4 0
BBX 6 12 1 0
BITMAP
3C
00
00
30
30
20
20
60
60
40
40
C0
ENDCHAR
STARTCHAR 012C
ENCODING 300
SWIDTH 240 0
DWIDTH 4 0
BBX 7 15 1 0
BITMAP
12
1C
00
18
10
10
30
30
30
20
60
60
60
40
C0
ENDCHAR
STARTCHAR 012D
ENCODING 301
SWIDTH 240 0
DWIDTH 4 0
BBX 6 12 1 0
BITMAP
24
18
00
30
30
20
20
60
60
40
40
C0
ENDCHAR
STARTCHAR 012E
ENCODING 302
SWIDTH 240 0
DWIDTH 4 0
BBX 6 15 0 -3
BITMAP
0C
08
08
18
18
18
10
30
30
30
20
60
40
80
C0
ENDCHAR
STARTCHAR 012F
ENCODING 303
SWIDTH 240 0
DWIDTH 4 0
BBX 6 15 0 -3
BITMAP
0C
08
00
18
18
10
10
30
30
20
20
60
40
80
C0
ENDCHAR
STARTCHAR 0130
ENCODING 304
SWIDTH 240 0
DWIDTH 4 0
BBX 5 15 1 0
BITMAP
08
18
00
18
10
10
30
30
30
20
60
60
60
40
C0
ENDCHAR
STARTCHAR 0131
ENCODING 305
SWIDTH 240 0
DWIDTH 4 0
BBX 4 9 1 0
BITMAP
30
30
20
20
60
60
40
40
C0
ENDCHAR
STARTCHAR 0132
ENCODING 306
SWIDTH 720 0
DWIDTH 12 0
BBX 13 12 1 0
BITMAP
1818
1018
1010
3010
3030
3030
2020
6020
6060
6060
48C0
CF80
ENDCHAR
STARTCHAR 0133
ENCODING 307
SWIDTH 480 0
DWIDTH 8 0
BBX 9 15 1 -3
BITMAP
1980
1180
0000
3100
3300
2300
2200
6200
6600
4600
4400
C400
0C00
0800
7800
ENDCHAR
STARTCHAR 0134
ENCODING 308
SWIDTH 480 0
DWIDTH 8 0
BBX 10 15 1 0
BITMAP
0180
03C0
0040
0100
0100
0300
0300
0200
0200
0600
0600
0600
0400
8C00
F800
ENDCHAR
STARTCHAR 0135
ENCODING 309
SWIDTH 240 0
DWIDTH 4 0
BBX 9 15 -2 -2
BITMAP
0700
0D80
0000
0600
0600
0400
0400
0C00
0C00
0800
0800
1800
1800
3000
F000
ENDCHAR
STARTCHAR 0136
ENCODING 310
SWIDTH 600 0
DWIDTH 10 0
BBX 11 15 1 -3
BITMAP
1860
10C0
1180
3300
3600
3C00
3C00
6C00
6600
6300
4100
C180
0000
0800
3800
ENDCHAR
STARTCHAR 0137
ENCODING 311
SWIDTH 540 0
DWIDTH 9 0
BBX 9 16 1 -3
BITMAP
1800
1800
1000
1000
3180
3300
2600
3800
7800
6C00
4400
4600
C200
0000
1000
3000
ENDCHAR
STARTCHAR 0138
ENCODING 312
SWIDTH 540 0
DWIDTH 9 0
BBX 9 9 1 0
BITMAP
3180
3300
2600
2C00
7800
6C00
4400
4600
C300
ENDCHAR
STARTCHAR 0139
ENCODING 313
SWIDTH 480 0
DWIDTH 8 0
BBX 7 15 1 1
BITMAP
06
0C
00
18
10
10
30
30
30
20
60
60
60
40
FE
ENDCHAR
STARTCHAR 013A
ENCODING 314
SWIDTH 300 0
DWIDTH 5 0
BBX 5 16 2 0
BITMAP
08
38
00
30
20
20
60
60
40
40
C0
C0
C0
80
C0
C0
ENDCHAR
STARTCHAR 013B
ENCODING 315
SWIDTH 480 0
DWIDTH 8 0
BBX 7 15 1 -3
BITMAP
18
10
10
30
30
30
20
60
60
60
40
FE
00
10
70
ENDCHAR
STARTCHAR 013C
ENCODING 316
SWIDTH 300 0
DWIDTH 5 0
BBX 6 16 0 -3
BITMAP
0C
08
08
18
18
10
10
30
30
30
20
30
30
00
20
E0
ENDCHAR
STARTCHAR 013D
ENCODING 317
SWIDTH 480 0
DWIDTH 8 0
BBX 8 12 1 0
BITMAP
1B
12
12
36
30
30
20
60
60
60
40
FE
ENDCHAR
STARTCHAR 013E
ENCODING 318
SWIDTH 300 0
DWIDTH 5 0
BBX 6 13 2 0
BITMAP
34
24
2C
68
60
40
40
C0
C0
C0
80
C0
C0
ENDCHAR
STARTCHAR 013F
ENCODING 319
SWIDTH 480 0
DWIDTH 8 0
BBX 8 12 1 0
BITMAP
18
10
10
30
30
33
23
60
60
60
40
FE
ENDCHAR
STARTCHAR 0140
ENCODING 320
SWIDTH 360 0
DWIDTH 6 0
BBX 5 13 2 0
BITMAP
30
20
20
60
60
40
58
D8
C0
C0
80
C0
C0
ENDCHAR
STARTCHAR 0141
ENCODING 321
SWIDTH 540 0
DWIDTH 9 0
BBX 8 12 1 0
BITMAP
18
18
18
10
34
3C
70
A0
20
60
60
7F
ENDCHAR
STARTCHAR 0142
ENCODING 322
SWIDTH 300 0
DWIDTH 5 0
BBX 5 13 2 0
BITMAP
10
30
30
20
20
78
E0
C0
40
C0
C0
C0
60
ENDCHAR
STARTCHAR 0143
ENCODING 323
SWIDTH 720 0
DWIDTH 12 0
BBX 12 15 1 1
BITMAP
00C0
0180
0000
1830
1830
1C20
3420
3660
2660
2260
6340
61C0
61C0
41C0
C080
ENDCHAR
STARTCHAR 0144
ENCODING 324
SWIDTH 540 0
DWIDTH 9 0
BBX 8 13 1 0
BITMAP
01
03
06
00
1E
3F
21
21
61
63
43
42
C2
ENDCHAR
STARTCHAR 0145
ENCODING 325
SWIDTH 720 0
DWIDTH 12 0
BBX 12 15 1 -3
BITMAP
1830
1830
1C20
3420
3660
2660
2260
6340
61C0
61C0
41C0
C080
0000
0800
3800
ENDCHAR
STARTCHAR 0146
ENCODING 326
SWIDTH 540 0
DWIDTH 9 0
BBX 8 12 1 -3
BITMAP
1E
3F
21
21
61
63
43
42
C2
00
10
60
ENDCHAR
STARTCHAR 0147
ENCODING 327
SWIDTH 720 0
DWIDTH 12 0
BBX 12 15 1 1
BITMAP
0340
0180
0000
1830
1830
1C20
3420
3660
2660
2260
6340
61C0
61C0
41C0
C080
ENDCHAR
STARTCHAR 0148
ENCODING 328
SWIDTH 540 0
DWIDTH 9 0
BBX 8 12 1 1
BITMAP
07
06
00
1E
3F
21
21
61
63
43
42
C2
ENDCHAR
STARTCHAR 0149
ENCODING 329
SWIDTH 540 0
DWIDTH 9 0
BBX 8 13 1 0
BITMAP
10
30
20
00
1E
3F
21
21
61
63
43
42
C2
ENDCHAR
STARTCHAR 014A
ENCODING 330
SWIDTH 720 0
DWIDTH 12 0
BBX 12 15 1 -3
BITMAP
1830
1830
1C20
3420
3660
2660
2260
6340
61C0
61C0
41C0
C080
0080
0180
0700
ENDCHAR
STARTCHAR 014B
ENCODING 331
SWIDTH 540 0
DWIDTH 9 0
BBX 8 12 1 -3
BITMAP
1E
3F
21
21
61
63
43
42
C2
06
06
1C
ENDCHAR
STARTCHAR 014C
ENCODING 332
SWIDTH 720 0
DWIDTH 12 0
BBX 11 14 2 0
BITMAP
07C0
0000
0780
1FC0
3060
6060
4060
C060
C060
C040
C0C0
C180
6380
3E00
ENDCHAR
STARTCHAR 014D
ENCODING 333
SWIDTH 540 0
DWIDTH 9 0
BBX 8 12 2 0
BITMAP
1F
00
00
1C
76
43
C3
82
82
86
CC
78
ENDCHAR
STARTCHAR 014E
ENCODING 334
SWIDTH 720 0
DWIDTH 12 0
BBX 11 15 2 0
BITMAP
0640
0380
0000
0780
1FC0
3060
6060
4060
C060
C060
C040
C0C0
C180
6380
3E00
ENDCHAR
STARTCHAR 014F
ENCODING 335
SWIDTH 540 0
DWIDTH 9 0
BBX 8 12 2 0
BITMAP
1B
0E
00
1C
76
43
C3
82
82
86
CC
78
ENDCHAR
STARTCHAR 0150
ENCODING 336
SWIDTH 720 0
DWIDTH 12 0
BBX 11 16 2 0
BITMAP
0100
0160
02C0
0080
0780
1FC0
3060
6060
4060
C060
C060
C040
C0C0
C180
6380
3E00
ENDCHAR
STARTCHAR 0151
ENCODING 337
SWIDTH 540 0
DWIDTH 9 0
BBX 9 13 2 0
BITMAP
0400
0D80
1A00
0000
1C00
7600
4300
C300
8200
8200
8600
CC00
7800
ENDCHAR
STARTCHAR 0152
ENCODING 338
SWIDTH 960 0
DWIDTH 16 0
BBX 16 12 2 0
BITMAP
03FF
1FFE
3040
60C0
40C0
C0FC
C0FC
C180
C180
C180
7100
3FF8
ENDCHAR
STARTCHAR 0153
ENCODING 339
SWIDTH 900 0
DWIDTH 15 0
BBX 13 9 2 0
BITMAP
1C70
76D8
4308
C318
83F0
8380
8600
CF10
79F0
ENDCHAR
STARTCHAR 0154
ENCODING 340
SWIDTH 600 0
DWIDTH 10 0
BBX 10 15 1 1
BITMAP
0180
0300
0000
0F00
1F80
10C0
30C0
30C0
3180
3F00
6600
6200
6300
4100
C180
ENDCHAR
STARTCHAR 0155
ENCODING 341
SWIDTH 360 0
DWIDTH 6 0
BBX 7 13 1 0
BITMAP
02
06
0C
00
1E
3E
20
20
60
60
40
40
C0
ENDCHAR
STARTCHAR 0156
ENCODING 342
SWIDTH 600 0
DWIDTH 10 0
BBX 10 15 1 -3
BITMAP
0F00
1F80
10C0
30C0
30C0
3180
3F00
6600
6200
6300
4100
C180
0000
1800
3000
ENDCHAR
STARTCHAR 0157
ENCODING 343
SWIDTH 360 0
DWIDTH 6 0
BBX 8 12 0 -3
BITMAP
0F
1F
10
10
30
30
20
20
60
00
40
C0
ENDCHAR
STARTCHAR 0158
ENCODING 344
SWIDTH 600 0
DWIDTH 10 0
BBX 10 15 1 1
BITMAP
0680
0300
0000
0F00
1F80
10C0
30C0
30C0
3180
3F00
6600
6200
6300
4100
C180
ENDCHAR
STARTCHAR 0159
ENCODING 345
SWIDTH 360 0
DWIDTH 6 0
BBX 7 12 1 1
BITMAP
0E
0C
00
1E
3E
20
20
60
60
40
40
C0
ENDCHAR
STARTCHAR 015A
ENCODING 346
SWIDTH 540 0
DWIDTH 9 0
BBX 9 16 1 0
BITMAP
0100
0300
0600
0400
0F00
3F80
3000
2000
3000
3800
0E00
0600
0300
0200
8600
FC00
ENDCHAR
STARTCHAR 015B
ENCODING 347
SWIDTH 420 0
DWIDTH 7 0
BBX 7 13 1 0
BITMAP
02
06
08
00
1E
36
60
60
38
0C
0C
8C
F8
ENDCHAR
STARTCHAR 015C
ENCODING 348
SWIDTH 540 0
DWIDTH 9 0
BBX 9 15 1 0
BITMAP
0200
0500
0000
0F00
3F80
3000
2000
3000
3800
0E00
0600
0300
0200
8600
FC00
ENDCHAR
STARTCHAR 015D
ENCODING 349
SWIDTH 420 0
DWIDTH 7 0
BBX 7 13 1 0
BITMAP
04
0C
12
00
1E
36
60
60
38
0C
0C
8C
F8
ENDCHAR
STARTCHAR 015E
ENCODING 350
SWIDTH 540 0
DWIDTH 9 0
BBX 9 15 1 -3
BITMAP
0F00
3F80
3000
2000
3000
3800
0E00
0600
0300
0200
8600
FC00
2000
3000
7000
ENDCHAR
STARTCHAR 015F
ENCODING 351
SWIDTH 420 0
DWIDTH 7 0
BBX 7 12 1 -3
BITMAP
1E
36
60
60
38
0C
0C
8C
F8
20
20
E0
ENDCHAR
STARTCHAR 0160
ENCODING 352
SWIDTH 540 0
DWIDTH 9 0
BBX 9 15 1 1
BITMAP
0580
0700
0000
0F00
3F80
3000
2000
3000
3800
0E00
0600
0300
0200
8600
FC00
ENDCHAR
STARTCHAR 0161
ENCODING 353
SWIDTH 420 0
DWIDTH 7 0
BBX 7 13 1 0
BITMAP
10
0E
0C
00
1E
36
60
60
38
0C
0C
8C
F8
ENDCHAR
STARTCHAR 0162
ENCODING 354
SWIDTH 540 0
DWIDTH 9 0
BBX 10 15 2 -3
BITMAP
7FC0
7F80
0C00
0800
0800
1800
1800
1000
1000
3000
3000
3000
2000
2000
E000
ENDCHAR
STARTCHAR 0163
ENCODING 355
SWIDTH 360 0
DWIDTH 6 0
BBX 6 14 2 -3
BITMAP
20
60
7C
78
40
C0
C0
C0
80
C0
F0
40
60
E0
ENDCHAR
STARTCHAR 0164
ENCODING 356
SWIDTH 540 0
DWIDTH 9 0
BBX 9 15 3 1
BITMAP
1600
0C00
0800
FF80
FF00
1800
1000
1000
3000
3000
2000
2000
6000
6000
6000
ENDCHAR
STARTCHAR 0165
ENCODING 357
SWIDTH 360 0
DWIDTH 6 0
BBX 6 13 2 0
BITMAP
04
04
2C
60
7C
78
40
C0
C0
C0
80
C0
F0
ENDCHAR
STARTCHAR 0166
ENCODING 358
SWIDTH 540 0
DWIDTH 9 0
BBX 9 12 3 0
BITMAP
FF80
FF00
1800
1000
1000
FC00
FC00
2000
2000
6000
6000
6000
ENDCHAR
STARTCHAR 0167
ENCODING 359
SWIDTH 360 0
DWIDTH 6 0
BBX 6 11 2 0
BITMAP
20
60
7C
78
40
C0
F8
C0
80
C0
F0
ENDCHAR
STARTCHAR 0168
ENCODING 360
SWIDTH 660 0
DWIDTH 11 0
BBX 11 15 2 0
BITMAP
0600
0B80
0000
3060
2040
20C0
60C0
60C0
4080
4180
C180
C180
C300
E700
7E00
ENDCHAR
STARTCHAR 0169
ENCODING 361
SWIDTH 540 0
DWIDTH 9 0
BBX 8 12 2 0
BITMAP
1F
06
00
63
43
42
C2
C6
86
84
CC
FE
ENDCHAR
STARTCHAR 016A
ENCODING 362
SWIDTH 660 0
DWIDTH 11 0
BBX 11 14 2 0
BITMAP
0F80
0000
3060
2040
20C0
60C0
60C0
4080
4180
C180
C180
C300
E700
7E00
ENDCHAR
STARTCHAR 016B
ENCODING 363
SWIDTH 540 0
DWIDTH 9 0
BBX 8 12 2 0
BITMAP
1F
00
00
63
43
42
C2
C6
86
84
CC
FE
ENDCHAR
STARTCHAR 016C
ENCODING 364
SWIDTH 660 0
DWIDTH 11 0
BBX 11 15 2 0
BITMAP
0480
0780
0000
3060
2040
20C0
60C0
60C0
4080
4180
C180
C180
C300
E700
7E00
ENDCHAR
STARTCHAR 016D
ENCODING 365
SWIDTH 540 0
DWIDTH 9 0
BBX 8 12 2 0
BITMAP
12
0C
00
63
43
42
C2
C6
86
84
CC
FE
ENDCHAR
STARTCHAR 016E
ENCODING 366
SWIDTH 660 0
DWIDTH 11 0
BBX 11 16 2 0
BITMAP
0200
0500
0500
0300
3060
2040
20C0
60C0
60C0
4080
4180
C180
C180
C300
E700
7E00
ENDCHAR
STARTCHAR 016F
ENCODING 367
SWIDTH 540 0
DWIDTH 9 0
BBX 8 13 2 0
BITMAP
0C
12
14
08
63
43
42
C2
C6
86
84
CC
FE
ENDCHAR
STARTCHAR 0170
ENCODING 368
SWIDTH 660 0
DWIDTH 11 0
BBX 11 15 2 1
BITMAP
0340
0680
0000
3060
2040
20C0
60C0
60C0
4080
4180
C180
C180
C300
E700
7E00
ENDCHAR
STARTCHAR 0171
ENCODING 369
SWIDTH 540 0
DWIDTH 9 0
BBX 8 13 2 0
BITMAP
04
0D
12
00
63
43
42
C2
C6
86
84
CC
FE
ENDCHAR
STARTCHAR 0172
ENCODING 370
SWIDTH 660 0
DWIDTH 11 0
BBX 11 15 2 -3
BITMAP
3060
2040
20C0
60C0
60C0
4080
4180
C180
C180
C300
E700
7E00
0800
1000
1800
ENDCHAR
STARTCHAR 0173
ENCODING 371
SWIDTH 540 0
DWIDTH 9 0
BBX 8 12 2 -3
BITMAP
63
43
42
C2
C6
86
84
CC
FE
04
08
0C
ENDCHAR
STARTCHAR 0174
ENCODING 372
SWIDTH 900 0
DWIDTH 15 0
BBX 14 15 3 0
BITMAP
0180
0280
0000
C004
C00C
C30C
C718
C718
CF10
C930
D920
F160
E140
E1C0
C180
ENDCHAR
STARTCHAR 0175
ENCODING 373
SWIDTH 780 0
DWIDTH 13 0
BBX 13 13 2 0
BITMAP
0100
0300
0480
0000
C218
C610
C630
CE20
CA60
5A40
52C0
6380
6300
ENDCHAR
STARTCHAR 0176
ENCODING 374
SWIDTH 600 0
DWIDTH 10 0
BBX 9 15 3 0
BITMAP
0C00
1E00
0000
8180
C100
C300
4600
6C00
7800
3000
3000
2000
6000
6000
6000
ENDCHAR
STARTCHAR 0177
ENCODING 375
SWIDTH 480 0
DWIDTH 8 0
BBX 10 16 -1 -3
BITMAP
0100
0380
0480
0000
1840
18C0
18C0
1880
0980
0900
0B00
0E00
0E00
0C00
1800
F000
ENDCHAR
STARTCHAR 0178
ENCODING 376
SWIDTH 600 0
DWIDTH 10 0
BBX 9 15 3 0
BITMAP
1200
3200
0000
8180
C100
C300
4600
6C00
7800
3000
3000
2000
6000
6000
6000
ENDCHAR
STARTCHAR 0179
ENCODING 377
SWIDTH 540 0
DWIDTH 9 0
BBX 10 15 1 1
BITMAP
0180
0300
0000
1FC0
3FC0
0180
0300
0600
0C00
1800
1000
3000
6000
C000
FF00
ENDCHAR
STARTCHAR 017A
ENCODING 378
SWIDTH 480 0
DWIDTH 8 0
BBX 8 13 1 0
BITMAP
02
06
0C
00
3F
3F
06
0C
18
30
60
C0
FC
ENDCHAR
STARTCHAR 017B
ENCODING 379
SWIDTH 540 0
DWIDTH 9 0
BBX 10 15 1 0
BITMAP
0300
0300
0000
1FC0
3FC0
0180
0300
0600
0C00
1800
1000
3000
6000
C000
FF00
ENDCHAR
STARTCHAR 017C
ENCODING 380
SWIDTH 480 0
DWIDTH 8 0
BBX 8 12 1 0
BITMAP
0C
04
00
3F
3F
06
0C
18
30
60
C0
FC
ENDCHAR
STARTCHAR 017D
ENCODING 381
SWIDTH 540 0
DWIDTH 9 0
BBX 10 15 1 1
BITMAP
0480
0300
0200
1FC0
3FC0
0180
0300
0600
0C00
1800
1000
3000
6000
C000
FF00
ENDCHAR
STARTCHAR 017E
ENCODING 382
SWIDTH 480 0
DWIDTH 8 0
BBX 8 12 1 1
BITMAP
0E
0C
00
3F
3F
06
0C
18
30
60
C0
FC
ENDCHAR
STARTCHAR 017F
ENCODING 383
SWIDTH 300 0
DWIDTH 5 0
BBX 9 16 0 -3
BITMAP
0780
0E80
0800
0800
1800
1800
1000
1000
3000
3000
2000
2000
6000
6000
4000
C000
ENDCHAR
STARTCHAR 0180
ENCODING 384
SWIDTH 540 0
DWIDTH 9 0
BBX 9 13 1 0
BITMAP
1800
1800
3E00
1000
3E00
3F00
2180
2180
6100
6100
4300
4600
FC00
ENDCHAR
STARTCHAR 0181
ENCODING 385
SWIDTH 720 0
DWIDTH 12 0
BBX 11 12 2 0
BITMAP
1F80
7FC0
D860
D860
1840
1F80
3FC0
30C0
30C0
20C0
6180
7F00
ENDCHAR
STARTCHAR 0182
ENCODING 386
SWIDTH 600 0
DWIDTH 10 0
BBX 10 12 1 0
BITMAP
1FC0
1FC0
1000
3000
3000
3F00
2180
6180
6180
6180
4700
FE00
ENDCHAR
STARTCHAR 0183
ENCODING 387
SWIDTH 540 0
DWIDTH 9 0
BBX 9 13 1 0
BITMAP
1F80
1800
1000
1000
3E00
3F00
2180
2180
6100
6100
4300
4600
FC00
ENDCHAR
STARTCHAR 0184
ENCODING 388
SWIDTH 540 0
DWIDTH 9 0
BBX 9 13 1 0
BITMAP
1800
3800
1000
1000
3E00
3B00
2180
2180
6100
6100
4300
4600
FC00
ENDCHAR
STARTCHAR 0185
ENCODING 389
SWIDTH 600 0
DWIDTH 10 0
BBX 8 12 2 0
BITMAP
10
70
20
20
60
7F
43
41
C1
C3
86
FC
ENDCHAR
STARTCHAR 0186
ENCODING 390
SWIDTH 600 0
DWIDTH 10 0
BBX 10 12 1 0
BITMAP
1E00
3F80
0180
0080
00C0
0080
0080
0180
0180
0300
8600
FC00
ENDCHAR
STARTCHAR 0187
ENCODING 391
SWIDTH 660 0
DWIDTH 11 0
BBX 12 13 2 0
BITMAP
0030
07C0
1FC0
3000
6000
4000
C000
C000
C000
C000
C000
6100
3F00
ENDCHAR
STARTCHAR 0188
ENCODING 392
SWIDTH 480 0
DWIDTH 8 0
BBX 9 10 2 0
BITMAP
0380
1E00
7400
4000
C000
8000
8000
8000
C000
7800
ENDCHAR
STARTCHAR 0189
ENCODING 393
SWIDTH 720 0
DWIDTH 12 0
BBX 10 12 2 0
BITMAP
1E00
3F80
30C0
2040
6040
F840
F840
40C0
40C0
C180
C700
FC00
ENDCHAR
STARTCHAR 018A
ENCODING 394
SWIDTH 780 0
DWIDTH 13 0
BBX 12 12 2 0
BITMAP
1F80
7FE0
D860
D830
1830
1030
3030
3020
3060
20C0
6380
7F00
ENDCHAR
STARTCHAR 018B
ENCODING 395
SWIDTH 600 0
DWIDTH 10 0
BBX 9 12 2 0
BITMAP
3F80
3F80
0180
0180
0100
3F00
E300
C300
8200
8200
C600
7E00
ENDCHAR
STARTCHAR 018C
ENCODING 396
SWIDTH 540 0
DWIDTH 9 0
BBX 9 13 2 0
BITMAP
1F80
0180
0100
0100
1F00
3B00
6200
C200
8600
8600
8400
CC00
FC00
ENDCHAR
STARTCHAR 018D
ENCODING 397
SWIDTH 540 0
DWIDTH 9 0
BBX 9 12 1 -3
BITMAP
0E00
3B00
6180
6180
4100
4300
6200
3C00
1800
0C00
8C00
F800
ENDCHAR
STARTCHAR 018E
ENCODING 398
SWIDTH 540 0
DWIDTH 9 0
BBX 10 12 1 0
BITMAP
1FC0
1F80
0080
0180
0180
3F00
3F00
0300
0300
0200
0200
FE00
ENDCHAR
STARTCHAR 018F
ENCODING 399
SWIDTH 660 0
DWIDTH 11 0
BBX 10 12 2 0
BITMAP
1F00
3F80
00C0
00C0
00C0
00C0
FFC0
C0C0
C180
C180
C700
7E00
ENDCHAR
STARTCHAR 0190
ENCODING 400
SWIDTH 540 0
DWIDTH 9 0
BBX 9 12 1 0
BITMAP
0780
1F80
3000
3000
3000
1E00
3E00
6000
4000
C000
6100
7F00
ENDCHAR
STARTCHAR 0191
ENCODING 401
SWIDTH 540 0
DWIDTH 9 0
BBX 12 15 -1 -3
BITMAP
07F0
07F0
0400
0C00
0C00
0FC0
0FC0
1800
1800
1800
1000
3000
3000
3000
E000
ENDCHAR
STARTCHAR 0192
ENCODING 402
SWIDTH 360 0
DWIDTH 6 0
BBX 11 16 -2 -3
BITMAP
01E0
03A0
0200
0200
07C0
07C0
0400
0400
0C00
0C00
0800
0800
1800
1800
3000
F000
ENDCHAR
STARTCHAR 0193
ENCODING 403
SWIDTH 660 0
DWIDTH 11 0
BBX 12 13 2 0
BITMAP
0030
07C0
1FC0
3000
6000
4000
C000
C180
C180
C180
C100
6100
3F00
ENDCHAR
STARTCHAR 0194
ENCODING 404
SWIDTH 660 0
DWIDTH 11 0
BBX 10 15 3 -3
BITMAP
80C0
C0C0
C180
4300
4300
6600
6C00
2800
3800
3000
7000
D000
9000
9000
F000
ENDCHAR
STARTCHAR 0195
ENCODING 405
SWIDTH 840 0
DWIDTH 14 0
BBX 14 13 1 0
BITMAP
1800
1800
1000
1000
3E0C
3F0C
2108
2108
6318
6318
4310
4330
C1E0
ENDCHAR
STARTCHAR 0196
ENCODING 406
SWIDTH 360 0
DWIDTH 6 0
BBX 4 12 2 0
BITMAP
30
20
20
60
60
40
40
C0
C0
C0
C0
F0
ENDCHAR
STARTCHAR 0197
ENCODING 407
SWIDTH 300 0
DWIDTH 5 0
BBX 5 12 2 0
BITMAP
10
30
30
30
20
F8
F0
60
40
40
C0
C0
ENDCHAR
STARTCHAR 0198
ENCODING 408
SWIDTH 660 0
DWIDTH 11 0
BBX 12 12 1 0
BITMAP
1860
10F0
1180
3200
3400
3800
3C00
6C00
6600
6300
4180
C180
ENDCHAR
STARTCHAR 0199
ENCODING 409
SWIDTH 540 0
DWIDTH 9 0
BBX 9 13 1 0
BITMAP
0E00
1800
1000
1000
3180
3300
2600
3800
7800
6C00
4400
4600
C200
ENDCHAR
STARTCHAR 019A
ENCODING 410
SWIDTH 300 0
DWIDTH 5 0
BBX 4 13 2 0
BITMAP
30
30
30
20
20
60
F0
40
40
C0
C0
C0
60
ENDCHAR
STARTCHAR 019B
ENCODING 411
SWIDTH 480 0
DWIDTH 8 0
BBX 8 13 1 0
BITMAP
38
09
0E
3C
0C
0C
1C
34
26
66
46
C6
86
ENDCHAR
STARTCHAR 019C
ENCODING 412
SWIDTH 960 0
DWIDTH 16 0
BBX 15 12 2 0
BITMAP
3086
2086
2186
6184
610C
410C
430C
C308
C308
C218
C718
7FF0
ENDCHAR
STARTCHAR 019D
ENCODING 413
SWIDTH 720 0
DWIDTH 12 0
BBX 14 15 -1 -3
BITMAP
060C
060C
0708
0D08
0D98
0998
0898
18D0
1870
1870
1070
3020
3000
2000
E000
ENDCHAR
STARTCHAR 019E
ENCODING 414
SWIDTH 540 0
DWIDTH 9 0
BBX 8 12 1 -3
BITMAP
1E
3F
21
21
61
63
43
42
C2
06
06
04
ENDCHAR
STARTCHAR 019F
ENCODING 415
SWIDTH 720 0
DWIDTH 12 0
BBX 11 12 2 0
BITMAP
0780
1FC0
3060
6060
4060
C060
FFE0
C040
C0C0
C180
6380
3E00
ENDCHAR
STARTCHAR 01A0
ENCODING 416
SWIDTH 720 0
DWIDTH 12 0
BBX 12 13 2 0
BITMAP
0010
07B0
1FE0
3060
6060
4060
C060
C060
C040
C0C0
C180
6380
3E00
ENDCHAR
STARTCHAR 01A1
ENCODING 417
SWIDTH 540 0
DWIDTH 9 0
BBX 9 10 2 0
BITMAP
0080
1D80
7700
4300
C300
8200
8200
8600
CC00
7800
ENDCHAR
STARTCHAR 01A2
ENCODING 418
SWIDTH 1020 0
DWIDTH 17 0
BBX 15 12 2 0
BITMAP
071C
1FFE
30C2
6062
4066
C066
C046
C0C4
C0CC
C18C
630C
3E08
ENDCHAR
STARTCHAR 01A3
ENCODING 419
SWIDTH 780 0
DWIDTH 13 0
BBX 11 12 2 -3
BITMAP
1DC0
77E0
4220
C220
8260
8660
8640
CC40
F8C0
00C0
00C0
0080
ENDCHAR
STARTCHAR 01A4
ENCODING 420
SWIDTH 720 0
DWIDTH 12 0
BBX 11 12 2 0
BITMAP
1F00
7FC0
D860
D860
1860
10C0
3F80
3E00
3000
2000
6000
6000
ENDCHAR
STARTCHAR 01A5
ENCODING 421
SWIDTH 540 0
DWIDTH 9 0
BBX 8 16 1 -3
BITMAP
0E
18
10
10
3E
33
21
21
61
63
43
4E
FC
C0
80
80
ENDCHAR
STARTCHAR 01A6
ENCODING 422
SWIDTH 600 0
DWIDTH 10 0
BBX 10 15 1 -2
BITMAP
1800
1F00
1F80
10C0
30C0
30C0
3180
3F00
6600
6200
6300
4100
C180
0180
0080
ENDCHAR
STARTCHAR 01A7
ENCODING 423
SWIDTH 540 0
DWIDTH 9 0
BBX 9 12 1 0
BITMAP
0F00
1F80
0180
0180
0180
0F00
3C00
6000
C000
C000
C200
7E00
ENDCHAR
STARTCHAR 01A8
ENCODING 424
SWIDTH 420 0
DWIDTH 7 0
BBX 7 9 1 0
BITMAP
3C
26
06
06
3C
60
C0
C4
7C
ENDCHAR
STARTCHAR 01A9
ENCODING 425
SWIDTH 540 0
DWIDTH 9 0
BBX 10 12 1 0
BITMAP
1FC0
3FC0
1800
1800
0C00
0C00
0C00
1800
3000
6000
C000
FF00
ENDCHAR
STARTCHAR 01AA
ENCODING 426
SWIDTH 300 0
DWIDTH 5 0
BBX 5 16 1 -3
BITMAP
70
98
98
B0
D0
30
30
30
20
60
60
60
40
40
40
60
ENDCHAR
STARTCHAR 01AB
ENCODING 427
SWIDTH 360 0
DWIDTH 6 0
BBX 6 14 2 -3
BITMAP
20
60
7C
78
40
C0
C0
C0
80
C0
F0
10
30
E0
ENDCHAR
STARTCHAR 01AC
ENCODING 428
SWIDTH 600 0
DWIDTH 10 0
BBX 10 12 2 0
BITMAP
1FC0
7FC0
C400
CC00
0C00
0800
0800
1800
1800
1000
1000
3000
ENDCHAR
STARTCHAR 01AD
ENCODING 429
SWIDTH 360 0
DWIDTH 6 0
BBX 7 13 2 0
BITMAP
1E
3A
20
60
7C
78
40
C0
C0
C0
80
C0
F0
ENDCHAR
STARTCHAR 01AE
ENCODING 430
SWIDTH 540 0
DWIDTH 9 0
BBX 9 15 3 -3
BITMAP
FF80
FF00
1800
1000
1000
3000
3000
2000
2000
6000
6000
6000
4000
4000
7000
ENDCHAR
STARTCHAR 01AF
ENCODING 431
SWIDTH 660 0
DWIDTH 11 0
BBX 13 13 2 0
BITMAP
0018
3070
2060
20C0
60C0
60C0
4080
4180
C180
C180
C300
E700
7E00
ENDCHAR
STARTCHAR 01B0
ENCODING 432
SWIDTH 600 0
DWIDTH 10 0
BBX 10 10 2 0
BITMAP
0040
63C0
4300
4200
C200
C600
8600
8400
CC00
FE00
ENDCHAR
STARTCHAR 01B1
ENCODING 433
SWIDTH 780 0
DWIDTH 13 0
BBX 12 12 2 0
BITMAP
3CF0
7CF0
1840
3060
6060
4060
C060
C060
C0C0
C0C0
6380
3F00
ENDCHAR
STARTCHAR 01B2
ENCODING 434
SWIDTH 660 0
DWIDTH 11 0
BBX 10 12 2 0
BITMAP
3300
2380
20C0
60C0
60C0
40C0
40C0
C080
C180
C100
E700
7C00
ENDCHAR
STARTCHAR 01B3
ENCODING 435
SWIDTH 660 0
DWIDTH 11 0
BBX 10 12 3 0
BITMAP
80C0
C1C0
C200
4600
6C00
7800
3000
3000
2000
6000
6000
6000
ENDCHAR
STARTCHAR 01B4
ENCODING 436
SWIDTH 540 0
DWIDTH 9 0
BBX 12 12 -1 -3
BITMAP
1870
18C0
1880
1880
0980
0900
0B00
0E00
0E00
0C00
1800
F000
ENDCHAR
STARTCHAR 01B5
ENCODING 437
SWIDTH 540 0
DWIDTH 9 0
BBX 10 12 1 0
BITMAP
1FC0
3FC0
0180
0300
0600
3F80
3F80
1000
3000
6000
C000
FF00
ENDCHAR
STARTCHAR 01B6
ENCODING 438
SWIDTH 480 0
DWIDTH 8 0
BBX 8 9 1 0
BITMAP
3F
3F
06
08
7E
30
60
C0
FC
ENDCHAR
STARTCHAR 01B7
ENCODING 439
SWIDTH 540 0
DWIDTH 9 0
BBX 10 12 1 0
BITMAP
1FC0
3F80
0180
0200
0400
1C00
0F00
0300
0300
0300
8600
FC00
ENDCHAR
STARTCHAR 01B8
ENCODING 440
SWIDTH 540 0
DWIDTH 9 0
BBX 10 12 1 0
BITMAP
1FC0
1FC0
1800
0800
0C00
0E00
3800
6000
4000
C000
6100
3F00
ENDCHAR
STARTCHAR 01B9
ENCODING 441
SWIDTH 420 0
DWIDTH 7 0
BBX 8 12 1 -3
BITMAP
3F
3F
30
10
18
38
60
C0
80
80
C4
7C
ENDCHAR
STARTCHAR 01BA
ENCODING 442
SWIDTH 420 0
DWIDTH 7 0
BBX 9 12 -1 -3
BITMAP
1F80
1F80
0300
0600
0C00
0700
0300
0300
0E00
7800
4000
C000
ENDCHAR
STARTCHAR 01BB
ENCODING 443
SWIDTH 540 0
DWIDTH 9 0
BBX 8 12 1 0
BITMAP
0E
3F
01
01
03
06
3F
18
30
60
C0
FE
ENDCHAR
STARTCHAR 01BC
ENCODING 444
SWIDTH 540 0
DWIDTH 9 0
BBX 9 12 1 0
BITMAP
3F80
3F80
1800
1000
1000
3C00
0700
0300
0300
0300
8600
FC00
ENDCHAR
STARTCHAR 01BD
ENCODING 445
SWIDTH 480 0
DWIDTH 8 0
BBX 8 9 1 0
BITMAP
7F
7E
20
20
7C
06
06
0C
F8
ENDCHAR
STARTCHAR 01BE
ENCODING 446
SWIDTH 420 0
DWIDTH 7 0
BBX 6 11 1 0
BITMAP
30
30
3C
3C
60
60
38
0C
04
8C
F8
ENDCHAR
STARTCHAR 01BF
ENCODING 447
SWIDTH 540 0
DWIDTH 9 0
BBX 9 12 1 -3
BITMAP
1E00
3F00
2180
2180
6100
6100
4300
4E00
F800
E000
8000
8000
ENDCHAR
STARTCHAR 01C0
ENCODING 448
SWIDTH 300 0
DWIDTH 5 0
BBX 5 16 1 -3
BITMAP
08
18
10
10
10
30
30
20
20
60
60
40
40
C0
C0
80
ENDCHAR
STARTCHAR 01C1
ENCODING 449
SWIDTH 480 0
DWIDTH 8 0
BBX 8 16 1 -3
BITMAP
09
19
13
13
12
32
36
26
24
64
64
4C
48
C8
C8
98
ENDCHAR
STARTCHAR 01C2
ENCODING 450
SWIDTH 600 0
DWIDTH 10 0
BBX 8 16 2 -3
BITMAP
04
04
04
0C
0C
08
FF
18
18
FF
10
30
30
20
20
60
ENDCHAR
STARTCHAR 01C3
ENCODING 451
SWIDTH 240 0
DWIDTH 4 0
BBX 5 12 1 0
BITMAP
18
10
10
30
30
20
20
20
00
00
C0
C0
ENDCHAR
STARTCHAR 01C4
ENCODING 452
SWIDTH 1260 0
DWIDTH 21 0
BBX 22 15 1 1
BITMAP
000058
000070
000000
0F03FC
1FC3FC
106018
306030
306060
3060C0
206180
606300
60C600
61C400
438C00
FE1FE0
ENDCHAR
STARTCHAR 01C5
ENCODING 453
SWIDTH 1140 0
DWIDTH 19 0
BBX 20 13 1 0
BITMAP
000120
0F01E0
1FC080
106000
3067F0
3067E0
3060C0
206180
606300
60C600
61C400
438800
FE1FC0
ENDCHAR
STARTCHAR 01C6
ENCODING 454
SWIDTH 1020 0
DWIDTH 17 0
BBX 16 13 2 0
BITMAP
0189
018E
0104
0100
1F3F
3B3F
6206
C20C
8618
8630
8460
CCC0
FCFC
ENDCHAR
STARTCHAR 01C7
ENCODING 455
SWIDTH 1020 0
DWIDTH 17 0
BBX 17 12 1 0
BITMAP
180180
100180
100100
300100
300300
300300
200300
600200
600600
600600
408C00
FEFC00
ENDCHAR
STARTCHAR 01C8
ENCODING 456
SWIDTH 780 0
DWIDTH 13 0
BBX 13 15 1 -3
BITMAP
1818
1018
1000
3010
3010
3030
2030
6020
6020
6060
4060
FE40
0040
00C0
0380
ENDCHAR
STARTCHAR 01C9
ENCODING 457
SWIDTH 540 0
DWIDTH 9 0
BBX 8 16 2 -3
BITMAP
30
23
21
60
63
42
46
C6
C6
C4
84
CC
CC
08
18
70
ENDCHAR
STARTCHAR 01CA
ENCODING 458
SWIDTH 1200 0
DWIDTH 20 0
BBX 20 12 1 0
BITMAP
183010
183030
1C2030
342020
366020
266060
226060
634040
61C040
61C0C0
41C9C0
C09F80
ENDCHAR
STARTCHAR 01CB
ENCODING 459
SWIDTH 960 0
DWIDTH 16 0
BBX 16 15 1 -3
BITMAP
1833
1831
1C20
3423
3662
2662
2266
6346
61C4
61C4
41CC
C08C
0008
0018
0070
ENDCHAR
STARTCHAR 01CC
ENCODING 460
SWIDTH 780 0
DWIDTH 13 0
BBX 14 15 1 -3
BITMAP
000C
000C
0000
1E08
3F18
2118
2110
6110
6330
4330
4220
C220
0060
0060
01C0
ENDCHAR
STARTCHAR 01CD
ENCODING 461
SWIDTH 660 0
DWIDTH 11 0
BBX 11 15 0 1
BITMAP
0160
01C0
0000
0180
0180
0380
0680
04C0
0CC0
18C0
10C0
3FC0
2040
6040
C040
ENDCHAR
STARTCHAR 01CE
ENCODING 462
SWIDTH 540 0
DWIDTH 9 0
BBX 8 12 2 1
BITMAP
0E
0C
00
1F
3B
62
C6
86
86
84
CC
FC
ENDCHAR
STARTCHAR 01CF
ENCODING 463
SWIDTH 240 0
DWIDTH 4 0
BBX 7 15 1 1
BITMAP
16
18
00
18
10
10
30
30
30
20
60
60
60
40
C0
ENDCHAR
STARTCHAR 01D0
ENCODING 464
SWIDTH 240 0
DWIDTH 4 0
BBX 6 13 1 0
BITMAP
24
38
10
00
30
30
20
20
60
60
40
40
C0
ENDCHAR
STARTCHAR 01D1
ENCODING 465
SWIDTH 720 0
DWIDTH 12 0
BBX 11 15 2 1
BITMAP
02C0
0300
0000
0780
1FC0
3060
6060
4060
C060
C060
C040
C0C0
C180
6380
3E00
ENDCHAR
STARTCHAR 01D2
ENCODING 466
SWIDTH 540 0
DWIDTH 9 0
BBX 8 13 2 0
BITMAP
10
0E
0C
00
1C
76
43
C3
82
82
86
CC
78
ENDCHAR
STARTCHAR 01D3
ENCODING 467
SWIDTH 660 0
DWIDTH 11 0
BBX 11 15 2 1
BITMAP
0580
0300
0200
3060
2040
20C0
60C0
60C0
4080
4180
C180
C180
C300
E700
7E00
ENDCHAR
STARTCHAR 01D4
ENCODING 468
SWIDTH 540 0
DWIDTH 9 0
BBX 8 13 2 0
BITMAP
10
0E
0C
00
63
43
42
C2
C6
86
84
CC
FE
ENDCHAR
STARTCHAR 01D5
ENCODING 469
SWIDTH 660 0
DWIDTH 11 0
BBX 11 16 2 0
BITMAP
0780
0000
0D80
0080
3060
2040
20C0
60C0
60C0
4080
4180
C180
C180
C300
E700
7E00
ENDCHAR
STARTCHAR 01D6
ENCODING 470
SWIDTH 540 0
DWIDTH 9 0
BBX 8 13 2 0
BITMAP
1F
12
33
00
63
43
42
C2
C6
86
84
CC
FE
ENDCHAR
STARTCHAR 01D7
ENCODING 471
SWIDTH 660 0
DWIDTH 11 0
BBX 11 16 2 0
BITMAP
0100
0300
1AC0
0800
3060
2040
20C0
60C0
60C0
4080
4180
C180
C180
C300
E700
7E00
ENDCHAR
STARTCHAR 01D8
ENCODING 472
SWIDTH 540 0
DWIDTH 9 0
BBX 8 14 2 0
BITMAP
02
04
12
33
00
63
43
42
C2
C6
86
84
CC
FE
ENDCHAR
STARTCHAR 01D9
ENCODING 473
SWIDTH 660 0
DWIDTH 11 0
BBX 11 16 2 0
BITMAP
0480
0300
18C0
0800
3060
2040
20C0
60C0
60C0
4080
4180
C180
C180
C300
E700
7E00
ENDCHAR
STARTCHAR 01DA
ENCODING 474
SWIDTH 540 0
DWIDTH 9 0
BBX 8 14 2 0
BITMAP
02
0E
12
33
00
63
43
42
C2
C6
86
84
CC
FE
ENDCHAR
STARTCHAR 01DB
ENCODING 475
SWIDTH 660 0
DWIDTH 11 0
BBX 11 16 2 0
BITMAP
0600
0200
1AC0
0800
3060
2040
20C0
60C0
60C0
4080
4180
C180
C180
C300
E700
7E00
ENDCHAR
STARTCHAR 01DC
ENCODING 476
SWIDTH 540 0
DWIDTH 9 0
BBX 8 14 2 0
BITMAP
18
08
12
33
00
63
43
42
C2
C6
86
84
CC
FE
ENDCHAR
STARTCHAR 01DD
ENCODING 477
SWIDTH 540 0
DWIDTH 9 0
BBX 8 9 1 0
BITMAP
3C
37
03
03
3F
63
C2
CE
78
ENDCHAR
STARTCHAR 01DE
ENCODING 478
SWIDTH 660 0
DWIDTH 11 0
BBX 11 16 0 0
BITMAP
01E0
0000
0360
0200
0180
0180
0380
0680
04C0
0CC0
18C0
10C0
3FC0
2040
6040
C040
ENDCHAR
STARTCHAR 01DF
ENCODING 479
SWIDTH 540 0
DWIDTH 9 0
BBX 8 13 2 0
BITMAP
0F
10
13
00
1F
3B
62
C6
86
86
84
CC
FC
ENDCHAR
STARTCHAR 01E0
ENCODING 480
SWIDTH 660 0
DWIDTH 11 0
BBX 11 16 0 0
BITMAP
01E0
0000
0080
0080
0180
0180
0380
0680
04C0
0CC0
18C0
10C0
3FC0
2040
6040
C040
ENDCHAR
STARTCHAR 01E1
ENCODING 481
SWIDTH 540 0
DWIDTH 9 0
BBX 8 13 2 0
BITMAP
0F
04
0C
00
1F
3B
62
C6
86
86
84
CC
FC
ENDCHAR
STARTCHAR 01E2
ENCODING 482
SWIDTH 900 0
DWIDTH 15 0
BBX 17 14 0 0
BITMAP
003E00
000000
003F80
007F80
00F000
01A000
032000
067E00
0C7E00
184000
1FC000
30C000
60C000
C0FE00
ENDCHAR
STARTCHAR 01E3
ENCODING 483
SWIDTH 840 0
DWIDTH 14 0
BBX 13 12 2 0
BITMAP
07C0
0000
0000
38F0
7FB0
0718
0210
7FF0
C780
8600
8E00
FBE0
ENDCHAR
STARTCHAR 01E4
ENCODING 484
SWIDTH 660 0
DWIDTH 11 0
BBX 10 12 2 0
BITMAP
0780
1FC0
3000
6000
4000
C000
C180
C180
C7C0
C100
6100
3F00
ENDCHAR
STARTCHAR 01E5
ENCODING 485
SWIDTH 540 0
DWIDTH 9 0
BBX 9 12 1 -3
BITMAP
0F80
1D80
3100
6100
4780
4300
4300
7E00
3E00
0600
8C00
F800
ENDCHAR
STARTCHAR 01E6
ENCODING 486
SWIDTH 660 0
DWIDTH 11 0
BBX 10 15 2 1
BITMAP
0680
0300
0000
0780
1FC0
3000
6000
4000
C000
C180
C180
C180
C100
6100
3F00
ENDCHAR
STARTCHAR 01E7
ENCODING 487
SWIDTH 540 0
DWIDTH 9 0
BBX 10 15 0 -2
BITMAP
0380
0100
0000
0780
0FC0
1880
3080
2180
2180
2100
3F00
1B00
0300
4600
FC00
ENDCHAR
STARTCHAR 01E8
ENCODING 488
SWIDTH 600 0
DWIDTH 10 0
BBX 11 15 1 1
BITMAP
02C0
0300
0000
1860
10C0
1180
3300
3600
3C00
3C00
6C00
6600
6300
4100
C180
ENDCHAR
STARTCHAR 01E9
ENCODING 489
SWIDTH 540 0
DWIDTH 9 0
BBX 9 16 1 0
BITMAP
0A00
0C00
0000
1800
1800
1000
1000
3180
3300
2600
3800
7800
6C00
4400
4600
C200
ENDCHAR
STARTCHAR 01EA
ENCODING 490
SWIDTH 720 0
DWIDTH 12 0
BBX 11 15 2 -3
BITMAP
0780
1FC0
3060
6060
4060
C060
C060
C040
C0C0
C1C0
6380
3E00
0800
1800
1C00
ENDCHAR
STARTCHAR 01EB
ENCODING 491
SWIDTH 540 0
DWIDTH 9 0
BBX 8 12 2 -3
BITMAP
1C
76
43
C3
82
82
86
CC
F8
20
60
70
ENDCHAR
STARTCHAR 01EC
ENCODING 492
SWIDTH 720 0
DWIDTH 12 0
BBX 11 17 2 -3
BITMAP
07C0
0000
0780
1FC0
3060
6060
4060
C060
C060
C040
C0C0
C1C0
6380
3E00
0800
1800
1C00
ENDCHAR
STARTCHAR 01ED
ENCODING 493
SWIDTH 540 0
DWIDTH 9 0
BBX 8 15 2 -3
BITMAP
1F
00
00
1C
76
43
C3
82
82
86
CC
F8
20
60
70
ENDCHAR
STARTCHAR 01EE
ENCODING 494
SWIDTH 540 0
DWIDTH 9 0
BBX 10 15 1 1
BITMAP
0580
0300
0200
1FC0
3F80
0180
0200
0400
1C00
0F00
0300
0300
0300
8600
FC00
ENDCHAR
STARTCHAR 01EF
ENCODING 495
SWIDTH 420 0
DWIDTH 7 0
BBX 8 16 0 -3
BITMAP
09
0F
04
00
3F
3F
02
04
18
18
0E
06
06
06
8C
F8
ENDCHAR
STARTCHAR 01F0
ENCODING 496
SWIDTH 240 0
DWIDTH 4 0
BBX 9 16 -2 -3
BITMAP
0480
0700
0200
0000
0600
0600
0400
0400
0C00
0C00
0800
0800
1800
1800
3000
F000
ENDCHAR
STARTCHAR 01F1
ENCODING 497
SWIDTH 1260 0
DWIDTH 21 0
BBX 22 12 1 0
BITMAP
0F03FC
1FC3FC
106018
306030
306060
3060C0
206180
606300
60C600
61C400
438C00
FE1FE0
ENDCHAR
STARTCHAR 01F2
ENCODING 498
SWIDTH 1140 0
DWIDTH 19 0
BBX 20 12 1 0
BITMAP
0F0000
1FC000
106000
3067F0
3067E0
3060C0
206180
606300
60C600
61C400
438800
FE1FC0
ENDCHAR
STARTCHAR 01F3
ENCODING 499
SWIDTH 1020 0
DWIDTH 17 0
BBX 16 13 2 0
BITMAP
0180
0180
0100
0100
1F3F
3B3F
6206
C20C
8618
8630
8460
CCC0
FCFC
ENDCHAR
STARTCHAR 01F4
ENCODING 500
SWIDTH 660 0
DWIDTH 11 0
BBX 10 15 2 1
BITMAP
0180
0300
0200
0780
1FC0
3000
6000
4000
C000
C180
C180
C180
C100
6100
3F00
ENDCHAR
STARTCHAR 01F5
ENCODING 501
SWIDTH 540 0
DWIDTH 9 0
BBX 10 16 0 -3
BITMAP
0080
0180
0300
0000
0780
0FC0
1880
3080
2180
2180
2100
3F00
1B00
0300
4600
FC00
ENDCHAR
STARTCHAR 01F6
ENCODING 502
SWIDTH 1020 0
DWIDTH 17 0
BBX 17 12 1 0
BITMAP
183000
102000
102000
306180
306100
3FC100
3FC300
60C300
60C200
60C600
40C600
C07C00
ENDCHAR
STARTCHAR 01F7
ENCODING 503
SWIDTH 660 0
DWIDTH 11 0
BBX 10 15 1 -3
BITMAP
0700
1FC0
10C0
3040
3040
30C0
20C0
6180
6300
6600
7C00
F000
C000
C000
8000
ENDCHAR
STARTCHAR 01F8
ENCODING 504
SWIDTH 720 0
DWIDTH 12 0
BBX 12 15 1 1
BITMAP
0300
0180
0080
1830
1830
1C20
3420
3660
2660
2260
6340
61C0
61C0
41C0
C080
ENDCHAR
STARTCHAR 01F9
ENCODING 505
SWIDTH 540 0
DWIDTH 9 0
BBX 8 13 1 0
BITMAP
04
06
02
00
1E
3F
21
21
61
63
43
42
C2
ENDCHAR
STARTCHAR 01FA
ENCODING 506
SWIDTH 660 0
DWIDTH 11 0
BBX 10 16 0 0
BITMAP
0040
0180
0180
0240
0140
0180
0380
0680
04C0
0CC0
18C0
10C0
3FC0
2040
6040
C040
ENDCHAR
STARTCHAR 01FB
ENCODING 507
SWIDTH 540 0
DWIDTH 9 0
BBX 8 15 2 0
BITMAP
02
0C
04
0A
0A
04
1F
3B
62
C6
86
86
84
CC
FC
ENDCHAR
STARTCHAR 01FC
ENCODING 508
SWIDTH 900 0
DWIDTH 15 0
BBX 17 15 0 1
BITMAP
000600
000C00
000000
003F80
007F80
00F000
01A000
032000
067E00
0C7E00
184000
1FC000
30C000
60C000
C0FE00
ENDCHAR
STARTCHAR 01FD
ENCODING 509
SWIDTH 840 0
DWIDTH 14 0
BBX 13 13 2 0
BITMAP
0080
0180
0300
0000
38F0
7FB0
0718
0210
7FF0
C780
8600
8E00
FBE0
ENDCHAR
STARTCHAR 01FE
ENCODING 510
SWIDTH 720 0
DWIDTH 12 0
BBX 11 16 2 -1
BITMAP
0080
0180
0300
0200
07A0
1FC0
30E0
61E0
4360
C660
CC60
C840
D0C0
E180
6380
FE00
ENDCHAR
STARTCHAR 01FF
ENCODING 511
SWIDTH 540 0
DWIDTH 9 0
BBX 8 13 2 -1
BITMAP
02
06
08
00
1D
76
47
CB
92
B2
E6
CC
F8
ENDCHAR
STARTCHAR 0200
ENCODING 512
SWIDTH 660 0
DWIDTH 11 0
BBX 10 15 0 1
BITMAP
0680
0240
0000
0180
0180
0380
0680
04C0
0CC0
18C0
10C0
3FC0
2040
6040
C040
ENDCHAR
STARTCHAR 0201
ENCODING 513
SWIDTH 540 0
DWIDTH 9 0
BBX 8 13 2 0
BITMAP
24
34
12
00
1F
3B
62
C6
86
86
84
CC
FC
ENDCHAR
STARTCHAR 0202
ENCODING 514
SWIDTH 660 0
DWIDTH 11 0
BBX 11 15 0 0
BITMAP
01C0
0260
0000
0180
0180
0380
0680
04C0
0CC0
18C0
10C0
3FC0
2040
6040
C040
ENDCHAR
STARTCHAR 0203
ENCODING 515
SWIDTH 540 0
DWIDTH 9 0
BBX 8 12 2 0
BITMAP
1E
12
00
1F
3B
62
C6
86
86
84
CC
FC
ENDCHAR
STARTCHAR 0204
ENCODING 516
SWIDTH 540 0
DWIDTH 9 0
BBX 10 16 1 0
BITMAP
0800
0B00
0D80
0480
1FC0
1FC0
1000
3000
3000
3F00
3F00
6000
6000
6000
4000
FF00
ENDCHAR
STARTCHAR 0205
ENCODING 517
SWIDTH 540 0
DWIDTH 9 0
BBX 7 13 2 0
BITMAP
24
34
12
00
1C
76
42
C6
FC
E0
80
C4
7C
ENDCHAR
STARTCHAR 0206
ENCODING 518
SWIDTH 540 0
DWIDTH 9 0
BBX 10 15 1 0
BITMAP
0380
0480
0000
1FC0
1FC0
1000
3000
3000
3F00
3F00
6000
6000
6000
4000
FF00
ENDCHAR
STARTCHAR 0207
ENCODING 519
SWIDTH 540 0
DWIDTH 9 0
BBX 7 12 2 0
BITMAP
1E
12
00
1C
76
42
C6
FC
E0
80
C4
7C
ENDCHAR
STARTCHAR 0208
ENCODING 520
SWIDTH 240 0
DWIDTH 4 0
BBX 6 15 1 1
BITMAP
68
24
04
18
10
10
30
30
30
20
60
60
60
40
C0
ENDCHAR
STARTCHAR 0209
ENCODING 521
SWIDTH 240 0
DWIDTH 4 0
BBX 5 13 1 0
BITMAP
50
58
68
00
30
30
20
20
60
60
40
40
C0
ENDCHAR
STARTCHAR 020A
ENCODING 522
SWIDTH 240 0
DWIDTH 4 0
BBX 6 15 1 0
BITMAP
1C
24
00
18
10
10
30
30
30
20
60
60
60
40
C0
ENDCHAR
STARTCHAR 020B
ENCODING 523
SWIDTH 240 0
DWIDTH 4 0
BBX 6 12 1 0
BITMAP
3C
44
00
30
30
20
20
60
60
40
40
C0
ENDCHAR
STARTCHAR 020C
ENCODING 524
SWIDTH 720 0
DWIDTH 12 0
BBX 11 15 2 1
BITMAP
0D00
0480
0080
0780
1FC0
3060
6060
4060
C060
C060
C040
C0C0
C180
6380
3E00
ENDCHAR
STARTCHAR 020D
ENCODING 525
SWIDTH 540 0
DWIDTH 9 0
BBX 8 13 2 0
BITMAP
24
34
12
00
1C
76
43
C3
82
82
86
CC
78
ENDCHAR
STARTCHAR 020E
ENCODING 526
SWIDTH 720 0
DWIDTH 12 0
BBX 11 15 2 0
BITMAP
0380
0480
0000
0780
1FC0
3060
6060
4060
C060
C060
C040
C0C0
C180
6380
3E00
ENDCHAR
STARTCHAR 020F
ENCODING 527
SWIDTH 540 0
DWIDTH 9 0
BBX 8 12 2 0
BITMAP
1E
12
00
1C
76
43
C3
82
82
86
CC
78
ENDCHAR
STARTCHAR 0210
ENCODING 528
SWIDTH 600 0
DWIDTH 10 0
BBX 10 16 1 0
BITMAP
0800
0B00
0D00
0400
0F00
1F80
10C0
30C0
30C0
3180
3F00
6600
6200
6300
4100
C180
ENDCHAR
STARTCHAR 0211
ENCODING 529
SWIDTH 360 0
DWIDTH 6 0
BBX 7 13 1 0
BITMAP
24
34
12
00
1E
3E
20
20
60
60
40
40
C0
ENDCHAR
STARTCHAR 0212
ENCODING 530
SWIDTH 600 0
DWIDTH 10 0
BBX 10 15 1 0
BITMAP
0780
0480
0000
0F00
1F80
10C0
30C0
30C0
3180
3F00
6600
6200
6300
4100
C180
ENDCHAR
STARTCHAR 0213
ENCODING 531
SWIDTH 360 0
DWIDTH 6 0
BBX 7 12 1 0
BITMAP
1E
12
00
1E
3E
20
20
60
60
40
40
C0
ENDCHAR
STARTCHAR 0214
ENCODING 532
SWIDTH 660 0
DWIDTH 11 0
BBX 11 15 2 1
BITMAP
1B00
0900
0000
3060
2040
20C0
60C0
60C0
4080
4180
C180
C180
C300
E700
7E00
ENDCHAR
STARTCHAR 0215
ENCODING 533
SWIDTH 540 0
DWIDTH 9 0
BBX 8 13 2 0
BITMAP
24
34
12
00
63
43
42
C2
C6
86
84
CC
FE
ENDCHAR
STARTCHAR 0216
ENCODING 534
SWIDTH 660 0
DWIDTH 11 0
BBX 11 15 2 0
BITMAP
0700
0C80
0000
3060
2040
20C0
60C0
60C0
4080
4180
C180
C180
C300
E700
7E00
ENDCHAR
STARTCHAR 0217
ENCODING 535
SWIDTH 540 0
DWIDTH 9 0
BBX 8 12 2 0
BITMAP
1E
12
00
63
43
42
C2
C6
86
84
CC
FE
ENDCHAR
STARTCHAR 0218
ENCODING 536
SWIDTH 540 0
DWIDTH 9 0
BBX 9 15 1 -3
BITMAP
0F00
3F80
3000
2000
3000
3800
0E00
0600
0300
0200
8600
FC00
0000
3000
6000
ENDCHAR
STARTCHAR 0219
ENCODING 537
SWIDTH 420 0
DWIDTH 7 0
BBX 7 12 1 -3
BITMAP
1E
36
60
60
38
0C
0C
8C
F8
00
60
C0
ENDCHAR
STARTCHAR 021A
ENCODING 538
SWIDTH 540 0
DWIDTH 9 0
BBX 10 15 2 -3
BITMAP
7FC0
7F80
0C00
0800
0800
1800
1800
1000
1000
3000
3000
3000
0000
6000
C000
ENDCHAR
STARTCHAR 021B
ENCODING 539
SWIDTH 360 0
DWIDTH 6 0
BBX 6 14 2 -3
BITMAP
20
60
7C
78
40
C0
C0
C0
80
C0
F0
00
40
C0
ENDCHAR
STARTCHAR 021C
ENCODING 540
SWIDTH 540 0
DWIDTH 9 0
BBX 9 15 0 -3
BITMAP
0F00
1F80
0080
0080
0180
0180
1E00
1E00
0300
0100
0100
0300
0700
1E00
F800
ENDCHAR
STARTCHAR 021D
ENCODING 541
SWIDTH 420 0
DWIDTH 7 0
BBX 7 12 0 -3
BITMAP
3C
26
02
02
06
18
0C
06
06
0C
38
F0
ENDCHAR
STARTCHAR 021E
ENCODING 542
SWIDTH 660 0
DWIDTH 11 0
BBX 12 15 1 1
BITMAP
02C0
0180
0100
1830
1020
1020
3060
3060
3FC0
3FC0
60C0
60C0
60C0
4080
C180
ENDCHAR
STARTCHAR 021F
ENCODING 543
SWIDTH 540 0
DWIDTH 9 0
BBX 8 16 1 0
BITMAP
0A
0C
00
18
18
10
10
3E
3F
21
21
61
63
43
42
C2
ENDCHAR
STARTCHAR 0220
ENCODING 544
SWIDTH 660 0
DWIDTH 11 0
BBX 10 15 1 -3
BITMAP
0F80
1FC0
1040
3040
3040
30C0
20C0
60C0
6080
6080
4180
C180
0100
0100
0300
ENDCHAR
STARTCHAR 0221
ENCODING 545
SWIDTH 660 0
DWIDTH 11 0
BBX 9 16 2 -3
BITMAP
0180
0180
0100
0100
1F00
3B00
6200
C200
8600
8600
8400
CD00
FF80
0C80
1C80
2700
ENDCHAR
STARTCHAR 0222
ENCODING 546
SWIDTH 660 0
DWIDTH 11 0
BBX 10 12 2 0
BITMAP
30C0
30C0
20C0
2080
2180
3F00
7300
C180
8180
8180
C700
7E00
ENDCHAR
STARTCHAR 0223
ENCODING 547
SWIDTH 540 0
DWIDTH 9 0
BBX 9 13 2 0
BITMAP
3180
3180
2100
2100
2300
3E00
6600
C200
8200
8200
8600
CC00
7800
ENDCHAR
STARTCHAR 0224
ENCODING 548
SWIDTH 540 0
DWIDTH 9 0
BBX 10 15 1 -3
BITMAP
1FC0
3FC0
0180
0300
0600
0C00
1800
1000
3000
6000
C000
FF00
0300
0200
0E00
ENDCHAR
STARTCHAR 0225
ENCODING 549
SWIDTH 480 0
DWIDTH 8 0
BBX 8 12 1 -3
BITMAP
3F
3F
06
0C
18
30
60
C0
FC
0C
0C
38
ENDCHAR
STARTCHAR 0226
ENCODING 550
SWIDTH 660 0
DWIDTH 11 0
BBX 10 15 0 0
BITMAP
0080
00C0
0000
0180
0180
0380
0680
04C0
0CC0
18C0
10C0
3FC0
2040
6040
C040
ENDCHAR
STARTCHAR 0227
ENCODING 551
SWIDTH 540 0
DWIDTH 9 0
BBX 8 12 2 0
BITMAP
0C
04
00
1F
3B
62
C6
86
86
84
CC
FC
ENDCHAR
STARTCHAR 0228
ENCODING 552
SWIDTH 540 0
DWIDTH 9 0
BBX 10 15 1 -3
BITMAP
1FC0
1FC0
1000
3000
3000
3F00
3F00
6000
6000
6000
4000
FF00
1000
1800
3800
ENDCHAR
STARTCHAR 0229
ENCODING 553
SWIDTH 540 0
DWIDTH 9 0
BBX 7 12 2 -3
BITMAP
1C
76
42
C6
FC
E0
80
C4
7C
20
30
60
ENDCHAR
STARTCHAR 022A
ENCODING 554
SWIDTH 720 0
DWIDTH 12 0
BBX 11 16 2 0
BITMAP
03C0
0000
06C0
0400
0780
1FC0
3060
6060
4060
C060
C060
C040
C0C0
C180
6380
3E00
ENDCHAR
STARTCHAR 022B
ENCODING 555
SWIDTH 540 0
DWIDTH 9 0
BBX 8 13 2 0
BITMAP
1F
12
13
00
1C
76
43
C3
82
82
86
CC
78
ENDCHAR
STARTCHAR 022C
ENCODING 556
SWIDTH 720 0
DWIDTH 12 0
BBX 11 16 2 0
BITMAP
03C0
0000
07C0
0000
0780
1FC0
3060
6060
4060
C060
C060
C040
C0C0
C180
6380
3E00
ENDCHAR
STARTCHAR 022D
ENCODING 557
SWIDTH 540 0
DWIDTH 9 0
BBX 8 13 2 0
BITMAP
1F
08
1E
00
1C
76
43
C3
82
82
86
CC
78
ENDCHAR
STARTCHAR 022E
ENCODING 558
SWIDTH 720 0
DWIDTH 12 0
BBX 11 15 2 0
BITMAP
0100
0100
0000
0780
1FC0
3060
6060
4060
C060
C060
C040
C0C0
C180
6380
3E00
ENDCHAR
STARTCHAR 022F
ENCODING 559
SWIDTH 540 0
DWIDTH 9 0
BBX 8 12 2 0
BITMAP
0C
04
00
1C
76
43
C3
82
82
86
CC
78
ENDCHAR
STARTCHAR 0230
ENCODING 560
SWIDTH 720 0
DWIDTH 12 0
BBX 11 16 2 0
BITMAP
03C0
0000
0300
0100
0780
1FC0
3060
6060
4060
C060
C060
C040
C0C0
C180
6380
3E00
ENDCHAR
STARTCHAR 0231
ENCODING 561
SWIDTH 540 0
DWIDTH 9 0
BBX 8 13 2 0
BITMAP
1F
04
0C
00
1C
76
43
C3
82
82
86
CC
78
ENDCHAR
STARTCHAR 0232
ENCODING 562
SWIDTH 600 0
DWIDTH 10 0
BBX 9 14 3 0
BITMAP
1E00
0000
8180
C100
C300
4600
6C00
7800
3000
3000
2000
6000
6000
6000
ENDCHAR
STARTCHAR 0233
ENCODING 563
SWIDTH 480 0
DWIDTH 8 0
BBX 10 15 -1 -3
BITMAP
07C0
0000
0000
1840
18C0
18C0
1880
0980
0900
0B00
0E00
0E00
0C00
1800
F000
ENDCHAR
STARTCHAR 0234
ENCODING 564
SWIDTH 360 0
DWIDTH 6 0
BBX 7 16 -1 -3
BITMAP
06
04
04
0C
0C
0C
08
18
18
18
10
14
3E
32
72
9C
ENDCHAR
STARTCHAR 0235
ENCODING 565
SWIDTH 660 0
DWIDTH 11 0
BBX 11 12 1 -3
BITMAP
1E00
3F00
2100
2100
6100
6300
4300
42C0
C340
0660
0E40
1BC0
ENDCHAR
STARTCHAR 0236
ENCODING 566
SWIDTH 420 0
DWIDTH 7 0
BBX 9 14 -1 -3
BITMAP
0400
0400
0F80
0F80
0800
0800
1800
1800
1800
1400
3A00
3200
7200
DC00
ENDCHAR
STARTCHAR 0237
ENCODING 567
SWIDTH 240 0
DWIDTH 4 0
BBX 7 12 -2 -3
BITMAP
06
06
04
04
0C
0C
08
08
18
18
30
F0
ENDCHAR
STARTCHAR 0238
ENCODING 568
SWIDTH 840 0
DWIDTH 14 0
BBX 13 13 2 0
BITMAP
0180
0180
0100
0100
1FE0
3BB0
6218
C218
8610
8610
8430
CC60
FFC0
ENDCHAR
STARTCHAR 0239
ENCODING 569
SWIDTH 840 0
DWIDTH 14 0
BBX 12 12 2 -3
BITMAP
1FE0
3B30
6210
C210
8610
8630
8430
CC60
FFC0
0C00
0800
0800
ENDCHAR
STARTCHAR 023A
ENCODING 570
SWIDTH 660 0
DWIDTH 11 0
BBX 12 15 0 -2
BITMAP
0010
01A0
01E0
03C0
06C0
04C0
0DC0
19C0
12C0
3FC0
2440
6C40
C840
1000
1000
ENDCHAR
STARTCHAR 023B
ENCODING 571
SWIDTH 600 0
DWIDTH 10 0
BBX 10 14 2 -2
BITMAP
0040
0780
1FC0
3100
6300
4200
C400
CC00
C800
D000
F000
6100
7F00
4000
ENDCHAR
STARTCHAR 023C
ENCODING 572
SWIDTH 480 0
DWIDTH 8 0
BBX 7 11 2 -1
BITMAP
02
1E
7E
48
D8
90
B0
A0
E0
78
80
ENDCHAR
STARTCHAR 023D
ENCODING 573
SWIDTH 540 0
DWIDTH 9 0
BBX 6 12 2 0
BITMAP
30
30
20
20
60
F8
F8
40
C0
C0
C0
FC
ENDCHAR
STARTCHAR 023E
ENCODING 574
SWIDTH 600 0
DWIDTH 10 0
BBX 12 13 1 -1
BITMAP
0010
3FF0
3FE0
06C0
0480
0500
0E00
0C00
1800
3800
3800
5800
9000
ENDCHAR
STARTCHAR 023F
ENCODING 575
SWIDTH 420 0
DWIDTH 7 0
BBX 7 12 1 -3
BITMAP
1E
36
60
60
38
0C
0C
8C
F8
C0
60
38
ENDCHAR
STARTCHAR 0240
ENCODING 576
SWIDTH 420 0
DWIDTH 7 0
BBX 8 12 1 -3
BITMAP
3F
3F
06
0C
18
30
60
C0
E0
30
38
1C
ENDCHAR
STARTCHAR 0241
ENCODING 577
SWIDTH 420 0
DWIDTH 7 0
BBX 7 12 2 0
BITMAP
3C
7E
06
06
06
1C
30
60
40
C0
C0
C0
ENDCHAR
STARTCHAR 0242
ENCODING 578
SWIDTH 360 0
DWIDTH 6 0
BBX 6 9 1 0
BITMAP
7C
4C
04
0C
18
60
40
40
C0
ENDCHAR
STARTCHAR 0243
ENCODING 579
SWIDTH 660 0
DWIDTH 11 0
BBX 10 12 1 0
BITMAP
0F00
1FC0
10C0
1040
30C0
3F80
3F80
20C0
F8C0
6080
6380
7E00
ENDCHAR
STARTCHAR 0244
ENCODING 580
SWIDTH 720 0
DWIDTH 12 0
BBX 11 12 2 0
BITMAP
3060
3060
2040
20C0
60C0
FFE0
4080
4180
C180
C100
6300
7E00
ENDCHAR
STARTCHAR 0245
ENCODING 581
SWIDTH 600 0
DWIDTH 10 0
BBX 10 12 0 0
BITMAP
0180
0380
0280
0680
0C80
0CC0
18C0
10C0
30C0
20C0
6040
C040
ENDCHAR
STARTCHAR 0246
ENCODING 582
SWIDTH 600 0
DWIDTH 10 0
BBX 10 14 1 -1
BITMAP
1FC0
1FC0
1080
3180
3100
3F00
3F00
6400
6800
7800
5000
FF00
2000
4000
ENDCHAR
STARTCHAR 0247
ENCODING 583
SWIDTH 540 0
DWIDTH 9 0
BBX 8 12 2 -2
BITMAP
04
1E
7A
4B
DA
FE
F0
A0
E4
7C
40
40
ENDCHAR
STARTCHAR 0248
ENCODING 584
SWIDTH 480 0
DWIDTH 8 0
BBX 8 12 1 0
BITMAP
01
01
03
03
02
1F
1F
06
06
04
8C
F8
ENDCHAR
STARTCHAR 0249
ENCODING 585
SWIDTH 300 0
DWIDTH 5 0
BBX 7 15 -1 -3
BITMAP
06
06
00
04
04
0C
0C
3E
08
18
18
10
10
30
E0
ENDCHAR
STARTCHAR 024A
ENCODING 586
SWIDTH 780 0
DWIDTH 13 0
BBX 11 15 2 -3
BITMAP
0780
1FC0
3060
6060
4060
C060
C060
C040
C0C0
C1C0
63C0
3E80
0080
0080
00E0
ENDCHAR
STARTCHAR 024B
ENCODING 587
SWIDTH 540 0
DWIDTH 9 0
BBX 8 12 2 -3
BITMAP
1F
3B
62
C2
86
86
84
CC
FC
0C
0C
0E
ENDCHAR
STARTCHAR 024C
ENCODING 588
SWIDTH 600 0
DWIDTH 10 0
BBX 9 12 2 0
BITMAP
1E00
3F80
3180
2080
6080
6180
FF00
4400
C600
C200
C300
8300
ENDCHAR
STARTCHAR 024D
ENCODING 589
SWIDTH 360 0
DWIDTH 6 0
BBX 7 9 1 0
BITMAP
1E
3E
30
20
F8
F8
60
40
40
ENDCHAR
STARTCHAR 024E
ENCODING 590
SWIDTH 600 0
DWIDTH 10 0
BBX 10 12 2 0
BITMAP
6040
60C0
2180
FFC0
3200
1400
1C00
1800
1800
1000
3000
3000
ENDCHAR
STARTCHAR 024F
ENCODING 591
SWIDTH 540 0
DWIDTH 9 0
BBX 11 12 -1 -3
BITMAP
1860
1840
18C0
0880
3FC0
0980
0D00
0E00
0600
0C00
1800
F000
ENDCHAR
STARTCHAR 0292
ENCODING 658
SWIDTH 420 0
DWIDTH 7 0
BBX 8 12 0 -3
BITMAP
3F
3F
02
04
18
18
0E
06
06
06
8C
F8
ENDCHAR
STARTCHAR 02BC
ENCODING 700
SWIDTH 360 0
DWIDTH 6 0
BBX 2 3 5 10
BITMAP
40
C0
80
ENDCHAR
STARTCHAR 02C6
ENCODING 710
SWIDTH 360 0
DWIDTH 6 0
BBX 5 2 3 11
BITMAP
30
D8
ENDCHAR
STARTCHAR 02C7
ENCODING 711
SWIDTH 360 0
DWIDTH 6 0
BBX 4 3 4 10
BITMAP
90
F0
40
ENDCHAR
STARTCHAR 02C9
ENCODING 713
SWIDTH 360 0
DWIDTH 6 0
BBX 4 1 4 11
BITMAP
F0
ENDCHAR
STARTCHAR 02D8
ENCODING 728
SWIDTH 360 0
DWIDTH 6 0
BBX 4 2 4 10
BITMAP
90
60
ENDCHAR
STARTCHAR 02D9
ENCODING 729
SWIDTH 360 0
DWIDTH 6 0
BBX 2 2 4 10
BITMAP
C0
40
ENDCHAR
STARTCHAR 02DA
ENCODING 730
SWIDTH 360 0
DWIDTH 6 0
BBX 3 3 4 10
BITMAP
E0
A0
E0
ENDCHAR
STARTCHAR 02DB
ENCODING 731
SWIDTH 360 0
DWIDTH 6 0
BBX 2 3 1 -3
BITMAP
40
80
C0
ENDCHAR
STARTCHAR 02DC
ENCODING 732
SWIDTH 360 0
DWIDTH 6 0
BBX 6 2 3 10
BITMAP
FC
98
ENDCHAR
STARTCHAR 02DD
ENCODING 733
SWIDTH 360 0
DWIDTH 6 0
BBX 6 3 3 10
BITMAP
24
6C
D8
ENDCHAR
STARTCHAR 0311
ENCODING 785
SWIDTH 360 0
DWIDTH 6 0
BBX 5 2 3 10
BITMAP
78
C8
ENDCHAR
STARTCHAR 0384
ENCODING 900
SWIDTH 360 0
DWIDTH 6 0
BBX 3 3 5 10
BITMAP
20
60
C0
ENDCHAR
STARTCHAR 0385
ENCODING 901
SWIDTH 360 0
DWIDTH 6 0
BBX 6 3 3 10
BITMAP
10
BC
A4
ENDCHAR
STARTCHAR 0386
ENCODING 902
SWIDTH 660 0
DWIDTH 11 0
BBX 10 12 0 0
BITMAP
0980
0980
1B80
1680
04C0
0CC0
18C0
10C0
3FC0
2040
6040
C040
ENDCHAR
STARTCHAR 0388
ENCODING 904
SWIDTH 600 0
DWIDTH 10 0
BBX 10 12 2 0
BITMAP
5FC0
DFC0
9000
9000
3000
3F00
3F00
2000
6000
6000
4000
7F00
ENDCHAR
STARTCHAR 0389
ENCODING 905
SWIDTH 720 0
DWIDTH 12 0
BBX 12 12 2 0
BITMAP
5830
D830
9020
9060
3060
3FE0
3FC0
2040
60C0
60C0
4080
4080
ENDCHAR
STARTCHAR 038A
ENCODING 906
SWIDTH 360 0
DWIDTH 6 0
BBX 5 12 2 0
BITMAP
58
D8
90
90
30
30
20
20
60
60
40
40
ENDCHAR
STARTCHAR 038C
ENCODING 908
SWIDTH 780 0
DWIDTH 13 0
BBX 12 12 2 0
BITMAP
4780
CFE0
9860
B030
6030
6030
6030
6060
6060
60C0
7180
3F00
ENDCHAR
STARTCHAR 038E
ENCODING 910
SWIDTH 720 0
DWIDTH 12 0
BBX 12 12 2 0
BITMAP
5830
D830
8860
88C0
0D80
0D00
0700
0600
0600
0400
0C00
0C00
ENDCHAR
STARTCHAR 038F
ENCODING 911
SWIDTH 780 0
DWIDTH 13 0
BBX 12 12 2 0
BITMAP
43C0
CFE0
9830
B030
2030
6030
6030
6060
6060
20C0
3180
F3E0
ENDCHAR
STARTCHAR 0390
ENCODING 912
SWIDTH 240 0
DWIDTH 4 0
BBX 6 13 2 0
BITMAP
10
BC
A4
00
60
60
40
40
C0
C0
80
80
C0
ENDCHAR
STARTCHAR 0391
ENCODING 913
SWIDTH 660 0
DWIDTH 11 0
BBX 10 12 0 0
BITMAP
0180
0180
0380
0680
04C0
0CC0
18C0
10C0
3FC0
2040
6040
C040
ENDCHAR
STARTCHAR 0392
ENCODING 914
SWIDTH 600 0
DWIDTH 10 0
BBX 10 12 1 0
BITMAP
0F00
1FC0
10C0
30C0
30C0
3F80
3F80
6080
6080
6180
4380
FE00
ENDCHAR
STARTCHAR 0393
ENCODING 915
SWIDTH 480 0
DWIDTH 8 0
BBX 10 12 1 0
BITMAP
1FC0
1F80
1000
3000
3000
3000
2000
6000
6000
6000
4000
C000
ENDCHAR
STARTCHAR 0394
ENCODING 916
SWIDTH 600 0
DWIDTH 10 0
BBX 10 12 0 0
BITMAP
0180
0380
0280
0680
0C80
0CC0
18C0
10C0
30C0
20C0
6040
FFC0
ENDCHAR
STARTCHAR 0395
ENCODING 917
SWIDTH 540 0
DWIDTH 9 0
BBX 10 12 1 0
BITMAP
1FC0
1FC0
1000
3000
3000
3F00
3F00
6000
6000
6000
4000
FF00
ENDCHAR
STARTCHAR 0396
ENCODING 918
SWIDTH 540 0
DWIDTH 9 0
BBX 10 12 1 0
BITMAP
1FC0
3FC0
0180
0300
0600
0C00
1800
1000
3000
6000
C000
FF00
ENDCHAR
STARTCHAR 0397
ENCODING 919
SWIDTH 660 0
DWIDTH 11 0
BBX 12 12 1 0
BITMAP
1830
1020
1020
3060
3060
3FC0
3FC0
60C0
60C0
60C0
4080
C180
ENDCHAR
STARTCHAR 0398
ENCODING 920
SWIDTH 720 0
DWIDTH 12 0
BBX 11 12 2 0
BITMAP
0780
1FC0
3060
6060
4060
C060
DF60
C040
C0C0
C180
6380
3E00
ENDCHAR
STARTCHAR 0399
ENCODING 921
SWIDTH 240 0
DWIDTH 4 0
BBX 5 12 1 0
BITMAP
18
10
10
30
30
30
20
60
60
60
40
C0
ENDCHAR
STARTCHAR 039A
ENCODING 922
SWIDTH 600 0
DWIDTH 10 0
BBX 11 12 1 0
BITMAP
1860
10C0
1180
3300
3600
3C00
3C00
6C00
6600
6300
4100
C180
ENDCHAR
STARTCHAR 039B
ENCODING 923
SWIDTH 600 0
DWIDTH 10 0
BBX 10 12 0 0
BITMAP
0180
0380
0280
0680
0C80
0CC0
18C0
10C0
30C0
20C0
6040
C040
ENDCHAR
STARTCHAR 039C
ENCODING 924
SWIDTH 840 0
DWIDTH 14 0
BBX 14 12 1 0
BITMAP
080C
180C
1C1C
1C38
3468
3448
24D8
6798
6718
4310
C010
C010
ENDCHAR
STARTCHAR 039D
ENCODING 925
SWIDTH 720 0
DWIDTH 12 0
BBX 12 12 1 0
BITMAP
1830
1830
1C20
3420
3660
2660
2260
6340
61C0
61C0
41C0
C080
ENDCHAR
STARTCHAR 039E
ENCODING 926
SWIDTH 540 0
DWIDTH 9 0
BBX 10 12 1 0
BITMAP
3FC0
3FC0
0000
0000
0000
3F00
3F00
0000
0000
0000
0000
FE00
ENDCHAR
STARTCHAR 039F
ENCODING 927
SWIDTH 720 0
DWIDTH 12 0
BBX 11 12 2 0
BITMAP
0780
1FC0
3060
6060
4060
C060
C060
C040
C0C0
C180
6380
3E00
ENDCHAR
STARTCHAR 03A0
ENCODING 928
SWIDTH 660 0
DWIDTH 11 0
BBX 12 12 1 0
BITMAP
1FF0
1FE0
1060
3060
3060
3040
2040
60C0
60C0
6080
4080
C180
ENDCHAR
STARTCHAR 03A1
ENCODING 929
SWIDTH 600 0
DWIDTH 10 0
BBX 10 12 1 0
BITMAP
0F00
1FC0
10C0
30C0
30C0
30C0
3F80
7C00
6000
6000
4000
C000
ENDCHAR
STARTCHAR 03A3
ENCODING 931
SWIDTH 540 0
DWIDTH 9 0
BBX 10 12 1 0
BITMAP
1FC0
3FC0
1800
1800
0C00
0C00
0C00
1800
3000
6000
C000
FF00
ENDCHAR
STARTCHAR 03A4
ENCODING 932
SWIDTH 540 0
DWIDTH 9 0
BBX 9 12 3 0
BITMAP
FF80
FF00
1800
1000
1000
3000
3000
2000
2000
6000
6000
6000
ENDCHAR
STARTCHAR 03A5
ENCODING 933
SWIDTH 600 0
DWIDTH 10 0
BBX 9 12 3 0
BITMAP
8180
C100
C300
4600
6C00
7800
3000
3000
2000
6000
6000
6000
ENDCHAR
STARTCHAR 03A6
ENCODING 934
SWIDTH 840 0
DWIDTH 14 0
BBX 12 12 2 0
BITMAP
0100
0FC0
3B70
6330
4210
C610
C630
C630
C460
7FC0
1E00
0C00
ENDCHAR
STARTCHAR 03A7
ENCODING 935
SWIDTH 600 0
DWIDTH 10 0
BBX 11 12 1 0
BITMAP
3060
10C0
1880
0980
0F00
0E00
0E00
1E00
3200
6300
4100
C180
ENDCHAR
STARTCHAR 03A8
ENCODING 936
SWIDTH 780 0
DWIDTH 13 0
BBX 12 12 3 0
BITMAP
4630
4630
C620
C460
8C60
8C60
8CC0
E980
7F00
1800
1800
1000
ENDCHAR
STARTCHAR 03A9
ENCODING 937
SWIDTH 780 0
DWIDTH 13 0
BBX 12 12 1 0
BITMAP
03C0
0FE0
1830
3030
3030
2030
6030
6020
2060
20C0
3180
F1E0
ENDCHAR
STARTCHAR 03AA
ENCODING 938
SWIDTH 240 0
DWIDTH 4 0
BBX 7 15 1 0
BITMAP
36
36
00
18
10
10
30
30
30
20
60
60
60
40
C0
ENDCHAR
STARTCHAR 03AB
ENCODING 939
SWIDTH 600 0
DWIDTH 10 0
BBX 9 15 3 0
BITMAP
1200
3200
0000
8180
C100
C300
4600
6C00
7800
3000
3000
2000
6000
6000
6000
ENDCHAR
STARTCHAR 03AC
ENCODING 940
SWIDTH 540 0
DWIDTH 9 0
BBX 8 13 2 0
BITMAP
02
06
0C
00
1F
3B
62
C6
86
84
84
CC
FE
ENDCHAR
STARTCHAR 03AD
ENCODING 941
SWIDTH 480 0
DWIDTH 8 0
BBX 8 13 1 0
BITMAP
02
06
04
00
1F
32
60
20
38
40
C0
C0
7E
ENDCHAR
STARTCHAR 03AE
ENCODING 942
SWIDTH 540 0
DWIDTH 9 0
BBX 8 16 1 -3
BITMAP
01
03
06
00
1E
3F
21
21
61
63
43
42
C2
06
06
04
ENDCHAR
STARTCHAR 03AF
ENCODING 943
SWIDTH 240 0
DWIDTH 4 0
BBX 4 13 2 0
BITMAP
10
30
60
00
60
60
40
40
C0
C0
80
80
C0
ENDCHAR
STARTCHAR 03B0
ENCODING 944
SWIDTH 540 0
DWIDTH 9 0
BBX 9 13 2 0
BITMAP
0400
3580
2900
0000
6300
4300
4300
C200
C600
8600
8600
CC00
7800
ENDCHAR
STARTCHAR 03B1
ENCODING 945
SWIDTH 540 0
DWIDTH 9 0
BBX 8 9 2 0
BITMAP
1F
3B
62
C6
86
84
84
CC
FE
ENDCHAR
STARTCHAR 03B2
ENCODING 946
SWIDTH 600 0
DWIDTH 10 0
BBX 9 16 1 -3
BITMAP
0700
1D80
1880
1080
3180
3700
2700
2180
6180
6180
4100
4700
FE00
C000
8000
8000
ENDCHAR
STARTCHAR 03B3
ENCODING 947
SWIDTH 480 0
DWIDTH 8 0
BBX 7 12 2 -3
BITMAP
C2
C6
C6
44
4C
48
50
70
60
40
40
C0
ENDCHAR
STARTCHAR 03B4
ENCODING 948
SWIDTH 540 0
DWIDTH 9 0
BBX 8 13 2 0
BITMAP
0F
19
30
30
18
3C
66
C2
82
82
86
CC
78
ENDCHAR
STARTCHAR 03B5
ENCODING 949
SWIDTH 480 0
DWIDTH 8 0
BBX 8 9 1 0
BITMAP
1F
32
60
20
38
40
C0
C0
7E
ENDCHAR
STARTCHAR 03B6
ENCODING 950
SWIDTH 420 0
DWIDTH 7 0
BBX 8 16 2 -3
BITMAP
3F
03
04
18
30
60
40
C0
80
80
80
E0
78
08
08
18
ENDCHAR
STARTCHAR 03B7
ENCODING 951
SWIDTH 540 0
DWIDTH 9 0
BBX 8 12 1 -3
BITMAP
1E
3F
21
21
61
63
43
42
C2
06
06
04
ENDCHAR
STARTCHAR 03B8
ENCODING 952
SWIDTH 600 0
DWIDTH 10 0
BBX 8 13 2 0
BITMAP
0E
1B
31
61
41
41
FF
C3
C3
C2
C6
CC
78
ENDCHAR
STARTCHAR 03B9
ENCODING 953
SWIDTH 240 0
DWIDTH 4 0
BBX 3 9 2 0
BITMAP
60
60
40
40
C0
C0
80
80
C0
ENDCHAR
STARTCHAR 03BA
ENCODING 954
SWIDTH 540 0
DWIDTH 9 0
BBX 9 9 1 0
BITMAP
3180
3300
2600
2C00
7800
6C00
4400
4600
C300
ENDCHAR
STARTCHAR 03BB
ENCODING 955
SWIDTH 480 0
DWIDTH 8 0
BBX 7 13 1 0
BITMAP
38
08
0C
0C
0C
0C
1C
36
26
66
46
C6
86
ENDCHAR
STARTCHAR 03BC
ENCODING 956
SWIDTH 600 0
DWIDTH 10 0
BBX 9 12 1 -3
BITMAP
3180
3180
2180
2100
6100
6300
6300
6300
FD00
C000
8000
8000
ENDCHAR
STARTCHAR 03BD
ENCODING 957
SWIDTH 480 0
DWIDTH 8 0
BBX 8 9 2 0
BITMAP
C3
C2
C6
C4
CC
48
50
70
60
ENDCHAR
STARTCHAR 03BE
ENCODING 958
SWIDTH 480 0
DWIDTH 8 0
BBX 8 16 2 -3
BITMAP
0F
39
20
20
20
3C
3C
C0
80
80
80
E0
78
08
08
18
ENDCHAR
STARTCHAR 03BF
ENCODING 959
SWIDTH 540 0
DWIDTH 9 0
BBX 8 9 2 0
BITMAP
1C
76
43
C3
82
82
86
CC
78
ENDCHAR
STARTCHAR 03C0
ENCODING 960
SWIDTH 540 0
DWIDTH 9 0
BBX 9 9 1 0
BITMAP
3F80
3F80
2180
2100
6100
6300
4300
4200
C200
ENDCHAR
STARTCHAR 03C1
ENCODING 961
SWIDTH 540 0
DWIDTH 9 0
BBX 9 12 0 -3
BITMAP
0700
1F80
1080
3080
3080
2080
2180
6300
7E00
6000
4000
C000
ENDCHAR
STARTCHAR 03C2
ENCODING 962
SWIDTH 420 0
DWIDTH 7 0
BBX 7 12 2 -3
BITMAP
1E
74
40
C0
80
80
80
E0
78
18
18
30
ENDCHAR
STARTCHAR 03C3
ENCODING 963
SWIDTH 600 0
DWIDTH 10 0
BBX 9 9 2 0
BITMAP
1F80
3F80
6200
C200
8200
8200
8600
CC00
F800
ENDCHAR
STARTCHAR 03C4
ENCODING 964
SWIDTH 420 0
DWIDTH 7 0
BBX 7 9 2 0
BITMAP
FE
FE
30
20
20
60
60
60
38
ENDCHAR
STARTCHAR 03C5
ENCODING 965
SWIDTH 540 0
DWIDTH 9 0
BBX 8 9 2 0
BITMAP
63
43
43
C2
C6
86
86
CC
78
ENDCHAR
STARTCHAR 03C6
ENCODING 966
SWIDTH 720 0
DWIDTH 12 0
BBX 11 12 2 -3
BITMAP
1F00
7FC0
4440
C460
8C60
8C40
88C0
C980
7F00
1800
1000
1000
ENDCHAR
STARTCHAR 03C7
ENCODING 967
SWIDTH 480 0
DWIDTH 8 0
BBX 8 9 1 0
BITMAP
63
22
36
1C
18
38
6C
44
86
ENDCHAR
STARTCHAR 03C8
ENCODING 968
SWIDTH 720 0
DWIDTH 12 0
BBX 11 12 2 -3
BITMAP
6620
4660
4460
C460
CC40
CCC0
CCC0
C980
7F00
1800
1800
1000
ENDCHAR
STARTCHAR 03C9
ENCODING 969
SWIDTH 840 0
DWIDTH 14 0
BBX 12 9 2 0
BITMAP
2020
6020
4230
C630
C630
8420
8C20
CE60
F3C0
ENDCHAR
STARTCHAR 03CA
ENCODING 970
SWIDTH 240 0
DWIDTH 4 0
BBX 5 12 2 0
BITMAP
D8
C8
00
60
60
40
40
C0
C0
80
80
C0
ENDCHAR
STARTCHAR 03CB
ENCODING 971
SWIDTH 540 0
DWIDTH 9 0
BBX 8 12 2 0
BITMAP
1B
12
00
63
43
43
C2
C6
86
86
CC
78
ENDCHAR
STARTCHAR 03CC
ENCODING 972
SWIDTH 540 0
DWIDTH 9 0
BBX 8 13 2 0
BITMAP
02
06
0C
00
1C
76
43
C3
82
82
86
CC
78
ENDCHAR
STARTCHAR 03CD
ENCODING 973
SWIDTH 540 0
DWIDTH 9 0
BBX 8 13 2 0
BITMAP
02
04
0C
00
63
43
43
C2
C6
86
86
CC
78
ENDCHAR
STARTCHAR 03CE
ENCODING 974
SWIDTH 840 0
DWIDTH 14 0
BBX 12 13 2 0
BITMAP
0080
0180
0300
0000
2020
6020
4230
C630
C630
8420
8C20
CE60
F3C0
ENDCHAR
STARTCHAR 0400
ENCODING 1024
SWIDTH 540 0
DWIDTH 9 0
BBX 10 15 1 1
BITMAP
0600
0300
0100
1FC0
1FC0
1000
3000
3000
3F00
3F00
6000
6000
6000
4000
FF00
ENDCHAR
STARTCHAR 0401
ENCODING 1025
SWIDTH 540 0
DWIDTH 9 0
BBX 10 15 1 0
BITMAP
0480
04C0
0000
1FC0
1FC0
1000
3000
3000
3F00
3F00
6000
6000
6000
4000
FF00
ENDCHAR
STARTCHAR 0402
ENCODING 1026
SWIDTH 720 0
DWIDTH 12 0
BBX 9 12 3 0
BITMAP
FF80
FF00
1000
1000
3000
3F00
2180
2080
6080
6180
6180
4700
ENDCHAR
STARTCHAR 0403
ENCODING 1027
SWIDTH 480 0
DWIDTH 8 0
BBX 10 15 1 1
BITMAP
0180
0300
0200
1FC0
1F80
1000
3000
3000
3000
2000
6000
6000
6000
4000
C000
ENDCHAR
STARTCHAR 0404
ENCODING 1028
SWIDTH 600 0
DWIDTH 10 0
BBX 10 12 2 0
BITMAP
0780
1FC0
3000
6000
4000
FE00
FE00
C000
C000
C000
6100
3F00
ENDCHAR
STARTCHAR 0405
ENCODING 1029
SWIDTH 540 0
DWIDTH 9 0
BBX 9 12 1 0
BITMAP
0F00
3F80
3000
2000
3000
3800
0E00
0600
0300
0200
8600
FC00
ENDCHAR
STARTCHAR 0406
ENCODING 1030
SWIDTH 240 0
DWIDTH 4 0
BBX 5 12 1 0
BITMAP
18
10
10
30
30
30
20
60
60
60
40
C0
ENDCHAR
STARTCHAR 0407
ENCODING 1031
SWIDTH 240 0
DWIDTH 4 0
BBX 7 15 1 0
BITMAP
36
36
00
18
10
10
30
30
30
20
60
60
60
40
C0
ENDCHAR
STARTCHAR 0408
ENCODING 1032
SWIDTH 480 0
DWIDTH 8 0
BBX 8 12 1 0
BITMAP
01
01
03
03
02
02
06
06
06
04
8C
F8
ENDCHAR
STARTCHAR 0409
ENCODING 1033
SWIDTH 1020 0
DWIDTH 17 0
BBX 17 12 0 0
BITMAP
03F000
03F000
023000
063000
062000
043F00
0C6180
0C6180
084180
184100
70C700
E0FC00
ENDCHAR
STARTCHAR 040A
ENCODING 1034
SWIDTH 1020 0
DWIDTH 17 0
BBX 16 12 1 0
BITMAP
1830
1020
1020
3060
3060
3FFE
2043
60C3
60C3
60C3
408E
C1FC
ENDCHAR
STARTCHAR 040B
ENCODING 1035
SWIDTH 720 0
DWIDTH 12 0
BBX 9 12 3 0
BITMAP
FF80
FF00
1000
1000
3000
3F00
2180
2180
6180
6180
6100
4300
ENDCHAR
STARTCHAR 040C
ENCODING 1036
SWIDTH 600 0
DWIDTH 10 0
BBX 11 15 1 1
BITMAP
0180
0300
0200
1860
10C0
1180
3300
3600
3C00
3C00
6C00
6600
6300
4100
C180
ENDCHAR
STARTCHAR 040D
ENCODING 1037
SWIDTH 720 0
DWIDTH 12 0
BBX 12 15 1 1
BITMAP
0300
0180
0080
1810
1030
1070
30A0
3160
2260
2660
6C40
7840
70C0
60C0
C080
ENDCHAR
STARTCHAR 040E
ENCODING 1038
SWIDTH 540 0
DWIDTH 9 0
BBX 11 15 1 0
BITMAP
0C80
0780
0000
3060
30C0
30C0
3180
1180
1B00
1A00
0E00
0C00
0800
1800
E000
ENDCHAR
STARTCHAR 040F
ENCODING 1039
SWIDTH 660 0
DWIDTH 11 0
BBX 12 15 1 -3
BITMAP
1830
1020
1060
3060
3060
3040
2040
60C0
60C0
6080
4080
FF80
0800
1800
1800
ENDCHAR
STARTCHAR 0410
ENCODING 1040
SWIDTH 660 0
DWIDTH 11 0
BBX 10 12 0 0
BITMAP
0180
0180
0380
0680
04C0
0CC0
18C0
10C0
3FC0
2040
6040
C040
ENDCHAR
STARTCHAR 0411
ENCODING 1041
SWIDTH 600 0
DWIDTH 10 0
BBX 10 12 1 0
BITMAP
1FC0
1FC0
1000
3000
3000
3F00
2180
6180
6180
6180
4700
FE00
ENDCHAR
STARTCHAR 0412
ENCODING 1042
SWIDTH 600 0
DWIDTH 10 0
BBX 10 12 1 0
BITMAP
0F00
1FC0
10C0
30C0
30C0
3F80
3F80
6080
6080
6180
4380
FE00
ENDCHAR
STARTCHAR 0413
ENCODING 1043
SWIDTH 480 0
DWIDTH 8 0
BBX 10 12 1 0
BITMAP
1FC0
1F80
1000
3000
3000
3000
2000
6000
6000
6000
4000
C000
ENDCHAR
STARTCHAR 0414
ENCODING 1044
SWIDTH 720 0
DWIDTH 12 0
BBX 13 15 0 -3
BITMAP
03F8
03F0
0210
0230
0630
0620
0420
0C60
0860
1840
3040
FFE0
C020
8060
8060
ENDCHAR
STARTCHAR 0415
ENCODING 1045
SWIDTH 540 0
DWIDTH 9 0
BBX 10 12 1 0
BITMAP
1FC0
1FC0
1000
3000
3000
3F00
3F00
6000
6000
6000
4000
FF00
ENDCHAR
STARTCHAR 0416
ENCODING 1046
SWIDTH 840 0
DWIDTH 14 0
BBX 16 12 1 0
BITMAP
3083
1086
1988
09B0
0D60
07C0
0FC0
1B60
3260
6230
C610
8618
ENDCHAR
STARTCHAR 0417
ENCODING 1047
SWIDTH 540 0
DWIDTH 9 0
BBX 9 12 1 0
BITMAP
0E00
1F80
0180
0180
0100
1E00
1F00
0300
0300
0300
8600
FC00
ENDCHAR
STARTCHAR 0418
ENCODING 1048
SWIDTH 720 0
DWIDTH 12 0
BBX 12 12 1 0
BITMAP
1810
1030
1070
30A0
3160
2260
2660
6C40
7840
70C0
60C0
C080
ENDCHAR
STARTCHAR 0419
ENCODING 1049
SWIDTH 720 0
DWIDTH 12 0
BBX 12 15 1 0
BITMAP
0260
03C0
0000
1810
1030
1070
30A0
3160
2260
2660
6C40
7840
70C0
60C0
C080
ENDCHAR
STARTCHAR 041A
ENCODING 1050
SWIDTH 600 0
DWIDTH 10 0
BBX 11 12 1 0
BITMAP
1860
10C0
1180
3300
3600
3C00
3C00
6C00
6600
6300
4100
C180
ENDCHAR
STARTCHAR 041B
ENCODING 1051
SWIDTH 660 0
DWIDTH 11 0
BBX 12 12 0 0
BITMAP
03F0
03F0
0230
0630
0620
0420
0C60
0C60
0840
1840
70C0
E0C0
ENDCHAR
STARTCHAR 041C
ENCODING 1052
SWIDTH 840 0
DWIDTH 14 0
BBX 14 12 1 0
BITMAP
080C
180C
1C1C
1C38
3468
3448
24D8
6798
6718
4310
C010
C010
ENDCHAR
STARTCHAR 041D
ENCODING 1053
SWIDTH 660 0
DWIDTH 11 0
BBX 12 12 1 0
BITMAP
1830
1020
1020
3060
3060
3FC0
3FC0
60C0
60C0
60C0
4080
C180
ENDCHAR
STARTCHAR 041E
ENCODING 1054
SWIDTH 720 0
DWIDTH 12 0
BBX 11 12 2 0
BITMAP
0780
1FC0
3060
6060
4060
C060
C060
C040
C0C0
C180
6380
3E00
ENDCHAR
STARTCHAR 041F
ENCODING 1055
SWIDTH 660 0
DWIDTH 11 0
BBX 12 12 1 0
BITMAP
1FF0
1FE0
1060
3060
3060
3040
2040
60C0
60C0
6080
4080
C180
ENDCHAR
STARTCHAR 0420
ENCODING 1056
SWIDTH 600 0
DWIDTH 10 0
BBX 10 12 1 0
BITMAP
0F00
1FC0
10C0
30C0
30C0
30C0
3F80
7C00
6000
6000
4000
C000
ENDCHAR
STARTCHAR 0421
ENCODING 1057
SWIDTH 600 0
DWIDTH 10 0
BBX 10 12 2 0
BITMAP
0780
1FC0
3000
6000
4000
C000
C000
C000
C000
C000
6100
3F00
ENDCHAR
STARTCHAR 0422
ENCODING 1058
SWIDTH 540 0
DWIDTH 9 0
BBX 9 12 3 0
BITMAP
FF80
FF00
1800
1000
1000
3000
3000
2000
2000
6000
6000
6000
ENDCHAR
STARTCHAR 0423
ENCODING 1059
SWIDTH 540 0
DWIDTH 9 0
BBX 11 12 1 0
BITMAP
3060
30C0
30C0
3180
1180
1B00
1A00
0E00
0C00
0800
1800
E000
ENDCHAR
STARTCHAR 0424
ENCODING 1060
SWIDTH 840 0
DWIDTH 14 0
BBX 12 12 2 0
BITMAP
0100
0FC0
3B70
6330
4210
C610
C630
C630
C460
7FC0
1E00
0C00
ENDCHAR
STARTCHAR 0425
ENCODING 1061
SWIDTH 600 0
DWIDTH 10 0
BBX 11 12 1 0
BITMAP
3060
10C0
1880
0980
0F00
0E00
0E00
1E00
3200
6300
4100
C180
ENDCHAR
STARTCHAR 0426
ENCODING 1062
SWIDTH 720 0
DWIDTH 12 0
BBX 12 15 1 -3
BITMAP
1830
1020
1020
3060
3060
3040
2040
60C0
60C0
6080
4080
FFC0
0040
00C0
00C0
ENDCHAR
STARTCHAR 0427
ENCODING 1063
SWIDTH 600 0
DWIDTH 10 0
BBX 8 12 3 0
BITMAP
41
C1
C3
C3
83
82
EE
7E
06
04
0C
0C
ENDCHAR
STARTCHAR 0428
ENCODING 1064
SWIDTH 960 0
DWIDTH 16 0
BBX 16 12 1 0
BITMAP
1841
1043
10C3
30C2
3082
3086
2186
6186
6184
610C
430C
FFFC
ENDCHAR
STARTCHAR 0429
ENCODING 1065
SWIDTH 960 0
DWIDTH 16 0
BBX 16 15 1 -3
BITMAP
1841
1043
10C3
30C2
3082
3086
2186
6186
6184
610C
430C
FFFE
0006
0006
0004
ENDCHAR
STARTCHAR 042A
ENCODING 1066
SWIDTH 720 0
DWIDTH 12 0
BBX 9 12 3 0
BITMAP
F800
F000
3000
3000
3000
3F00
6180
6180
6180
4180
C700
FE00
ENDCHAR
STARTCHAR 042B
ENCODING 1067
SWIDTH 840 0
DWIDTH 14 0
BBX 14 12 1 0
BITMAP
1804
100C
100C
3008
3008
3F18
2198
6190
6190
61B0
4730
FE20
ENDCHAR
STARTCHAR 042C
ENCODING 1068
SWIDTH 600 0
DWIDTH 10 0
BBX 9 12 1 0
BITMAP
1800
1000
1000
3000
3000
3F00
2180
6080
6180
6180
4300
FE00
ENDCHAR
STARTCHAR 042D
ENCODING 1069
SWIDTH 600 0
DWIDTH 10 0
BBX 10 12 1 0
BITMAP
1E00
3F80
0180
0080
00C0
1F80
1F80
0180
0180
0300
8600
FC00
ENDCHAR
STARTCHAR 042E
ENCODING 1070
SWIDTH 1020 0
DWIDTH 17 0
BBX 16 12 1 0
BITMAP
183C
10FE
11C3
3183
3301
3F01
3E03
6203
6202
6306
431C
C1F8
ENDCHAR
STARTCHAR 042F
ENCODING 1071
SWIDTH 600 0
DWIDTH 10 0
BBX 10 12 1 0
BITMAP
03C0
1FC0
30C0
30C0
20C0
3080
3F80
1980
3180
6100
4100
C300
ENDCHAR
STARTCHAR 0430
ENCODING 1072
SWIDTH 540 0
DWIDTH 9 0
BBX 8 9 2 0
BITMAP
1F
3B
62
C6
86
86
84
CC
FC
ENDCHAR
STARTCHAR 0431
ENCODING 1073
SWIDTH 540 0
DWIDTH 9 0
BBX 9 13 2 0
BITMAP
0380
1F00
3000
2000
6800
7E00
C200
C200
8200
8200
8600
CC00
7800
ENDCHAR
STARTCHAR 0432
ENCODING 1074
SWIDTH 540 0
DWIDTH 9 0
BBX 8 9 1 0
BITMAP
0E
33
21
63
7E
63
43
43
FE
ENDCHAR
STARTCHAR 0433
ENCODING 1075
SWIDTH 420 0
DWIDTH 7 0
BBX 7 9 1 0
BITMAP
3C
26
06
06
3C
60
C0
C4
7C
ENDCHAR
STARTCHAR 0434
ENCODING 1076
SWIDTH 540 0
DWIDTH 9 0
BBX 7 13 2 0
BITMAP
78
0C
06
02
1A
7E
42
C2
82
86
84
CC
F8
ENDCHAR
STARTCHAR 0435
ENCODING 1077
SWIDTH 540 0
DWIDTH 9 0
BBX 7 9 2 0
BITMAP
1C
76
42
C6
FC
E0
80
C4
7C
ENDCHAR
STARTCHAR 0436
ENCODING 1078
SWIDTH 840 0
DWIDTH 14 0
BBX 15 9 1 0
BITMAP
318E
399C
1930
1920
1FE0
1B60
1260
3220
E638
ENDCHAR
STARTCHAR 0437
ENCODING 1079
SWIDTH 420 0
DWIDTH 7 0
BBX 7 9 1 0
BITMAP
3C
26
06
06
38
0C
04
0C
F8
ENDCHAR
STARTCHAR 0438
ENCODING 1080
SWIDTH 540 0
DWIDTH 9 0
BBX 8 9 2 0
BITMAP
63
43
42
C2
C6
86
84
CC
FE
ENDCHAR
STARTCHAR 0439
ENCODING 1081
SWIDTH 540 0
DWIDTH 9 0
BBX 8 12 2 0
BITMAP
12
1C
00
63
43
42
C2
C6
86
84
CC
FE
ENDCHAR
STARTCHAR 043A
ENCODING 1082
SWIDTH 540 0
DWIDTH 9 0
BBX 9 9 1 0
BITMAP
3180
3300
2600
2C00
7800
6C00
4400
4600
C300
ENDCHAR
STARTCHAR 043B
ENCODING 1083
SWIDTH 540 0
DWIDTH 9 0
BBX 10 9 0 0
BITMAP
0FC0
0FC0
08C0
0880
1880
1980
1180
3100
E100
ENDCHAR
STARTCHAR 043C
ENCODING 1084
SWIDTH 720 0
DWIDTH 12 0
BBX 11 9 1 0
BITMAP
1060
3860
38E0
29E0
6940
6A40
4E40
CC40
C0C0
ENDCHAR
STARTCHAR 043D
ENCODING 1085
SWIDTH 540 0
DWIDTH 9 0
BBX 9 9 1 0
BITMAP
3080
3180
2180
2100
7F00
6300
4300
4200
C200
ENDCHAR
STARTCHAR 043E
ENCODING 1086
SWIDTH 540 0
DWIDTH 9 0
BBX 8 9 2 0
BITMAP
1C
76
43
C3
82
82
86
CC
78
ENDCHAR
STARTCHAR 043F
ENCODING 1087
SWIDTH 540 0
DWIDTH 9 0
BBX 8 9 1 0
BITMAP
1E
3F
21
21
61
63
43
42
C2
ENDCHAR
STARTCHAR 0440
ENCODING 1088
SWIDTH 540 0
DWIDTH 9 0
BBX 8 12 1 -3
BITMAP
1E
33
21
21
61
63
43
4E
FC
C0
80
80
ENDCHAR
STARTCHAR 0441
ENCODING 1089
SWIDTH 480 0
DWIDTH 8 0
BBX 7 9 2 0
BITMAP
1E
74
40
C0
80
80
80
C0
78
ENDCHAR
STARTCHAR 0442
ENCODING 1090
SWIDTH 840 0
DWIDTH 14 0
BBX 13 9 1 0
BITMAP
1E70
3FF8
2318
2318
6318
6310
4210
4230
C630
ENDCHAR
STARTCHAR 0443
ENCODING 1091
SWIDTH 480 0
DWIDTH 8 0
BBX 10 12 -1 -3
BITMAP
1840
18C0
18C0
1880
0980
0900
0B00
0E00
0E00
0C00
1800
F000
ENDCHAR
STARTCHAR 0444
ENCODING 1092
SWIDTH 720 0
DWIDTH 12 0
BBX 10 16 2 -3
BITMAP
0300
0300
0200
0200
0F00
3FC0
4440
C440
8C40
8C40
88C0
C980
7F00
1800
1000
1000
ENDCHAR
STARTCHAR 0445
ENCODING 1093
SWIDTH 480 0
DWIDTH 8 0
BBX 8 9 1 0
BITMAP
63
22
36
1C
18
38
6C
44
86
ENDCHAR
STARTCHAR 0446
ENCODING 1094
SWIDTH 600 0
DWIDTH 10 0
BBX 8 11 2 -2
BITMAP
63
43
42
C2
C6
86
84
CE
FB
02
02
ENDCHAR
STARTCHAR 0447
ENCODING 1095
SWIDTH 540 0
DWIDTH 9 0
BBX 7 9 2 0
BITMAP
42
C6
C6
84
CC
7C
0C
0C
08
ENDCHAR
STARTCHAR 0448
ENCODING 1096
SWIDTH 840 0
DWIDTH 14 0
BBX 12 9 2 0
BITMAP
6310
4210
4230
C630
C630
8420
8420
CE60
7FA0
ENDCHAR
STARTCHAR 0449
ENCODING 1097
SWIDTH 840 0
DWIDTH 14 0
BBX 12 11 2 -2
BITMAP
6310
4210
4230
C630
C630
8420
8420
CE60
7FF0
0010
0030
ENDCHAR
STARTCHAR 044A
ENCODING 1098
SWIDTH 600 0
DWIDTH 10 0
BBX 8 9 2 0
BITMAP
F0
F0
30
2C
7E
63
63
42
FC
ENDCHAR
STARTCHAR 044B
ENCODING 1099
SWIDTH 720 0
DWIDTH 12 0
BBX 12 9 1 0
BITMAP
3010
3030
2030
2820
7E20
6360
4360
4640
FC40
ENDCHAR
STARTCHAR 044C
ENCODING 1100
SWIDTH 540 0
DWIDTH 9 0
BBX 8 9 1 0
BITMAP
30
30
20
28
7E
63
43
46
FC
ENDCHAR
STARTCHAR 044D
ENCODING 1101
SWIDTH 480 0
DWIDTH 8 0
BBX 7 9 1 0
BITMAP
78
6C
06
06
3E
06
04
0C
F8
ENDCHAR
STARTCHAR 044E
ENCODING 1102
SWIDTH 780 0
DWIDTH 13 0
BBX 12 9 1 0
BITMAP
30E0
33B0
2610
2610
7C10
6430
4420
4460
C7C0
ENDCHAR
STARTCHAR 044F
ENCODING 1103
SWIDTH 540 0
DWIDTH 9 0
BBX 8 9 1 0
BITMAP
0F
31
61
63
3F
3E
22
46
C6
ENDCHAR
STARTCHAR 0450
ENCODING 1104
SWIDTH 540 0
DWIDTH 9 0
BBX 7 13 2 0
BITMAP
08
08
04
00
1C
76
42
C6
FC
E0
80
C4
7C
ENDCHAR
STARTCHAR 0451
ENCODING 1105
SWIDTH 540 0
DWIDTH 9 0
BBX 8 12 2 0
BITMAP
1B
12
00
1C
76
42
C6
FC
E0
80
C4
7C
ENDCHAR
STARTCHAR 0452
ENCODING 1106
SWIDTH 540 0
DWIDTH 9 0
BBX 8 16 1 -3
BITMAP
18
18
3E
10
3E
3F
21
21
61
63
43
42
C2
06
06
1C
ENDCHAR
STARTCHAR 0453
ENCODING 1107
SWIDTH 420 0
DWIDTH 7 0
BBX 7 13 1 0
BITMAP
04
06
18
00
3C
26
06
06
3C
60
C0
C4
7C
ENDCHAR
STARTCHAR 0454
ENCODING 1108
SWIDTH 480 0
DWIDTH 8 0
BBX 7 9 2 0
BITMAP
1E
76
40
C0
F8
80
80
C4
7C
ENDCHAR
STARTCHAR 0455
ENCODING 1109
SWIDTH 420 0
DWIDTH 7 0
BBX 7 9 1 0
BITMAP
1E
36
60
60
38
0C
0C
8C
F8
ENDCHAR
STARTCHAR 0456
ENCODING 1110
SWIDTH 240 0
DWIDTH 4 0
BBX 5 12 1 0
BITMAP
18
10
00
30
30
20
20
60
60
40
40
C0
ENDCHAR
STARTCHAR 0457
ENCODING 1111
SWIDTH 240 0
DWIDTH 4 0
BBX 6 12 1 0
BITMAP
6C
64
00
30
30
20
20
60
60
40
40
C0
ENDCHAR
STARTCHAR 0458
ENCODING 1112
SWIDTH 240 0
DWIDTH 4 0
BBX 8 15 -2 -3
BITMAP
03
02
00
06
06
04
04
0C
0C
08
08
18
18
30
F0
ENDCHAR
STARTCHAR 0459
ENCODING 1113
SWIDTH 840 0
DWIDTH 14 0
BBX 14 9 0 0
BITMAP
0FC0
0FC0
08C0
08B0
18F8
198C
118C
3108
E1F0
ENDCHAR
STARTCHAR 045A
ENCODING 1114
SWIDTH 840 0
DWIDTH 14 0
BBX 13 9 1 0
BITMAP
3080
3180
2180
2160
7FF8
6318
4318
4210
C3F0
ENDCHAR
STARTCHAR 045B
ENCODING 1115
SWIDTH 540 0
DWIDTH 9 0
BBX 8 13 1 0
BITMAP
18
18
3E
10
3E
3F
21
21
61
63
43
42
C2
ENDCHAR
STARTCHAR 045C
ENCODING 1116
SWIDTH 540 0
DWIDTH 9 0
BBX 9 13 1 0
BITMAP
0100
0300
0600
0000
3180
3300
2600
2C00
7800
6C00
4400
4600
C300
ENDCHAR
STARTCHAR 045D
ENCODING 1117
SWIDTH 540 0
DWIDTH 9 0
BBX 8 13 2 0
BITMAP
08
08
04
00
63
43
42
C2
C6
86
84
CC
FE
ENDCHAR
STARTCHAR 045E
ENCODING 1118
SWIDTH 480 0
DWIDTH 8 0
BBX 10 15 -1 -3
BITMAP
04C0
0780
0000
1840
18C0
18C0
1880
0980
0900
0B00
0E00
0E00
0C00
1800
F000
ENDCHAR
STARTCHAR 045F
ENCODING 1119
SWIDTH 540 0
DWIDTH 9 0
BBX 8 12 2 -3
BITMAP
63
43
42
C2
C6
86
84
CC
FE
00
30
20
ENDCHAR
STARTCHAR 0462
ENCODING 1122
SWIDTH 720 0
DWIDTH 12 0
BBX 9 12 3 0
BITMAP
1800
FE00
3000
3000
3000
3F00
2180
6180
6180
4180
4700
FE00
ENDCHAR
STARTCHAR 0463
ENCODING 1123
SWIDTH 840 0
DWIDTH 14 0
BBX 13 9 1 0
BITMAP
1E00
3F00
2100
2160
61F0
6318
4318
4210
C3E0
ENDCHAR
STARTCHAR 0472
ENCODING 1138
SWIDTH 720 0
DWIDTH 12 0
BBX 11 12 2 0
BITMAP
0780
1FC0
3060
6060
4060
DC60
E7E0
C140
C0C0
C180
6380
3E00
ENDCHAR
STARTCHAR 0473
ENCODING 1139
SWIDTH 540 0
DWIDTH 9 0
BBX 8 9 2 0
BITMAP
1C
76
43
C3
FE
8A
86
CC
78
ENDCHAR
STARTCHAR 0474
ENCODING 1140
SWIDTH 720 0
DWIDTH 12 0
BBX 11 12 3 0
BITMAP
8060
C1E0
C180
C300
C200
C600
C400
4C00
5800
5000
7000
6000
ENDCHAR
STARTCHAR 0475
ENCODING 1141
SWIDTH 540 0
DWIDTH 9 0
BBX 9 9 2 0
BITMAP
C380
C280
C600
CC00
C800
5800
5000
7000
6000
ENDCHAR
STARTCHAR 048A
ENCODING 1162
SWIDTH 720 0
DWIDTH 12 0
BBX 12 18 1 -3
BITMAP
0260
03C0
0000
1810
1030
1070
30A0
3160
2260
2660
6C40
7840
70C0
60C0
C0E0
0040
00C0
0180
ENDCHAR
STARTCHAR 048B
ENCODING 1163
SWIDTH 600 0
DWIDTH 10 0
BBX 8 15 2 -3
BITMAP
12
1C
00
63
43
42
C2
C6
86
84
CE
FB
02
06
04
ENDCHAR
STARTCHAR 048C
ENCODING 1164
SWIDTH 600 0
DWIDTH 10 0
BBX 8 12 2 0
BITMAP
30
30
7C
20
60
7F
63
41
C1
C3
C6
FC
ENDCHAR
STARTCHAR 048D
ENCODING 1165
SWIDTH 540 0
DWIDTH 9 0
BBX 7 9 2 0
BITMAP
60
F8
60
40
FC
C6
C6
84
F8
ENDCHAR
STARTCHAR 048E
ENCODING 1166
SWIDTH 600 0
DWIDTH 10 0
BBX 10 12 1 0
BITMAP
0F00
1FC0
10C0
30C0
30C0
36C0
3F80
7E00
6300
6000
4000
C000
ENDCHAR
STARTCHAR 048F
ENCODING 1167
SWIDTH 540 0
DWIDTH 9 0
BBX 8 12 1 -3
BITMAP
1E
33
21
21
61
63
4B
4E
FC
C4
84
80
ENDCHAR
STARTCHAR 0490
ENCODING 1168
SWIDTH 480 0
DWIDTH 8 0
BBX 10 14 1 0
BITMAP
0040
00C0
1FC0
1F80
1000
3000
3000
3000
2000
6000
6000
6000
4000
C000
ENDCHAR
STARTCHAR 0491
ENCODING 1169
SWIDTH 420 0
DWIDTH 7 0
BBX 8 11 1 0
BITMAP
01
03
3F
3E
20
20
60
60
40
40
C0
ENDCHAR
STARTCHAR 0492
ENCODING 1170
SWIDTH 540 0
DWIDTH 9 0
BBX 9 12 2 0
BITMAP
3F80
3F80
3000
2000
6000
F800
F800
4000
C000
C000
C000
8000
ENDCHAR
STARTCHAR 0493
ENCODING 1171
SWIDTH 420 0
DWIDTH 7 0
BBX 7 9 1 0
BITMAP
3C
26
06
66
38
6C
C0
C4
7C
ENDCHAR
STARTCHAR 0494
ENCODING 1172
SWIDTH 600 0
DWIDTH 10 0
BBX 10 15 1 -3
BITMAP
1FC0
1F80
1000
3000
3000
3F00
2180
6180
6180
6180
4180
C180
0300
0600
1C00
ENDCHAR
STARTCHAR 0495
ENCODING 1173
SWIDTH 540 0
DWIDTH 9 0
BBX 8 12 1 -3
BITMAP
3F
3E
20
20
7E
62
43
42
C2
06
0C
38
ENDCHAR
STARTCHAR 0496
ENCODING 1174
SWIDTH 900 0
DWIDTH 15 0
BBX 16 15 1 -3
BITMAP
3083
1086
1988
09B0
0D60
07C0
0FC0
1B60
3260
6230
C610
861C
0008
0008
0018
ENDCHAR
STARTCHAR 0497
ENCODING 1175
SWIDTH 840 0
DWIDTH 14 0
BBX 15 11 1 -2
BITMAP
318E
399C
1930
1920
1FE0
1B60
1260
3220
E638
0008
0018
ENDCHAR
STARTCHAR 0498
ENCODING 1176
SWIDTH 540 0
DWIDTH 9 0
BBX 9 15 1 -3
BITMAP
0E00
1F80
0180
0180
0100
1E00
1F00
0300
0300
0300
8600
FC00
1000
1000
7000
ENDCHAR
STARTCHAR 0499
ENCODING 1177
SWIDTH 420 0
DWIDTH 7 0
BBX 7 12 1 -3
BITMAP
3C
26
06
06
38
0C
04
0C
F8
20
20
E0
ENDCHAR
STARTCHAR 049A
ENCODING 1178
SWIDTH 660 0
DWIDTH 11 0
BBX 11 15 1 -3
BITMAP
1860
10C0
1180
3300
3600
3C00
3C00
6C00
6600
6300
4100
C1C0
0080
0080
0180
ENDCHAR
STARTCHAR 049B
ENCODING 1179
SWIDTH 540 0
DWIDTH 9 0
BBX 9 11 1 -2
BITMAP
3180
3300
2600
2C00
7800
6C00
4400
4600
C300
0300
0300
ENDCHAR
STARTCHAR 049C
ENCODING 1180
SWIDTH 660 0
DWIDTH 11 0
BBX 12 12 1 0
BITMAP
1830
1060
1040
3480
3500
3E00
3E00
6B00
6900
6180
4080
C0C0
ENDCHAR
STARTCHAR 049D
ENCODING 1181
SWIDTH 600 0
DWIDTH 10 0
BBX 10 9 1 0
BITMAP
30C0
3180
2D00
2A00
7C00
6E00
5B00
4100
C180
ENDCHAR
STARTCHAR 049E
ENCODING 1182
SWIDTH 660 0
DWIDTH 11 0
BBX 11 12 2 0
BITMAP
3060
30C0
7B00
2600
6C00
7800
7800
4C00
CC00
C600
C300
8300
ENDCHAR
STARTCHAR 049F
ENCODING 1183
SWIDTH 540 0
DWIDTH 9 0
BBX 8 9 2 0
BITMAP
61
F2
6C
58
70
D8
CC
84
86
ENDCHAR
STARTCHAR 04A0
ENCODING 1184
SWIDTH 720 0
DWIDTH 12 0
BBX 11 12 3 0
BITMAP
F860
F0C0
3180
3300
3600
3800
7800
6C00
6600
4300
C300
C180
ENDCHAR
STARTCHAR 04A1
ENCODING 1185
SWIDTH 600 0
DWIDTH 10 0
BBX 9 9 2 0
BITMAP
F180
F300
3600
2C00
7800
6C00
6600
4600
C300
ENDCHAR
STARTCHAR 04A2
ENCODING 1186
SWIDTH 720 0
DWIDTH 12 0
BBX 12 15 1 -3
BITMAP
1830
1020
1020
3060
3060
3FC0
3FC0
60C0
60C0
60C0
4080
C1C0
0040
0040
00C0
ENDCHAR
STARTCHAR 04A3
ENCODING 1187
SWIDTH 600 0
DWIDTH 10 0
BBX 9 11 1 -2
BITMAP
3080
3180
2180
2100
7F00
6300
4300
4200
C300
0100
0300
ENDCHAR
STARTCHAR 04A4
ENCODING 1188
SWIDTH 780 0
DWIDTH 13 0
BBX 15 12 1 0
BITMAP
183E
103C
1020
3060
3060
3FC0
3FC0
60C0
60C0
60C0
4080
C180
ENDCHAR
STARTCHAR 04A5
ENCODING 1189
SWIDTH 660 0
DWIDTH 11 0
BBX 11 9 1 0
BITMAP
30E0
31E0
2180
2100
7F00
6300
4300
4200
C200
ENDCHAR
STARTCHAR 04A6
ENCODING 1190
SWIDTH 1020 0
DWIDTH 17 0
BBX 16 15 1 -3
BITMAP
1FE0
1FE0
1060
3060
3040
30FE
20C6
60C3
6083
6183
4182
C186
0006
001C
0078
ENDCHAR
STARTCHAR 04A7
ENCODING 1191
SWIDTH 840 0
DWIDTH 14 0
BBX 13 12 1 -3
BITMAP
1E00
3F00
2100
2100
61F0
6318
4318
4218
C210
0030
0060
01C0
ENDCHAR
STARTCHAR 04A8
ENCODING 1192
SWIDTH 780 0
DWIDTH 13 0
BBX 11 15 2 -3
BITMAP
0780
1F80
3000
61C0
63E0
C660
C420
CC60
CC60
C8C0
6980
3F00
0C00
0600
0380
ENDCHAR
STARTCHAR 04A9
ENCODING 1193
SWIDTH 600 0
DWIDTH 10 0
BBX 8 11 2 -2
BITMAP
1C
70
46
CF
99
91
93
D6
7C
10
0C
ENDCHAR
STARTCHAR 04AA
ENCODING 1194
SWIDTH 600 0
DWIDTH 10 0
BBX 10 15 2 -3
BITMAP
0780
1FC0
3000
6000
4000
C000
C000
C000
C000
C000
6100
3F00
1000
1800
3800
ENDCHAR
STARTCHAR 04AB
ENCODING 1195
SWIDTH 480 0
DWIDTH 8 0
BBX 7 12 2 -3
BITMAP
1E
74
40
C0
80
80
80
C0
78
20
20
E0
ENDCHAR
STARTCHAR 04AC
ENCODING 1196
SWIDTH 540 0
DWIDTH 9 0
BBX 9 15 3 -3
BITMAP
FF80
FF00
1800
1000
1000
3000
3000
2000
2000
6000
6000
7000
3000
2000
2000
ENDCHAR
STARTCHAR 04AD
ENCODING 1197
SWIDTH 840 0
DWIDTH 14 0
BBX 13 11 1 -2
BITMAP
1E70
3FF8
2318
2318
6318
6310
4210
4230
C638
0018
0010
ENDCHAR
STARTCHAR 04AE
ENCODING 1198
SWIDTH 600 0
DWIDTH 10 0
BBX 9 12 3 0
BITMAP
8180
C100
C300
4600
6C00
7800
3000
3000
2000
6000
6000
6000
ENDCHAR
STARTCHAR 04AF
ENCODING 1199
SWIDTH 480 0
DWIDTH 8 0
BBX 8 12 2 -3
BITMAP
C3
C2
C6
C4
CC
48
50
70
60
60
40
40
ENDCHAR
STARTCHAR 04B0
ENCODING 1200
SWIDTH 600 0
DWIDTH 10 0
BBX 9 12 3 0
BITMAP
8180
C100
C300
4600
6C00
7800
3000
FC00
2000
6000
6000
6000
ENDCHAR
STARTCHAR 04B1
ENCODING 1201
SWIDTH 480 0
DWIDTH 8 0
BBX 9 12 1 -3
BITMAP
6180
6100
6300
6200
6600
2400
2800
3800
FC00
3000
2000
2000
ENDCHAR
STARTCHAR 04B2
ENCODING 1202
SWIDTH 660 0
DWIDTH 11 0
BBX 11 15 1 -3
BITMAP
3060
10C0
1880
0980
0F00
0E00
0E00
1E00
3300
6300
4100
C1C0
0080
0080
0180
ENDCHAR
STARTCHAR 04B3
ENCODING 1203
SWIDTH 540 0
DWIDTH 9 0
BBX 8 11 1 -2
BITMAP
63
22
36
1C
18
38
6C
44
86
02
06
ENDCHAR
STARTCHAR 04B4
ENCODING 1204
SWIDTH 840 0
DWIDTH 14 0
BBX 12 15 3 -3
BITMAP
FF30
FF20
1020
3060
3060
3060
2040
20C0
60C0
60C0
4080
7FE0
0040
0040
00C0
ENDCHAR
STARTCHAR 04B5
ENCODING 1205
SWIDTH 660 0
DWIDTH 11 0
BBX 9 11 2 -2
BITMAP
FC80
FC80
2180
2180
6100
6100
6300
6300
3D80
0180
0180
ENDCHAR
STARTCHAR 04B6
ENCODING 1206
SWIDTH 660 0
DWIDTH 11 0
BBX 8 15 3 -3
BITMAP
41
C1
C3
C3
83
82
EE
7E
06
04
0C
0E
02
06
06
ENDCHAR
STARTCHAR 04B7
ENCODING 1207
SWIDTH 540 0
DWIDTH 9 0
BBX 7 11 2 -2
BITMAP
42
C6
C6
84
CC
7C
0C
0C
0C
04
0C
ENDCHAR
STARTCHAR 04B8
ENCODING 1208
SWIDTH 600 0
DWIDTH 10 0
BBX 9 12 3 0
BITMAP
4180
C100
C100
C300
9300
9200
D600
7E00
2600
2400
0400
0C00
ENDCHAR
STARTCHAR 04B9
ENCODING 1209
SWIDTH 540 0
DWIDTH 9 0
BBX 7 9 2 0
BITMAP
42
C2
C6
96
F4
7C
2C
0C
08
ENDCHAR
STARTCHAR 04BA
ENCODING 1210
SWIDTH 600 0
DWIDTH 10 0
BBX 9 12 1 0
BITMAP
1800
1000
1000
3000
3E00
3F80
2180
6080
6080
6180
4180
C100
ENDCHAR
STARTCHAR 04BB
ENCODING 1211
SWIDTH 540 0
DWIDTH 9 0
BBX 8 13 1 0
BITMAP
18
18
10
10
3E
3F
21
21
61
63
43
42
C2
ENDCHAR
STARTCHAR 04BC
ENCODING 1212
SWIDTH 840 0
DWIDTH 14 0
BBX 12 12 2 0
BITMAP
01E0
07F0
0C10
D810
9810
FFF0
3FF0
3000
3000
3000
1840
0FC0
ENDCHAR
STARTCHAR 04BD
ENCODING 1213
SWIDTH 600 0
DWIDTH 10 0
BBX 9 9 2 0
BITMAP
0700
1D80
B080
B180
FF00
3800
2000
3100
1F00
ENDCHAR
STARTCHAR 04BE
ENCODING 1214
SWIDTH 840 0
DWIDTH 14 0
BBX 12 15 2 -3
BITMAP
01E0
07F0
0C10
D810
9810
FFF0
3FF0
3000
3000
3000
1840
0FC0
0600
0600
0400
ENDCHAR
STARTCHAR 04BF
ENCODING 1215
SWIDTH 600 0
DWIDTH 10 0
BBX 9 11 2 -2
BITMAP
0700
1D80
B080
B180
FF00
3800
2000
3100
1F00
0800
0800
ENDCHAR
STARTCHAR 04C0
ENCODING 1216
SWIDTH 240 0
DWIDTH 4 0
BBX 5 12 1 0
BITMAP
18
10
10
30
30
30
20
60
60
60
40
C0
ENDCHAR
STARTCHAR 04C1
ENCODING 1217
SWIDTH 840 0
DWIDTH 14 0
BBX 16 15 1 0
BITMAP
0130
01E0
0000
3083
1086
1988
09B0
0D60
07C0
0FC0
1B60
3260
6230
C610
8618
ENDCHAR
STARTCHAR 04C2
ENCODING 1218
SWIDTH 840 0
DWIDTH 14 0
BBX 15 12 1 0
BITMAP
0360
01C0
0000
318E
399C
1930
1920
1FE0
1B60
1260
3220
E638
ENDCHAR
STARTCHAR 04C3
ENCODING 1219
SWIDTH 600 0
DWIDTH 10 0
BBX 11 15 1 -3
BITMAP
1860
10C0
1180
3300
3600
2C00
3F00
6180
6180
4180
4180
C180
0300
0600
1C00
ENDCHAR
STARTCHAR 04C4
ENCODING 1220
SWIDTH 540 0
DWIDTH 9 0
BBX 9 12 1 -3
BITMAP
3180
3300
2600
2C00
7C00
6600
4200
4200
C200
0600
0C00
3800
ENDCHAR
STARTCHAR 04C5
ENCODING 1221
SWIDTH 660 0
DWIDTH 11 0
BBX 12 15 0 -3
BITMAP
03F0
03F0
0230
0630
0620
0420
0C60
0C60
0840
1840
70C0
E0E0
0060
00C0
0080
ENDCHAR
STARTCHAR 04C6
ENCODING 1222
SWIDTH 600 0
DWIDTH 10 0
BBX 10 12 0 -3
BITMAP
0FC0
0FC0
08C0
0880
1880
1980
1180
3100
E1C0
0080
0180
0100
ENDCHAR
STARTCHAR 04C7
ENCODING 1223
SWIDTH 660 0
DWIDTH 11 0
BBX 12 15 1 -3
BITMAP
1830
1020
1020
3060
3060
3FC0
3FC0
60C0
60C0
60C0
4080
C180
0180
0100
0700
ENDCHAR
STARTCHAR 04C8
ENCODING 1224
SWIDTH 540 0
DWIDTH 9 0
BBX 9 12 1 -3
BITMAP
3080
3180
2180
2100
7F00
6300
4300
4200
C200
0600
0600
1C00
ENDCHAR
STARTCHAR 04C9
ENCODING 1225
SWIDTH 720 0
DWIDTH 12 0
BBX 12 15 1 -3
BITMAP
1830
1020
1020
3060
3060
3FC0
3FC0
60C0
60C0
60C0
4080
C1C0
00C0
0080
0180
ENDCHAR
STARTCHAR 04CA
ENCODING 1226
SWIDTH 600 0
DWIDTH 10 0
BBX 9 12 1 -3
BITMAP
3080
3180
2180
2100
7F00
6300
4300
4200
C380
0100
0300
0200
ENDCHAR
STARTCHAR 04CB
ENCODING 1227
SWIDTH 600 0
DWIDTH 10 0
BBX 8 15 3 -3
BITMAP
41
C1
C3
C3
83
82
EE
7E
06
04
0C
1C
10
30
30
ENDCHAR
STARTCHAR 04CC
ENCODING 1228
SWIDTH 540 0
DWIDTH 9 0
BBX 7 11 2 -2
BITMAP
42
C6
C6
84
CC
7C
0C
0C
18
30
20
ENDCHAR
STARTCHAR 04CD
ENCODING 1229
SWIDTH 900 0
DWIDTH 15 0
BBX 14 15 1 -3
BITMAP
080C
180C
1C1C
1C38
3468
3448
24D8
6798
6718
4310
C010
C01C
0008
0018
0030
ENDCHAR
STARTCHAR 04CE
ENCODING 1230
SWIDTH 720 0
DWIDTH 12 0
BBX 11 12 1 -3
BITMAP
1060
3860
38E0
29E0
6960
6A40
4E40
CC40
C0E0
0060
0040
0080
ENDCHAR
STARTCHAR 04CF
ENCODING 1231
SWIDTH 240 0
DWIDTH 4 0
BBX 5 12 1 0
BITMAP
18
10
10
30
30
20
20
60
60
40
40
C0
ENDCHAR
STARTCHAR 04D0
ENCODING 1232
SWIDTH 660 0
DWIDTH 11 0
BBX 11 15 0 0
BITMAP
0220
03C0
0000
0180
0180
0380
0680
04C0
0CC0
18C0
10C0
3FC0
2040
6040
C040
ENDCHAR
STARTCHAR 04D1
ENCODING 1233
SWIDTH 540 0
DWIDTH 9 0
BBX 8 12 2 0
BITMAP
13
0E
00
1F
3B
62
C6
86
86
84
CC
FC
ENDCHAR
STARTCHAR 04D2
ENCODING 1234
SWIDTH 660 0
DWIDTH 11 0
BBX 11 15 0 0
BITMAP
0320
0360
0000
0180
0180
0380
0680
04C0
0CC0
18C0
10C0
3FC0
2040
6040
C040
ENDCHAR
STARTCHAR 04D3
ENCODING 1235
SWIDTH 540 0
DWIDTH 9 0
BBX 8 12 2 0
BITMAP
1B
12
00
1F
3B
62
C6
86
86
84
CC
FC
ENDCHAR
STARTCHAR 04D4
ENCODING 1236
SWIDTH 900 0
DWIDTH 15 0
BBX 17 12 0 0
BITMAP
003F80
007F80
00F000
01A000
032000
067E00
0C7E00
184000
1FC000
30C000
60C000
C0FE00
ENDCHAR
STARTCHAR 04D5
ENCODING 1237
SWIDTH 840 0
DWIDTH 14 0
BBX 13 9 2 0
BITMAP
38F0
7FB0
0718
0210
7FF0
C780
8600
8E00
FBE0
ENDCHAR
STARTCHAR 04D6
ENCODING 1238
SWIDTH 540 0
DWIDTH 9 0
BBX 10 15 1 0
BITMAP
04C0
0780
0000
1FC0
1FC0
1000
3000
3000
3F00
3F00
6000
6000
6000
4000
FF00
ENDCHAR
STARTCHAR 04D7
ENCODING 1239
SWIDTH 540 0
DWIDTH 9 0
BBX 8 12 2 0
BITMAP
13
1E
00
1C
76
42
C6
FC
E0
80
C4
7C
ENDCHAR
STARTCHAR 04D8
ENCODING 1240
SWIDTH 660 0
DWIDTH 11 0
BBX 10 12 2 0
BITMAP
1F00
3F80
00C0
00C0
00C0
00C0
FFC0
C0C0
C180
C180
C700
7E00
ENDCHAR
STARTCHAR 04D9
ENCODING 1241
SWIDTH 540 0
DWIDTH 9 0
BBX 8 9 1 0
BITMAP
3C
37
03
03
3F
63
C2
CE
78
ENDCHAR
STARTCHAR 04DA
ENCODING 1242
SWIDTH 660 0
DWIDTH 11 0
BBX 10 15 2 0
BITMAP
0C80
0D80
0000
1F00
3F80
00C0
00C0
00C0
00C0
FFC0
C0C0
C180
C180
C700
7E00
ENDCHAR
STARTCHAR 04DB
ENCODING 1243
SWIDTH 540 0
DWIDTH 9 0
BBX 8 12 1 0
BITMAP
1B
19
00
3C
37
03
03
3F
63
C2
CE
78
ENDCHAR
STARTCHAR 04DC
ENCODING 1244
SWIDTH 840 0
DWIDTH 14 0
BBX 16 15 1 0
BITMAP
0130
0130
0000
3083
1086
1988
09B0
0D60
07C0
0FC0
1B60
3260
6230
C610
8618
ENDCHAR
STARTCHAR 04DD
ENCODING 1245
SWIDTH 840 0
DWIDTH 14 0
BBX 15 12 1 0
BITMAP
0360
0320
0000
318E
399C
1930
1920
1FE0
1B60
1260
3220
E638
ENDCHAR
STARTCHAR 04DE
ENCODING 1246
SWIDTH 540 0
DWIDTH 9 0
BBX 9 15 1 0
BITMAP
0D80
0D80
0000
0E00
1F80
0180
0180
0100
1E00
1F00
0300
0300
0300
8600
FC00
ENDCHAR
STARTCHAR 04DF
ENCODING 1247
SWIDTH 420 0
DWIDTH 7 0
BBX 8 12 1 0
BITMAP
1B
12
00
3C
26
06
06
38
0C
04
0C
F8
ENDCHAR
STARTCHAR 04E0
ENCODING 1248
SWIDTH 540 0
DWIDTH 9 0
BBX 10 12 1 0
BITMAP
1FC0
3F80
0180
0200
0400
1C00
0F00
0300
0300
0300
8600
FC00
ENDCHAR
STARTCHAR 04E1
ENCODING 1249
SWIDTH 420 0
DWIDTH 7 0
BBX 8 12 0 -3
BITMAP
3F
3F
02
04
18
18
0E
06
06
06
8C
F8
ENDCHAR
STARTCHAR 04E2
ENCODING 1250
SWIDTH 720 0
DWIDTH 12 0
BBX 12 14 1 0
BITMAP
03C0
0000
1810
1030
1070
30A0
3160
2260
2660
6C40
7840
70C0
60C0
C080
ENDCHAR
STARTCHAR 04E3
ENCODING 1251
SWIDTH 540 0
DWIDTH 9 0
BBX 8 12 2 0
BITMAP
1F
00
00
63
43
42
C2
C6
86
84
CC
FE
ENDCHAR
STARTCHAR 04E4
ENCODING 1252
SWIDTH 720 0
DWIDTH 12 0
BBX 12 15 1 0
BITMAP
0260
0260
0000
1810
1030
1070
30A0
3160
2260
2660
6C40
7840
70C0
60C0
C080
ENDCHAR
STARTCHAR 04E5
ENCODING 1253
SWIDTH 540 0
DWIDTH 9 0
BBX 8 12 2 0
BITMAP
1B
12
00
63
43
42
C2
C6
86
84
CC
FE
ENDCHAR
STARTCHAR 04E6
ENCODING 1254
SWIDTH 720 0
DWIDTH 12 0
BBX 11 15 2 0
BITMAP
06C0
06C0
0000
0780
1FC0
3060
6060
4060
C060
C060
C040
C0C0
C180
6380
3E00
ENDCHAR
STARTCHAR 04E7
ENCODING 1255
SWIDTH 540 0
DWIDTH 9 0
BBX 8 12 2 0
BITMAP
1B
12
00
1C
76
43
C3
82
82
86
CC
78
ENDCHAR
STARTCHAR 04E8
ENCODING 1256
SWIDTH 720 0
DWIDTH 12 0
BBX 11 12 2 0
BITMAP
0780
1FC0
3060
6060
4060
C060
FFE0
C040
C0C0
C180
6380
3E00
ENDCHAR
STARTCHAR 04E9
ENCODING 1257
SWIDTH 540 0
DWIDTH 9 0
BBX 8 9 2 0
BITMAP
1C
76
43
C3
FE
82
86
CC
78
ENDCHAR
STARTCHAR 04EA
ENCODING 1258
SWIDTH 720 0
DWIDTH 12 0
BBX 11 15 2 0
BITMAP
06C0
06C0
0000
0780
1FC0
3060
6060
4060
C060
FFE0
C040
C0C0
C180
6380
3E00
ENDCHAR
STARTCHAR 04EB
ENCODING 1259
SWIDTH 540 0
DWIDTH 9 0
BBX 8 12 2 0
BITMAP
1B
12
00
1C
76
43
C3
FE
82
86
CC
78
ENDCHAR
STARTCHAR 04EC
ENCODING 1260
SWIDTH 600 0
DWIDTH 10 0
BBX 10 15 1 0
BITMAP
0900
1900
0000
1E00
3F80
0180
0080
00C0
1F80
1F80
0180
0180
0300
8600
FC00
ENDCHAR
STARTCHAR 04ED
ENCODING 1261
SWIDTH 480 0
DWIDTH 8 0
BBX 7 12 1 0
BITMAP
36
32
00
78
6C
06
06
3E
06
04
0C
F8
ENDCHAR
STARTCHAR 04EE
ENCODING 1262
SWIDTH 540 0
DWIDTH 9 0
BBX 11 14 1 0
BITMAP
0F80
0000
3060
30C0
30C0
3180
1180
1B00
1A00
0E00
0C00
0800
1800
E000
ENDCHAR
STARTCHAR 04EF
ENCODING 1263
SWIDTH 480 0
DWIDTH 8 0
BBX 10 15 -1 -3
BITMAP
07C0
0000
0000
1840
18C0
18C0
1880
0980
0900
0B00
0E00
0E00
0C00
1800
F000
ENDCHAR
STARTCHAR 04F0
ENCODING 1264
SWIDTH 540 0
DWIDTH 9 0
BBX 11 15 1 0
BITMAP
0480
0D80
0000
3060
30C0
30C0
3180
1180
1B00
1A00
0E00
0C00
0800
1800
E000
ENDCHAR
STARTCHAR 04F1
ENCODING 1265
SWIDTH 480 0
DWIDTH 8 0
BBX 10 15 -1 -3
BITMAP
06C0
0480
0000
1840
18C0
18C0
1880
0980
0900
0B00
0E00
0E00
0C00
1800
F000
ENDCHAR
STARTCHAR 04F2
ENCODING 1266
SWIDTH 540 0
DWIDTH 9 0
BBX 11 15 1 1
BITMAP
0360
0680
0000
3060
30C0
30C0
3180
1180
1B00
1A00
0E00
0C00
0800
1800
E000
ENDCHAR
STARTCHAR 04F3
ENCODING 1267
SWIDTH 480 0
DWIDTH 8 0
BBX 11 16 -1 -3
BITMAP
0120
0360
0680
0000
1840
18C0
18C0
1880
0980
0900
0B00
0E00
0E00
0C00
1800
F000
ENDCHAR
STARTCHAR 04F4
ENCODING 1268
SWIDTH 600 0
DWIDTH 10 0
BBX 8 15 3 0
BITMAP
13
13
00
41
C1
C3
C3
83
82
EE
7E
06
04
0C
0C
ENDCHAR
STARTCHAR 04F5
ENCODING 1269
SWIDTH 540 0
DWIDTH 9 0
BBX 7 12 2 0
BITMAP
36
26
00
42
C6
C6
84
CC
7C
0C
0C
08
ENDCHAR
STARTCHAR 04F6
ENCODING 1270
SWIDTH 480 0
DWIDTH 8 0
BBX 10 15 1 -3
BITMAP
1FC0
1F80
1000
3000
3000
3000
2000
6000
6000
6000
4000
F000
2000
2000
6000
ENDCHAR
STARTCHAR 04F7
ENCODING 1271
SWIDTH 420 0
DWIDTH 7 0
BBX 7 11 1 -2
BITMAP
3C
26
06
06
3C
60
C0
C0
7C
08
08
ENDCHAR
STARTCHAR 04F8
ENCODING 1272
SWIDTH 840 0
DWIDTH 14 0
BBX 14 15 1 0
BITMAP
0130
0130
0000
1804
100C
100C
3008
3008
3F18
2198
6190
6190
61B0
4730
FE20
ENDCHAR
STARTCHAR 04F9
ENCODING 1273
SWIDTH 720 0
DWIDTH 12 0
BBX 12 12 1 0
BITMAP
0640
0240
0000
3010
3030
2030
2820
7E20
6360
4360
4640
FC40
ENDCHAR
STARTCHAR 1E80
ENCODING 7808
SWIDTH 900 0
DWIDTH 15 0
BBX 14 15 3 1
BITMAP
0300
0100
0000
C004
C00C
C30C
C718
C718
CF10
C930
D920
F160
E140
E1C0
C180
ENDCHAR
STARTCHAR 1E81
ENCODING 7809
SWIDTH 780 0
DWIDTH 13 0
BBX 13 12 2 1
BITMAP
0600
0100
0000
C218
C610
C630
CE20
CA60
5A40
52C0
6380
6300
ENDCHAR
STARTCHAR 1E82
ENCODING 7810
SWIDTH 900 0
DWIDTH 15 0
BBX 14 15 3 1
BITMAP
00C0
0180
0000
C004
C00C
C30C
C718
C718
CF10
C930
D920
F160
E140
E1C0
C180
ENDCHAR
STARTCHAR 1E83
ENCODING 7811
SWIDTH 780 0
DWIDTH 13 0
BBX 13 13 2 0
BITMAP
0100
0180
0200
0000
C218
C610
C630
CE20
CA60
5A40
52C0
6380
6300
ENDCHAR
STARTCHAR 1E84
ENCODING 7812
SWIDTH 900 0
DWIDTH 15 0
BBX 14 15 3 0
BITMAP
0240
06C0
0000
C004
C00C
C30C
C718
C718
CF10
C930
D920
F160
E140
E1C0
C180
ENDCHAR
STARTCHAR 1E85
ENCODING 7813
SWIDTH 780 0
DWIDTH 13 0
BBX 13 12 2 0
BITMAP
04C0
0480
0000
C218
C610
C630
CE20
CA60
5A40
52C0
6380
6300
ENDCHAR
STARTCHAR 1EF2
ENCODING 7922
SWIDTH 600 0
DWIDTH 10 0
BBX 9 15 3 1
BITMAP
1800
0C00
0400
8180
C100
C300
4600
6C00
7800
3000
3000
2000
6000
6000
6000
ENDCHAR
STARTCHAR 1EF3
ENCODING 7923
SWIDTH 480 0
DWIDTH 8 0
BBX 10 16 -1 -3
BITMAP
0200
0300
0100
0000
1840
18C0
18C0
1880
0980
0900
0B00
0E00
0E00
0C00
1800
F000
ENDCHAR
STARTCHAR 1F00
ENCODING 7936
SWIDTH 540 0
DWIDTH 9 0
BBX 8 13 2 0
BITMAP
06
06
0C
00
1F
3B
62
C6
86
84
84
CC
FE
ENDCHAR
STARTCHAR 1F01
ENCODING 7937
SWIDTH 540 0
DWIDTH 9 0
BBX 8 13 2 0
BITMAP
0C
0C
04
00
1F
3B
62
C6
86
84
84
CC
FE
ENDCHAR
STARTCHAR 1F02
ENCODING 7938
SWIDTH 540 0
DWIDTH 9 0
BBX 8 13 2 0
BITMAP
1A
1A
11
00
1F
3B
62
C6
86
84
84
CC
FE
ENDCHAR
STARTCHAR 1F03
ENCODING 7939
SWIDTH 540 0
DWIDTH 9 0
BBX 8 13 2 0
BITMAP
14
16
12
00
1F
3B
62
C6
86
84
84
CC
FE
ENDCHAR
STARTCHAR 1F04
ENCODING 7940
SWIDTH 540 0
DWIDTH 9 0
BBX 8 13 2 0
BITMAP
0D
0F
1A
00
1F
3B
62
C6
86
84
84
CC
FE
ENDCHAR
STARTCHAR 1F05
ENCODING 7941
SWIDTH 540 0
DWIDTH 9 0
BBX 8 13 2 0
BITMAP
19
13
16
00
1F
3B
62
C6
86
84
84
CC
FE
ENDCHAR
STARTCHAR 1F06
ENCODING 7942
SWIDTH 540 0
DWIDTH 9 0
BBX 8 15 2 0
BITMAP
06
09
04
04
0C
00
1F
3B
62
C6
86
84
84
CC
FE
ENDCHAR
STARTCHAR 1F07
ENCODING 7943
SWIDTH 540 0
DWIDTH 9 0
BBX 8 15 2 0
BITMAP
06
09
04
04
04
00
1F
3B
62
C6
86
84
84
CC
FE
ENDCHAR
STARTCHAR 1F08
ENCODING 7944
SWIDTH 660 0
DWIDTH 11 0
BBX 10 12 0 0
BITMAP
0980
0D80
0B80
1680
04C0
0CC0
18C0
10C0
3FC0
2040
6040
C040
ENDCHAR
STARTCHAR 1F09
ENCODING 7945
SWIDTH 660 0
DWIDTH 11 0
BBX 10 12 0 0
BITMAP
1980
1980
1380
0680
04C0
0CC0
18C0
10C0
3FC0
2040
6040
C040
ENDCHAR
STARTCHAR 1F0A
ENCODING 7946
SWIDTH 780 0
DWIDTH 13 0
BBX 10 12 2 0
BITMAP
D180
D180
9B80
0680
04C0
0CC0
18C0
10C0
3FC0
2040
6040
C040
ENDCHAR
STARTCHAR 1F0B
ENCODING 7947
SWIDTH 720 0
DWIDTH 12 0
BBX 10 12 2 0
BITMAP
D180
D380
9380
0680
0C80
0880
18C0
30C0
3FC0
60C0
40C0
C040
ENDCHAR
STARTCHAR 1F0C
ENCODING 7948
SWIDTH 720 0
DWIDTH 12 0
BBX 10 12 2 0
BITMAP
CB00
DB00
B700
0D80
0D80
1980
1080
3080
7F80
6080
C0C0
80C0
ENDCHAR
STARTCHAR 1F0D
ENCODING 7949
SWIDTH 720 0
DWIDTH 12 0
BBX 10 12 2 0
BITMAP
C900
DB00
B780
0580
0D80
1880
1080
3080
3FC0
60C0
C0C0
C0C0
ENDCHAR
STARTCHAR 1F0E
ENCODING 7950
SWIDTH 660 0
DWIDTH 11 0
BBX 10 13 1 0
BITMAP
3800
4B00
3300
3700
2D80
0980
1980
1180
3080
7F80
4080
C0C0
80C0
ENDCHAR
STARTCHAR 1F0F
ENCODING 7951
SWIDTH 660 0
DWIDTH 11 0
BBX 10 13 1 0
BITMAP
3800
4900
3300
3780
3580
0D80
1880
1080
3080
3FC0
60C0
C0C0
C0C0
ENDCHAR
STARTCHAR 1F10
ENCODING 7952
SWIDTH 480 0
DWIDTH 8 0
BBX 8 13 1 0
BITMAP
06
06
04
00
1F
32
60
20
38
40
C0
C0
7E
ENDCHAR
STARTCHAR 1F11
ENCODING 7953
SWIDTH 480 0
DWIDTH 8 0
BBX 8 13 1 0
BITMAP
06
04
04
00
1F
32
60
20
38
40
C0
C0
7E
ENDCHAR
STARTCHAR 1F12
ENCODING 7954
SWIDTH 480 0
DWIDTH 8 0
BBX 8 13 1 0
BITMAP
0F
09
19
00
1F
32
60
20
38
40
C0
C0
7E
ENDCHAR
STARTCHAR 1F13
ENCODING 7955
SWIDTH 480 0
DWIDTH 8 0
BBX 8 13 1 0
BITMAP
1E
12
13
00
1F
32
60
20
38
40
C0
C0
7E
ENDCHAR
STARTCHAR 1F14
ENCODING 7956
SWIDTH 480 0
DWIDTH 8 0
BBX 9 13 1 0
BITMAP
0C80
0D80
0B00
0000
1F00
3200
6000
2000
3800
4000
C000
C000
7E00
ENDCHAR
STARTCHAR 1F15
ENCODING 7957
SWIDTH 480 0
DWIDTH 8 0
BBX 8 13 1 0
BITMAP
19
1B
0A
00
1F
32
60
20
38
40
C0
C0
7E
ENDCHAR
STARTCHAR 1F18
ENCODING 7960
SWIDTH 600 0
DWIDTH 10 0
BBX 10 12 2 0
BITMAP
5FC0
DFC0
9000
3000
3000
3F00
3F00
6000
6000
6000
4000
7F00
ENDCHAR
STARTCHAR 1F19
ENCODING 7961
SWIDTH 600 0
DWIDTH 10 0
BBX 10 12 2 0
BITMAP
DFC0
DFC0
9000
3000
3000
3F00
3F00
6000
6000
6000
4000
FF00
ENDCHAR
STARTCHAR 1F1A
ENCODING 7962
SWIDTH 780 0
DWIDTH 13 0
BBX 13 12 2 0
BITMAP
D3F8
D3F8
9A00
0600
0600
07E0
07E0
0C00
0C00
0C00
0800
1FE0
ENDCHAR
STARTCHAR 1F1B
ENCODING 7963
SWIDTH 780 0
DWIDTH 13 0
BBX 13 12 2 0
BITMAP
D3F8
D3F0
9600
0600
0600
07E0
0FE0
0C00
0C00
0800
1800
1FC0
ENDCHAR
STARTCHAR 1F1C
ENCODING 7964
SWIDTH 780 0
DWIDTH 13 0
BBX 13 12 2 0
BITMAP
CBF8
DBF0
B600
0600
0400
07E0
0FE0
0C00
0C00
0800
1800
1FC0
ENDCHAR
STARTCHAR 1F1D
ENCODING 7965
SWIDTH 780 0
DWIDTH 13 0
BBX 13 12 2 0
BITMAP
CBF8
DBF8
B200
0600
0600
07E0
07E0
0C00
0C00
0800
0800
1FE0
ENDCHAR
STARTCHAR 1F20
ENCODING 7968
SWIDTH 540 0
DWIDTH 9 0
BBX 8 16 1 -3
BITMAP
03
03
06
00
1E
3F
21
21
61
63
43
42
C2
06
06
04
ENDCHAR
STARTCHAR 1F21
ENCODING 7969
SWIDTH 540 0
DWIDTH 9 0
BBX 8 16 1 -3
BITMAP
06
06
02
00
1E
3F
21
21
61
63
43
42
C2
06
06
04
ENDCHAR
STARTCHAR 1F22
ENCODING 7970
SWIDTH 540 0
DWIDTH 9 0
BBX 9 16 1 -3
BITMAP
0D00
0D00
0980
0000
1E00
3F00
2100
2100
6100
6300
4300
4200
C200
0600
0600
0400
ENDCHAR
STARTCHAR 1F23
ENCODING 7971
SWIDTH 540 0
DWIDTH 9 0
BBX 8 16 1 -3
BITMAP
0A
1B
09
00
1E
3F
21
21
61
63
43
42
C2
06
06
04
ENDCHAR
STARTCHAR 1F24
ENCODING 7972
SWIDTH 540 0
DWIDTH 9 0
BBX 9 16 1 -3
BITMAP
0680
0580
0D00
0000
1E00
3F00
2100
2100
6100
6300
4300
4200
C200
0600
0600
0400
ENDCHAR
STARTCHAR 1F25
ENCODING 7973
SWIDTH 540 0
DWIDTH 9 0
BBX 9 16 1 -3
BITMAP
0C80
0980
0B00
0000
1E00
3F00
2100
2100
6100
6300
4300
4200
C200
0600
0600
0400
ENDCHAR
STARTCHAR 1F26
ENCODING 7974
SWIDTH 540 0
DWIDTH 9 0
BBX 9 18 1 -3
BITMAP
0300
0480
0200
0200
0600
0000
1E00
3F00
2100
2100
6100
6300
4300
4200
C200
0600
0600
0400
ENDCHAR
STARTCHAR 1F27
ENCODING 7975
SWIDTH 540 0
DWIDTH 9 0
BBX 9 18 1 -3
BITMAP
0300
0480
0200
0200
0200
0000
1E00
3F00
2100
2100
6100
6300
4300
4200
C200
0600
0600
0400
ENDCHAR
STARTCHAR 1F28
ENCODING 7976
SWIDTH 720 0
DWIDTH 12 0
BBX 12 12 2 0
BITMAP
5830
D820
9020
3060
3060
3FE0
3FC0
60C0
60C0
60C0
4080
4180
ENDCHAR
STARTCHAR 1F29
ENCODING 7977
SWIDTH 720 0
DWIDTH 12 0
BBX 12 12 2 0
BITMAP
D830
D020
9020
3060
3060
3FE0
3FC0
60C0
60C0
60C0
4080
C180
ENDCHAR
STARTCHAR 1F2A
ENCODING 7978
SWIDTH 900 0
DWIDTH 15 0
BBX 15 12 2 0
BITMAP
D306
D204
9A04
060C
060C
07FC
07F8
0C18
0C18
0C18
0810
1830
ENDCHAR
STARTCHAR 1F2B
ENCODING 7979
SWIDTH 900 0
DWIDTH 15 0
BBX 14 12 2 0
BITMAP
D204
D204
960C
060C
0608
07F8
0FF8
0C18
0C18
0810
1830
1830
ENDCHAR
STARTCHAR 1F2C
ENCODING 7980
SWIDTH 900 0
DWIDTH 15 0
BBX 14 12 2 0
BITMAP
CA04
DA04
B60C
060C
0608
07F8
0FF8
0C18
0C18
0810
1830
1830
ENDCHAR
STARTCHAR 1F2D
ENCODING 7981
SWIDTH 900 0
DWIDTH 15 0
BBX 15 12 2 0
BITMAP
CB06
DA04
B204
060C
060C
07F8
07F8
0C18
0C18
0810
0810
1830
ENDCHAR
STARTCHAR 1F2E
ENCODING 7982
SWIDTH 840 0
DWIDTH 14 0
BBX 14 13 2 0
BITMAP
7000
960C
6408
6408
4C18
0C18
0FF0
0FF0
1830
1830
1830
1020
3060
ENDCHAR
STARTCHAR 1F2F
ENCODING 7983
SWIDTH 840 0
DWIDTH 14 0
BBX 14 13 2 0
BITMAP
7000
960C
6408
6408
2C18
0C18
0FF0
0FF0
1830
1830
1830
1020
3060
ENDCHAR
STARTCHAR 1F30
ENCODING 7984
SWIDTH 240 0
DWIDTH 4 0
BBX 4 13 2 0
BITMAP
30
30
20
00
60
60
40
40
C0
C0
80
80
C0
ENDCHAR
STARTCHAR 1F31
ENCODING 7985
SWIDTH 240 0
DWIDTH 4 0
BBX 3 13 2 0
BITMAP
20
20
20
00
60
60
40
40
C0
C0
80
80
C0
ENDCHAR
STARTCHAR 1F32
ENCODING 7986
SWIDTH 240 0
DWIDTH 4 0
BBX 5 13 2 0
BITMAP
50
58
C8
00
60
60
40
40
C0
C0
80
80
C0
ENDCHAR
STARTCHAR 1F33
ENCODING 7987
SWIDTH 240 0
DWIDTH 4 0
BBX 4 13 2 0
BITMAP
F0
90
90
00
60
60
40
40
C0
C0
80
80
C0
ENDCHAR
STARTCHAR 1F34
ENCODING 7988
SWIDTH 240 0
DWIDTH 4 0
BBX 6 13 2 0
BITMAP
64
68
58
00
60
60
40
40
C0
C0
80
80
C0
ENDCHAR
STARTCHAR 1F35
ENCODING 7989
SWIDTH 240 0
DWIDTH 4 0
BBX 5 13 2 0
BITMAP
C8
D8
50
00
60
60
40
40
C0
C0
80
80
C0
ENDCHAR
STARTCHAR 1F36
ENCODING 7990
SWIDTH 240 0
DWIDTH 4 0
BBX 5 15 2 0
BITMAP
30
68
00
30
20
00
60
60
40
40
C0
C0
80
80
C0
ENDCHAR
STARTCHAR 1F37
ENCODING 7991
SWIDTH 240 0
DWIDTH 4 0
BBX 5 15 2 0
BITMAP
30
68
00
30
20
00
60
60
40
40
C0
C0
80
80
C0
ENDCHAR
STARTCHAR 1F38
ENCODING 7992
SWIDTH 300 0
DWIDTH 5 0
BBX 5 12 2 0
BITMAP
58
D8
90
30
30
30
20
60
60
60
40
40
ENDCHAR
STARTCHAR 1F39
ENCODING 7993
SWIDTH 300 0
DWIDTH 5 0
BBX 5 12 2 0
BITMAP
D8
D0
90
30
30
30
20
60
60
60
40
C0
ENDCHAR
STARTCHAR 1F3A
ENCODING 7994
SWIDTH 480 0
DWIDTH 8 0
BBX 8 12 2 0
BITMAP
D3
D2
9A
06
06
06
04
0C
0C
0C
08
18
ENDCHAR
STARTCHAR 1F3B
ENCODING 7995
SWIDTH 480 0
DWIDTH 8 0
BBX 7 12 2 0
BITMAP
D2
D2
96
06
06
04
0C
0C
0C
08
18
18
ENDCHAR
STARTCHAR 1F3C
ENCODING 7996
SWIDTH 480 0
DWIDTH 8 0
BBX 7 12 2 0
BITMAP
CA
DA
B6
06
06
04
0C
0C
0C
08
18
18
ENDCHAR
STARTCHAR 1F3D
ENCODING 7997
SWIDTH 480 0
DWIDTH 8 0
BBX 8 12 2 0
BITMAP
CB
DA
B2
06
06
04
04
0C
0C
08
08
18
ENDCHAR
STARTCHAR 1F3E
ENCODING 7998
SWIDTH 420 0
DWIDTH 7 0
BBX 7 13 2 0
BITMAP
70
96
64
64
4C
0C
0C
08
18
18
18
10
30
ENDCHAR
STARTCHAR 1F3F
ENCODING 7999
SWIDTH 420 0
DWIDTH 7 0
BBX 7 13 2 0
BITMAP
70
96
64
64
2C
0C
0C
08
18
18
18
10
30
ENDCHAR
STARTCHAR 1F40
ENCODING 8000
SWIDTH 540 0
DWIDTH 9 0
BBX 8 13 2 0
BITMAP
06
06
0C
00
1C
76
43
C3
82
82
86
CC
78
ENDCHAR
STARTCHAR 1F41
ENCODING 8001
SWIDTH 540 0
DWIDTH 9 0
BBX 8 13 2 0
BITMAP
0C
0C
04
00
1C
76
43
C3
82
82
86
CC
78
ENDCHAR
STARTCHAR 1F42
ENCODING 8002
SWIDTH 540 0
DWIDTH 9 0
BBX 8 13 2 0
BITMAP
1A
1A
13
00
1C
76
43
C3
82
82
86
CC
78
ENDCHAR
STARTCHAR 1F43
ENCODING 8003
SWIDTH 540 0
DWIDTH 9 0
BBX 8 13 2 0
BITMAP
14
36
12
00
1C
76
43
C3
82
82
86
CC
78
ENDCHAR
STARTCHAR 1F44
ENCODING 8004
SWIDTH 540 0
DWIDTH 9 0
BBX 8 13 2 0
BITMAP
0D
0B
1A
00
1C
76
43
C3
82
82
86
CC
78
ENDCHAR
STARTCHAR 1F45
ENCODING 8005
SWIDTH 540 0
DWIDTH 9 0
BBX 8 13 2 0
BITMAP
19
13
16
00
1C
76
43
C3
82
82
86
CC
78
ENDCHAR
STARTCHAR 1F48
ENCODING 8008
SWIDTH 780 0
DWIDTH 13 0
BBX 11 12 2 0
BITMAP
4780
DFC0
B060
3020
6020
6020
4020
4060
4060
60C0
6180
3F00
ENDCHAR
STARTCHAR 1F49
ENCODING 8009
SWIDTH 780 0
DWIDTH 13 0
BBX 12 12 2 0
BITMAP
C3C0
CFE0
9830
3030
3030
6030
6030
6030
6060
6060
31C0
1F00
ENDCHAR
STARTCHAR 1F4A
ENCODING 8010
SWIDTH 960 0
DWIDTH 16 0
BBX 15 12 2 0
BITMAP
D078
D1FC
9B06
0606
0406
0C06
0C06
0C04
0C0C
0C18
0638
03E0
ENDCHAR
STARTCHAR 1F4B
ENCODING 8011
SWIDTH 960 0
DWIDTH 16 0
BBX 15 12 2 0
BITMAP
D0F0
D1FC
930C
0606
0C06
0C06
0C04
080C
0C0C
0C18
0E30
07E0
ENDCHAR
STARTCHAR 1F4C
ENCODING 8012
SWIDTH 900 0
DWIDTH 15 0
BBX 14 12 2 0
BITMAP
C8F0
DBF8
B60C
0C0C
0C0C
180C
180C
180C
1818
1818
0C70
07C0
ENDCHAR
STARTCHAR 1F4D
ENCODING 8013
SWIDTH 960 0
DWIDTH 16 0
BBX 14 12 2 0
BITMAP
C8F0
DBF8
B60C
0C0C
0C04
080C
180C
180C
1818
0818
0C70
07E0
ENDCHAR
STARTCHAR 1F50
ENCODING 8016
SWIDTH 540 0
DWIDTH 9 0
BBX 8 13 2 0
BITMAP
06
04
0C
00
63
43
43
C2
C6
86
86
CC
78
ENDCHAR
STARTCHAR 1F51
ENCODING 8017
SWIDTH 540 0
DWIDTH 9 0
BBX 8 13 2 0
BITMAP
0C
0C
04
00
63
43
43
C2
C6
86
86
CC
78
ENDCHAR
STARTCHAR 1F52
ENCODING 8018
SWIDTH 540 0
DWIDTH 9 0
BBX 8 13 2 0
BITMAP
1A
1A
13
00
63
43
43
C2
C6
86
86
CC
78
ENDCHAR
STARTCHAR 1F53
ENCODING 8019
SWIDTH 540 0
DWIDTH 9 0
BBX 8 13 2 0
BITMAP
14
36
12
00
63
43
43
C2
C6
86
86
CC
78
ENDCHAR
STARTCHAR 1F54
ENCODING 8020
SWIDTH 540 0
DWIDTH 9 0
BBX 8 13 2 0
BITMAP
09
0B
1A
00
63
43
43
C2
C6
86
86
CC
78
ENDCHAR
STARTCHAR 1F55
ENCODING 8021
SWIDTH 540 0
DWIDTH 9 0
BBX 8 13 2 0
BITMAP
11
12
16
00
63
43
43
C2
C6
86
86
CC
78
ENDCHAR
STARTCHAR 1F56
ENCODING 8022
SWIDTH 540 0
DWIDTH 9 0
BBX 8 15 2 0
BITMAP
06
0B
04
04
0C
00
63
43
43
C2
C6
86
86
CC
78
ENDCHAR
STARTCHAR 1F57
ENCODING 8023
SWIDTH 540 0
DWIDTH 9 0
BBX 8 15 2 0
BITMAP
06
0B
04
0C
04
00
63
43
43
C2
C6
86
86
CC
78
ENDCHAR
STARTCHAR 1F59
ENCODING 8025
SWIDTH 660 0
DWIDTH 11 0
BBX 12 12 2 0
BITMAP
F030
D060
9840
18C0
0980
0F00
0E00
0400
0C00
0C00
0C00
0800
ENDCHAR
STARTCHAR 1F5B
ENCODING 8027
SWIDTH 840 0
DWIDTH 14 0
BBX 14 12 2 0
BITMAP
D60C
D608
9618
0230
0360
0340
0180
0180
0100
0100
0300
0300
ENDCHAR
STARTCHAR 1F5D
ENCODING 8029
SWIDTH 840 0
DWIDTH 14 0
BBX 15 12 2 0
BITMAP
CA06
DB0C
B308
0318
0130
01E0
01C0
0080
0080
0180
0180
0100
ENDCHAR
STARTCHAR 1F5F
ENCODING 8031
SWIDTH 840 0
DWIDTH 14 0
BBX 14 13 2 0
BITMAP
7000
960C
660C
6218
2330
0360
0140
01C0
0180
0180
0100
0300
0300
ENDCHAR
STARTCHAR 1F60
ENCODING 8032
SWIDTH 840 0
DWIDTH 14 0
BBX 12 13 2 0
BITMAP
0180
0180
0100
0000
2020
6020
4230
C630
C630
8420
8C20
CE60
F3C0
ENDCHAR
STARTCHAR 1F61
ENCODING 8033
SWIDTH 840 0
DWIDTH 14 0
BBX 12 13 2 0
BITMAP
0300
0300
0100
0000
2020
6020
4230
C630
C630
8420
8C20
CE60
F3C0
ENDCHAR
STARTCHAR 1F62
ENCODING 8034
SWIDTH 840 0
DWIDTH 14 0
BBX 12 13 2 0
BITMAP
0280
02C0
0440
0000
2020
6020
4230
C630
C630
8420
8C20
CE60
F3C0
ENDCHAR
STARTCHAR 1F63
ENCODING 8035
SWIDTH 840 0
DWIDTH 14 0
BBX 12 13 2 0
BITMAP
0500
0580
0480
0000
2020
6020
4230
C630
C630
8420
8C20
CE60
F3C0
ENDCHAR
STARTCHAR 1F64
ENCODING 8036
SWIDTH 840 0
DWIDTH 14 0
BBX 12 13 2 0
BITMAP
0340
0340
0280
0000
2020
6020
4230
C630
C630
8420
8C20
CE60
F3C0
ENDCHAR
STARTCHAR 1F65
ENCODING 8037
SWIDTH 840 0
DWIDTH 14 0
BBX 12 13 2 0
BITMAP
0640
04C0
0580
0000
2020
6020
4230
C630
C630
8420
8C20
CE60
F3C0
ENDCHAR
STARTCHAR 1F66
ENCODING 8038
SWIDTH 840 0
DWIDTH 14 0
BBX 12 15 2 0
BITMAP
0180
0240
0000
0100
0100
0000
2020
6020
4230
C630
C630
8420
8C20
CE60
F3C0
ENDCHAR
STARTCHAR 1F67
ENCODING 8039
SWIDTH 840 0
DWIDTH 14 0
BBX 12 15 2 0
BITMAP
0180
0240
0100
0100
0100
0000
2020
6020
4230
C630
C630
8420
8C20
CE60
F3C0
ENDCHAR
STARTCHAR 1F68
ENCODING 8040
SWIDTH 780 0
DWIDTH 13 0
BBX 12 12 2 0
BITMAP
4780
DFE0
B820
3030
6030
6030
6020
6060
6040
60C0
3180
F3C0
ENDCHAR
STARTCHAR 1F69
ENCODING 8041
SWIDTH 840 0
DWIDTH 14 0
BBX 12 12 2 0
BITMAP
C3C0
CFE0
9830
3030
3010
2030
6030
6020
2060
30C0
1180
F1E0
ENDCHAR
STARTCHAR 1F6A
ENCODING 8042
SWIDTH 1020 0
DWIDTH 17 0
BBX 15 12 2 0
BITMAP
D078
D1FC
9B06
0606
0606
0406
0C06
0C04
040C
0418
0630
1E3C
ENDCHAR
STARTCHAR 1F6B
ENCODING 8043
SWIDTH 960 0
DWIDTH 16 0
BBX 15 12 2 0
BITMAP
D078
D1FC
9306
0606
0406
0C06
0C06
0C0C
0C0C
0418
0630
1E7C
ENDCHAR
STARTCHAR 1F6C
ENCODING 8044
SWIDTH 960 0
DWIDTH 16 0
BBX 14 12 2 0
BITMAP
C8F0
DBF8
B60C
0C0C
0C04
080C
180C
1808
0818
0C30
0460
3C78
ENDCHAR
STARTCHAR 1F6D
ENCODING 8045
SWIDTH 960 0
DWIDTH 16 0
BBX 14 12 2 0
BITMAP
C8F0
DBF8
B60C
0C04
0C04
0804
080C
080C
0818
0C30
0460
3E78
ENDCHAR
STARTCHAR 1F6E
ENCODING 8046
SWIDTH 900 0
DWIDTH 15 0
BBX 13 13 2 0
BITMAP
7000
91E0
67F0
6C18
5818
1818
3018
3018
3010
3030
1060
18C0
79F0
ENDCHAR
STARTCHAR 1F6F
ENCODING 8047
SWIDTH 900 0
DWIDTH 15 0
BBX 13 13 2 0
BITMAP
7000
91E0
67F8
6C18
2808
1808
1808
1018
1018
1030
1820
08C0
7CF0
ENDCHAR
STARTCHAR 1F70
ENCODING 8048
SWIDTH 540 0
DWIDTH 9 0
BBX 8 13 2 0
BITMAP
08
1C
04
00
1F
3B
62
C6
86
84
84
CC
FE
ENDCHAR
STARTCHAR 1F71
ENCODING 8049
SWIDTH 540 0
DWIDTH 9 0
BBX 8 13 2 0
BITMAP
02
06
08
00
1F
3B
62
C6
86
84
84
CC
FE
ENDCHAR
STARTCHAR 1F72
ENCODING 8050
SWIDTH 480 0
DWIDTH 8 0
BBX 8 13 1 0
BITMAP
08
0C
06
00
1F
32
60
20
38
40
C0
C0
7E
ENDCHAR
STARTCHAR 1F73
ENCODING 8051
SWIDTH 480 0
DWIDTH 8 0
BBX 8 13 1 0
BITMAP
02
06
0C
00
1F
32
60
20
38
40
C0
C0
7E
ENDCHAR
STARTCHAR 1F74
ENCODING 8052
SWIDTH 540 0
DWIDTH 9 0
BBX 8 16 1 -3
BITMAP
04
0C
02
00
1E
3F
21
21
61
63
43
42
C2
06
06
04
ENDCHAR
STARTCHAR 1F75
ENCODING 8053
SWIDTH 540 0
DWIDTH 9 0
BBX 8 16 1 -3
BITMAP
01
03
04
00
1E
3F
21
21
61
63
43
42
C2
06
06
04
ENDCHAR
STARTCHAR 1F76
ENCODING 8054
SWIDTH 240 0
DWIDTH 4 0
BBX 4 13 2 0
BITMAP
40
60
30
00
60
60
40
40
C0
C0
80
80
C0
ENDCHAR
STARTCHAR 1F77
ENCODING 8055
SWIDTH 240 0
DWIDTH 4 0
BBX 4 13 2 0
BITMAP
10
30
60
00
60
60
40
40
C0
C0
80
80
C0
ENDCHAR
STARTCHAR 1F78
ENCODING 8056
SWIDTH 540 0
DWIDTH 9 0
BBX 8 13 2 0
BITMAP
08
18
04
00
1C
76
43
C3
82
82
86
CC
78
ENDCHAR
STARTCHAR 1F79
ENCODING 8057
SWIDTH 540 0
DWIDTH 9 0
BBX 8 13 2 0
BITMAP
02
06
08
00
1C
76
43
C3
82
82
86
CC
78
ENDCHAR
STARTCHAR 1F7A
ENCODING 8058
SWIDTH 540 0
DWIDTH 9 0
BBX 8 12 2 1
BITMAP
18
04
00
63
43
43
C2
C6
86
86
CC
78
ENDCHAR
STARTCHAR 1F7B
ENCODING 8059
SWIDTH 540 0
DWIDTH 9 0
BBX 8 13 2 0
BITMAP
02
06
08
00
63
43
43
C2
C6
86
86
CC
78
ENDCHAR
STARTCHAR 1F7C
ENCODING 8060
SWIDTH 840 0
DWIDTH 14 0
BBX 12 13 2 0
BITMAP
0200
0300
0180
0000
2020
6020
4230
C630
C630
8420
8C20
CE60
F3C0
ENDCHAR
STARTCHAR 1F7D
ENCODING 8061
SWIDTH 840 0
DWIDTH 14 0
BBX 12 13 2 0
BITMAP
0080
0180
0300
0000
2020
6020
4230
C630
C630
8420
8C20
CE60
F3C0
ENDCHAR
STARTCHAR 1F80
ENCODING 8064
SWIDTH 540 0
DWIDTH 9 0
BBX 8 16 2 -3
BITMAP
06
06
04
00
1F
3B
62
C6
86
84
84
CC
FE
00
20
30
ENDCHAR
STARTCHAR 1F81
ENCODING 8065
SWIDTH 540 0
DWIDTH 9 0
BBX 8 16 2 -3
BITMAP
0C
0C
04
00
1F
3B
62
C6
86
84
84
CC
FE
00
20
30
ENDCHAR
STARTCHAR 1F82
ENCODING 8066
SWIDTH 540 0
DWIDTH 9 0
BBX 8 16 2 -3
BITMAP
1A
1A
11
00
1F
3B
62
C6
86
84
84
CC
FE
00
20
30
ENDCHAR
STARTCHAR 1F83
ENCODING 8067
SWIDTH 540 0
DWIDTH 9 0
BBX 8 16 2 -3
BITMAP
14
16
12
00
1F
3B
62
C6
86
84
84
CC
FE
00
20
30
ENDCHAR
STARTCHAR 1F84
ENCODING 8068
SWIDTH 540 0
DWIDTH 9 0
BBX 8 16 2 -3
BITMAP
0D
0F
1A
00
1F
3B
62
C6
86
84
84
CC
FE
00
20
30
ENDCHAR
STARTCHAR 1F85
ENCODING 8069
SWIDTH 540 0
DWIDTH 9 0
BBX 8 16 2 -3
BITMAP
19
13
16
00
1F
3B
62
C6
86
84
84
CC
FE
00
20
30
ENDCHAR
STARTCHAR 1F86
ENCODING 8070
SWIDTH 540 0
DWIDTH 9 0
BBX 8 18 2 -3
BITMAP
06
09
04
04
0C
00
1F
3B
62
C6
86
84
84
CC
FE
00
20
30
ENDCHAR
STARTCHAR 1F87
ENCODING 8071
SWIDTH 540 0
DWIDTH 9 0
BBX 8 18 2 -3
BITMAP
06
09
04
04
04
00
1F
3B
62
C6
86
84
84
CC
FE
00
20
30
ENDCHAR
STARTCHAR 1F88
ENCODING 8072
SWIDTH 900 0
DWIDTH 15 0
BBX 15 12 0 0
BITMAP
0D80
0D80
0B80
1682
04C2
0CC6
18C6
10C4
3FC4
204C
604C
C046
ENDCHAR
STARTCHAR 1F89
ENCODING 8073
SWIDTH 900 0
DWIDTH 15 0
BBX 15 12 0 0
BITMAP
1980
1980
1380
0682
04C2
0CC6
18C6
10C4
3FC4
204C
604C
C046
ENDCHAR
STARTCHAR 1F8A
ENCODING 8074
SWIDTH 1020 0
DWIDTH 17 0
BBX 15 12 2 0
BITMAP
D180
D180
9B80
0682
04C2
0CC6
18C6
10C4
3FC4
204C
604C
C046
ENDCHAR
STARTCHAR 1F8B
ENCODING 8075
SWIDTH 1020 0
DWIDTH 17 0
BBX 15 12 2 0
BITMAP
D180
D380
9380
0682
0C86
0886
18C4
30C4
3FCC
60CC
40CC
C046
ENDCHAR
STARTCHAR 1F8C
ENCODING 8076
SWIDTH 960 0
DWIDTH 16 0
BBX 15 12 2 0
BITMAP
CB00
DB00
B700
0D86
0D84
1984
108C
308C
7F88
6088
C0C8
80CC
ENDCHAR
STARTCHAR 1F8D
ENCODING 8077
SWIDTH 960 0
DWIDTH 16 0
BBX 15 12 2 0
BITMAP
C900
DB00
B780
0586
0D84
1884
108C
308C
3FCC
60C8
C0C8
C0CC
ENDCHAR
STARTCHAR 1F8E
ENCODING 8078
SWIDTH 900 0
DWIDTH 15 0
BBX 15 13 1 0
BITMAP
3800
4B00
3300
3700
2D86
0984
198C
118C
308C
7F88
4088
C0C8
80CC
ENDCHAR
STARTCHAR 1F8F
ENCODING 8079
SWIDTH 900 0
DWIDTH 15 0
BBX 15 13 1 0
BITMAP
3800
4900
3300
3780
1586
0D84
1884
108C
308C
3FCC
60C8
C0C8
C0CC
ENDCHAR
STARTCHAR 1F90
ENCODING 8080
SWIDTH 540 0
DWIDTH 9 0
BBX 8 16 1 -3
BITMAP
03
03
06
00
1E
3F
21
21
61
63
43
42
C2
06
86
C4
ENDCHAR
STARTCHAR 1F91
ENCODING 8081
SWIDTH 540 0
DWIDTH 9 0
BBX 8 16 1 -3
BITMAP
06
06
02
00
1E
3F
21
21
61
63
43
42
C2
06
86
C4
ENDCHAR
STARTCHAR 1F92
ENCODING 8082
SWIDTH 540 0
DWIDTH 9 0
BBX 9 16 1 -3
BITMAP
0D00
0D00
0980
0000
1E00
3F00
2100
2100
6100
6300
4300
4200
C200
0600
8600
C400
ENDCHAR
STARTCHAR 1F93
ENCODING 8083
SWIDTH 540 0
DWIDTH 9 0
BBX 8 16 1 -3
BITMAP
0A
1B
09
00
1E
3F
21
21
61
63
43
42
C2
06
86
C4
ENDCHAR
STARTCHAR 1F94
ENCODING 8084
SWIDTH 540 0
DWIDTH 9 0
BBX 9 16 1 -3
BITMAP
0680
0580
0D00
0000
1E00
3F00
2100
2100
6100
6300
4300
4200
C200
0600
8600
C400
ENDCHAR
STARTCHAR 1F95
ENCODING 8085
SWIDTH 540 0
DWIDTH 9 0
BBX 9 16 1 -3
BITMAP
0C80
0980
0B00
0000
1E00
3F00
2100
2100
6100
6300
4300
4200
C200
0600
8600
C400
ENDCHAR
STARTCHAR 1F96
ENCODING 8086
SWIDTH 540 0
DWIDTH 9 0
BBX 9 18 1 -3
BITMAP
0300
0480
0200
0200
0600
0000
1E00
3F00
2100
2100
6100
6300
4300
4200
C200
0600
8600
C400
ENDCHAR
STARTCHAR 1F97
ENCODING 8087
SWIDTH 540 0
DWIDTH 9 0
BBX 9 18 1 -3
BITMAP
0300
0480
0200
0200
0200
0000
1E00
3F00
2100
2100
6100
6300
4300
4200
C200
0600
8600
C400
ENDCHAR
STARTCHAR 1F98
ENCODING 8088
SWIDTH 1020 0
DWIDTH 17 0
BBX 15 12 2 0
BITMAP
5830
D820
9020
3062
3066
3FE6
3FC6
60C4
60C4
60CC
408C
4186
ENDCHAR
STARTCHAR 1F99
ENCODING 8089
SWIDTH 1020 0
DWIDTH 17 0
BBX 15 12 2 0
BITMAP
D830
D020
9020
3062
3066
3FE6
3FC6
60C4
60CC
60CC
408C
C186
ENDCHAR
STARTCHAR 1F9A
ENCODING 8090
SWIDTH 1200 0
DWIDTH 20 0
BBX 18 12 2 0
BITMAP
D30600
D20400
9A0400
060C40
060CC0
07FCC0
07F8C0
0C1880
0C1980
0C1980
081180
1830C0
ENDCHAR
STARTCHAR 1F9B
ENCODING 8091
SWIDTH 1200 0
DWIDTH 20 0
BBX 18 12 2 0
BITMAP
D20400
D20400
960C00
060CC0
0608C0
07F880
0FF880
0C1980
0C1980
081180
183180
1831C0
ENDCHAR
STARTCHAR 1F9C
ENCODING 8092
SWIDTH 1200 0
DWIDTH 20 0
BBX 18 12 2 0
BITMAP
CA0400
DA0400
B60C00
060CC0
0608C0
07F880
0FF880
0C1980
0C1980
081180
183180
183180
ENDCHAR
STARTCHAR 1F9D
ENCODING 8093
SWIDTH 1200 0
DWIDTH 20 0
BBX 18 12 2 0
BITMAP
CB0600
DA0400
B20400
060C40
060CC0
07F8C0
07F880
0C1880
0C1980
081180
081180
1830C0
ENDCHAR
STARTCHAR 1F9E
ENCODING 8094
SWIDTH 1140 0
DWIDTH 19 0
BBX 17 13 2 0
BITMAP
700000
960C00
640800
640800
4C1880
0C1980
0FF180
0FF100
183100
183300
183300
102300
306180
ENDCHAR
STARTCHAR 1F9F
ENCODING 8095
SWIDTH 1140 0
DWIDTH 19 0
BBX 17 13 2 0
BITMAP
700000
960C00
640800
640800
2C1880
0C1980
0FF180
0FF100
183100
183300
183300
102300
306180
ENDCHAR
STARTCHAR 1FA0
ENCODING 8096
SWIDTH 840 0
DWIDTH 14 0
BBX 12 16 2 -3
BITMAP
0180
0180
0100
0000
2020
6020
4230
C630
C630
8420
8C20
CE60
F3C0
0000
0800
0C00
ENDCHAR
STARTCHAR 1FA1
ENCODING 8097
SWIDTH 840 0
DWIDTH 14 0
BBX 12 16 2 -3
BITMAP
0300
0300
0100
0000
2020
6020
4230
C630
C630
8420
8C20
CE60
F3C0
0000
0800
0C00
ENDCHAR
STARTCHAR 1FA2
ENCODING 8098
SWIDTH 840 0
DWIDTH 14 0
BBX 12 16 2 -3
BITMAP
0280
02C0
0440
0000
2020
6020
4230
C630
C630
8420
8C20
CE60
F3C0
0000
0800
0C00
ENDCHAR
STARTCHAR 1FA3
ENCODING 8099
SWIDTH 840 0
DWIDTH 14 0
BBX 12 16 2 -3
BITMAP
0500
0580
0480
0000
2020
6020
4230
C630
C630
8420
8C20
CE60
F3C0
0000
0800
0C00
ENDCHAR
STARTCHAR 1FA4
ENCODING 8100
SWIDTH 840 0
DWIDTH 14 0
BBX 12 16 2 -3
BITMAP
0340
0340
0280
0000
2020
6020
4230
C630
C630
8420
8C20
CE60
F3C0
0000
0800
0C00
ENDCHAR
STARTCHAR 1FA5
ENCODING 8101
SWIDTH 840 0
DWIDTH 14 0
BBX 12 16 2 -3
BITMAP
0640
04C0
0580
0000
2020
6020
4230
C630
C630
8420
8C20
CE60
F3C0
0000
0800
0C00
ENDCHAR
STARTCHAR 1FA6
ENCODING 8102
SWIDTH 840 0
DWIDTH 14 0
BBX 12 18 2 -3
BITMAP
0180
0240
0000
0100
0100
0000
2020
6020
4230
C630
C630
8420
8C20
CE60
F3C0
0000
0800
0C00
ENDCHAR
STARTCHAR 1FA7
ENCODING 8103
SWIDTH 840 0
DWIDTH 14 0
BBX 12 18 2 -3
BITMAP
0180
0240
0100
0100
0100
0000
2020
6020
4230
C630
C630
8420
8C20
CE60
F3C0
0000
0800
0C00
ENDCHAR
STARTCHAR 1FA8
ENCODING 8104
SWIDTH 1080 0
DWIDTH 18 0
BBX 16 12 2 0
BITMAP
4780
DFE0
B820
3031
6033
6033
6022
6062
6046
60C6
3186
F3C3
ENDCHAR
STARTCHAR 1FA9
ENCODING 8105
SWIDTH 1080 0
DWIDTH 18 0
BBX 17 12 2 0
BITMAP
C3C000
CFE000
983000
303180
301100
203100
603300
602300
206200
30C200
118200
F1E300
ENDCHAR
STARTCHAR 1FAA
ENCODING 8106
SWIDTH 1260 0
DWIDTH 21 0
BBX 20 12 2 0
BITMAP
D07800
D1FC00
9B0600
060630
060620
040620
0C0660
0C0460
040C40
041840
063040
1E3C60
ENDCHAR
STARTCHAR 1FAB
ENCODING 8107
SWIDTH 1260 0
DWIDTH 21 0
BBX 19 12 2 0
BITMAP
D07800
D1FC00
930600
060620
040660
0C0660
0C0660
0C0C40
0C0C40
0418C0
0630C0
1E7C60
ENDCHAR
STARTCHAR 1FAC
ENCODING 8108
SWIDTH 1200 0
DWIDTH 20 0
BBX 19 12 2 0
BITMAP
C8F000
DBF800
B60C00
0C0C60
0C0440
080C40
180CC0
1808C0
081880
0C3080
046080
3C78C0
ENDCHAR
STARTCHAR 1FAD
ENCODING 8109
SWIDTH 1200 0
DWIDTH 20 0
BBX 19 12 2 0
BITMAP
C8F000
DBF800
B60C00
0C0460
0C0460
080440
080C40
080CC0
0818C0
0C3080
0460C0
3E78C0
ENDCHAR
STARTCHAR 1FAE
ENCODING 8110
SWIDTH 1140 0
DWIDTH 19 0
BBX 18 13 2 0
BITMAP
700000
91E000
67F000
6C1800
5818C0
181880
301980
301980
301180
303100
106100
18C100
79F180
ENDCHAR
STARTCHAR 1FAF
ENCODING 8111
SWIDTH 1200 0
DWIDTH 20 0
BBX 18 13 2 0
BITMAP
700000
91E000
67F800
6C1800
2808C0
1808C0
180880
101880
101980
103180
182100
08C180
7CF180
ENDCHAR
STARTCHAR 1FB0
ENCODING 8112
SWIDTH 540 0
DWIDTH 9 0
BBX 8 12 2 0
BITMAP
1B
0E
00
1F
3B
62
C6
86
84
84
CC
FE
ENDCHAR
STARTCHAR 1FB1
ENCODING 8113
SWIDTH 540 0
DWIDTH 9 0
BBX 8 12 2 0
BITMAP
1F
00
00
1F
3B
62
C6
86
84
84
CC
FE
ENDCHAR
STARTCHAR 1FB2
ENCODING 8114
SWIDTH 540 0
DWIDTH 9 0
BBX 8 16 2 -3
BITMAP
08
1C
04
00
1F
3B
62
C6
86
84
84
CC
FE
00
20
30
ENDCHAR
STARTCHAR 1FB3
ENCODING 8115
SWIDTH 540 0
DWIDTH 9 0
BBX 8 12 2 -3
BITMAP
1F
3B
62
C6
86
84
84
CC
FE
00
20
30
ENDCHAR
STARTCHAR 1FB4
ENCODING 8116
SWIDTH 540 0
DWIDTH 9 0
BBX 8 16 2 -3
BITMAP
02
06
08
00
1F
3B
62
C6
86
84
84
CC
FE
00
20
30
ENDCHAR
STARTCHAR 1FB6
ENCODING 8118
SWIDTH 540 0
DWIDTH 9 0
BBX 8 12 2 0
BITMAP
1E
12
00
1F
3B
62
C6
86
84
84
CC
FE
ENDCHAR
STARTCHAR 1FB7
ENCODING 8119
SWIDTH 540 0
DWIDTH 9 0
BBX 8 15 2 -3
BITMAP
1E
12
00
1F
3B
62
C6
86
84
84
CC
FE
00
20
30
ENDCHAR
STARTCHAR 1FB8
ENCODING 8120
SWIDTH 660 0
DWIDTH 11 0
BBX 11 15 0 0
BITMAP
0120
01C0
0000
0180
0180
0380
0680
04C0
0CC0
18C0
10C0
3FC0
2040
6040
C040
ENDCHAR
STARTCHAR 1FB9
ENCODING 8121
SWIDTH 660 0
DWIDTH 11 0
BBX 11 14 0 0
BITMAP
03E0
0000
0180
0180
0380
0680
04C0
0CC0
18C0
10C0
3FC0
2040
6040
C040
ENDCHAR
STARTCHAR 1FBA
ENCODING 8122
SWIDTH 660 0
DWIDTH 11 0
BBX 10 12 1 0
BITMAP
0100
6380
3780
0580
0D80
1880
1080
3080
3FC0
60C0
C0C0
C0C0
ENDCHAR
STARTCHAR 1FBB
ENCODING 8123
SWIDTH 660 0
DWIDTH 11 0
BBX 10 12 0 0
BITMAP
0180
0D80
1380
0680
04C0
0CC0
18C0
10C0
3FC0
2040
6040
C040
ENDCHAR
STARTCHAR 1FBC
ENCODING 8124
SWIDTH 900 0
DWIDTH 15 0
BBX 15 12 0 0
BITMAP
0180
0180
0380
0682
04C2
0CC6
18C6
10C4
3FC4
204C
604C
C046
ENDCHAR
STARTCHAR 1FBD
ENCODING 8125
SWIDTH 360 0
DWIDTH 6 0
BBX 2 3 5 10
BITMAP
C0
C0
80
ENDCHAR
STARTCHAR 1FBE
ENCODING 8126
SWIDTH 300 0
DWIDTH 5 0
BBX 3 2 1 -3
BITMAP
C0
E0
ENDCHAR
STARTCHAR 1FBF
ENCODING 8127
SWIDTH 360 0
DWIDTH 6 0
BBX 2 3 5 10
BITMAP
C0
C0
80
ENDCHAR
STARTCHAR 1FC0
ENCODING 8128
SWIDTH 360 0
DWIDTH 6 0
BBX 5 2 3 10
BITMAP
78
C8
ENDCHAR
STARTCHAR 1FC1
ENCODING 8129
SWIDTH 360 0
DWIDTH 6 0
BBX 5 4 3 10
BITMAP
78
48
48
D8
ENDCHAR
STARTCHAR 1FC2
ENCODING 8130
SWIDTH 540 0
DWIDTH 9 0
BBX 8 16 1 -3
BITMAP
04
0C
02
00
1E
3F
21
21
61
63
43
42
C2
06
86
C4
ENDCHAR
STARTCHAR 1FC3
ENCODING 8131
SWIDTH 540 0
DWIDTH 9 0
BBX 8 12 1 -3
BITMAP
1E
3F
21
21
61
63
43
42
C2
06
86
C4
ENDCHAR
STARTCHAR 1FC4
ENCODING 8132
SWIDTH 540 0
DWIDTH 9 0
BBX 8 16 1 -3
BITMAP
01
03
06
00
1E
3F
21
21
61
63
43
42
C2
06
86
C4
ENDCHAR
STARTCHAR 1FC6
ENCODING 8134
SWIDTH 540 0
DWIDTH 9 0
BBX 8 15 1 -3
BITMAP
0F
09
00
1E
3F
21
21
61
63
43
42
C2
06
06
04
ENDCHAR
STARTCHAR 1FC7
ENCODING 8135
SWIDTH 540 0
DWIDTH 9 0
BBX 8 15 1 -3
BITMAP
0F
09
00
1E
3F
21
21
61
63
43
42
C2
06
86
C4
ENDCHAR
STARTCHAR 1FC8
ENCODING 8136
SWIDTH 720 0
DWIDTH 12 0
BBX 11 12 2 0
BITMAP
0FE0
CFE0
6C00
0800
1800
1F80
1F80
1000
1000
3000
3000
3F80
ENDCHAR
STARTCHAR 1FC9
ENCODING 8137
SWIDTH 660 0
DWIDTH 11 0
BBX 11 12 2 0
BITMAP
0FE0
6FC0
D800
1800
1800
1F80
3F80
3000
3000
2000
6000
7F00
ENDCHAR
STARTCHAR 1FCA
ENCODING 8138
SWIDTH 840 0
DWIDTH 14 0
BBX 13 12 2 0
BITMAP
0C18
CC18
6C18
0810
1830
1FF0
1FF0
1020
1020
3060
3060
2040
ENDCHAR
STARTCHAR 1FCB
ENCODING 8139
SWIDTH 780 0
DWIDTH 13 0
BBX 12 12 2 0
BITMAP
0C10
6810
D830
1830
1830
1FE0
3FE0
3060
3060
2040
60C0
60C0
ENDCHAR
STARTCHAR 1FCC
ENCODING 8140
SWIDTH 960 0
DWIDTH 16 0
BBX 15 12 1 0
BITMAP
1830
1020
1020
3062
3066
3FC6
3FC4
60C4
60CC
60CC
408C
C186
ENDCHAR
STARTCHAR 1FCD
ENCODING 8141
SWIDTH 360 0
DWIDTH 6 0
BBX 5 3 3 10
BITMAP
50
58
C8
ENDCHAR
STARTCHAR 1FCE
ENCODING 8142
SWIDTH 360 0
DWIDTH 6 0
BBX 5 3 3 10
BITMAP
48
58
D0
ENDCHAR
STARTCHAR 1FCF
ENCODING 8143
SWIDTH 360 0
DWIDTH 6 0
BBX 4 5 4 10
BITMAP
20
D0
00
60
40
ENDCHAR
STARTCHAR 1FD0
ENCODING 8144
SWIDTH 240 0
DWIDTH 4 0
BBX 5 12 2 0
BITMAP
48
70
00
60
60
40
40
C0
C0
80
80
C0
ENDCHAR
STARTCHAR 1FD1
ENCODING 8145
SWIDTH 240 0
DWIDTH 4 0
BBX 5 12 2 0
BITMAP
F8
00
00
60
60
40
40
C0
C0
80
80
C0
ENDCHAR
STARTCHAR 1FD2
ENCODING 8146
SWIDTH 240 0
DWIDTH 4 0
BBX 7 13 1 0
BITMAP
10
D6
5A
00
30
30
20
20
60
60
40
40
60
ENDCHAR
STARTCHAR 1FD3
ENCODING 8147
SWIDTH 240 0
DWIDTH 4 0
BBX 7 13 1 0
BITMAP
08
DE
72
00
30
30
20
20
60
60
40
40
60
ENDCHAR
STARTCHAR 1FD6
ENCODING 8150
SWIDTH 240 0
DWIDTH 4 0
BBX 5 12 2 0
BITMAP
78
88
00
60
60
40
40
C0
C0
80
80
C0
ENDCHAR
STARTCHAR 1FD7
ENCODING 8151
SWIDTH 240 0
DWIDTH 4 0
BBX 5 14 2 0
BITMAP
78
48
08
D8
00
60
60
40
40
C0
C0
80
80
C0
ENDCHAR
STARTCHAR 1FD8
ENCODING 8152
SWIDTH 240 0
DWIDTH 4 0
BBX 7 15 1 0
BITMAP
12
1C
00
18
10
10
30
30
30
20
60
60
60
40
C0
ENDCHAR
STARTCHAR 1FD9
ENCODING 8153
SWIDTH 240 0
DWIDTH 4 0
BBX 7 14 1 0
BITMAP
3E
00
18
10
10
30
30
30
20
60
60
60
40
C0
ENDCHAR
STARTCHAR 1FDA
ENCODING 8154
SWIDTH 420 0
DWIDTH 7 0
BBX 6 12 2 0
BITMAP
0C
CC
6C
08
18
18
18
10
10
30
30
20
ENDCHAR
STARTCHAR 1FDB
ENCODING 8155
SWIDTH 360 0
DWIDTH 6 0
BBX 6 12 2 0
BITMAP
0C
68
D8
18
18
10
30
30
30
20
60
60
ENDCHAR
STARTCHAR 1FDD
ENCODING 8157
SWIDTH 360 0
DWIDTH 6 0
BBX 5 3 3 10
BITMAP
50
D8
48
ENDCHAR
STARTCHAR 1FDE
ENCODING 8158
SWIDTH 360 0
DWIDTH 6 0
BBX 5 3 3 10
BITMAP
C8
D8
50
ENDCHAR
STARTCHAR 1FDF
ENCODING 8159
SWIDTH 360 0
DWIDTH 6 0
BBX 4 5 4 10
BITMAP
20
D0
00
60
40
ENDCHAR
STARTCHAR 1FE0
ENCODING 8160
SWIDTH 540 0
DWIDTH 9 0
BBX 8 12 2 0
BITMAP
1A
0E
00
63
43
43
C2
C6
86
86
CC
78
ENDCHAR
STARTCHAR 1FE1
ENCODING 8161
SWIDTH 540 0
DWIDTH 9 0
BBX 8 12 2 0
BITMAP
1F
00
00
63
43
43
C2
C6
86
86
CC
78
ENDCHAR
STARTCHAR 1FE2
ENCODING 8162
SWIDTH 540 0
DWIDTH 9 0
BBX 9 13 2 0
BITMAP
0800
3D80
2500
0000
6300
4300
4300
C200
C600
8600
8600
CC00
7800
ENDCHAR
STARTCHAR 1FE3
ENCODING 8163
SWIDTH 540 0
DWIDTH 9 0
BBX 9 13 2 0
BITMAP
0400
3580
2900
0000
6300
4300
4300
C200
C600
8600
8600
CC00
7800
ENDCHAR
STARTCHAR 1FE4
ENCODING 8164
SWIDTH 540 0
DWIDTH 9 0
BBX 9 16 0 -3
BITMAP
0180
0100
0300
0000
0700
1F80
1080
3080
3080
2080
2180
6300
7E00
6000
4000
C000
ENDCHAR
STARTCHAR 1FE5
ENCODING 8165
SWIDTH 540 0
DWIDTH 9 0
BBX 9 16 0 -3
BITMAP
0300
0300
0100
0000
0700
1F80
1080
3080
3080
2080
2180
6300
7E00
6000
4000
C000
ENDCHAR
STARTCHAR 1FE6
ENCODING 8166
SWIDTH 540 0
DWIDTH 9 0
BBX 8 12 2 0
BITMAP
1E
12
00
63
43
43
C2
C6
86
86
CC
78
ENDCHAR
STARTCHAR 1FE7
ENCODING 8167
SWIDTH 540 0
DWIDTH 9 0
BBX 8 14 2 0
BITMAP
0F
11
12
13
00
63
43
43
C2
C6
86
86
CC
78
ENDCHAR
STARTCHAR 1FE8
ENCODING 8168
SWIDTH 600 0
DWIDTH 10 0
BBX 9 15 3 0
BITMAP
1200
1E00
0000
8180
C100
C300
4600
6C00
7800
3000
3000
2000
6000
6000
6000
ENDCHAR
STARTCHAR 1FE9
ENCODING 8169
SWIDTH 600 0
DWIDTH 10 0
BBX 9 14 3 0
BITMAP
1E00
0000
8180
C100
C300
4600
6C00
7800
3000
3000
2000
6000
6000
6000
ENDCHAR
STARTCHAR 1FEA
ENCODING 8170
SWIDTH 720 0
DWIDTH 12 0
BBX 13 12 2 0
BITMAP
0818
C830
6C20
0C60
04C0
0780
0700
0200
0600
0600
0600
0400
ENDCHAR
STARTCHAR 1FEB
ENCODING 8171
SWIDTH 720 0
DWIDTH 12 0
BBX 13 12 2 0
BITMAP
0818
6C30
CC20
0460
04C0
0780
0300
0200
0200
0600
0600
0400
ENDCHAR
STARTCHAR 1FEC
ENCODING 8172
SWIDTH 660 0
DWIDTH 11 0
BBX 10 12 2 0
BITMAP
CF00
DFC0
90C0
30C0
30C0
30C0
3F80
7C00
6000
6000
4000
C000
ENDCHAR
STARTCHAR 1FED
ENCODING 8173
SWIDTH 360 0
DWIDTH 6 0
BBX 6 3 3 10
BITMAP
20
AC
94
ENDCHAR
STARTCHAR 1FEE
ENCODING 8174
SWIDTH 360 0
DWIDTH 6 0
BBX 6 3 3 10
BITMAP
10
BC
A4
ENDCHAR
STARTCHAR 1FEF
ENCODING 8175
SWIDTH 360 0
DWIDTH 6 0
BBX 3 3 4 10
BITMAP
80
C0
60
ENDCHAR
STARTCHAR 1FF2
ENCODING 8178
SWIDTH 840 0
DWIDTH 14 0
BBX 12 16 2 -3
BITMAP
0200
0300
0180
0000
2020
6020
4230
C630
C630
8420
8C20
CE60
F3C0
0000
0800
0C00
ENDCHAR
STARTCHAR 1FF3
ENCODING 8179
SWIDTH 840 0
DWIDTH 14 0
BBX 12 12 2 -3
BITMAP
2020
6020
4230
C630
C630
8420
8C20
CE60
F3C0
0000
0800
0C00
ENDCHAR
STARTCHAR 1FF4
ENCODING 8180
SWIDTH 840 0
DWIDTH 14 0
BBX 12 16 2 -3
BITMAP
0080
0180
0300
0000
2020
6020
4230
C630
C630
8420
8C20
CE60
F3C0
0000
0800
0C00
ENDCHAR
STARTCHAR 1FF6
ENCODING 8182
SWIDTH 840 0
DWIDTH 14 0
BBX 12 12 2 0
BITMAP
0780
0480
0000
2020
6020
4230
C630
C630
8420
8C20
CE60
F3C0
ENDCHAR
STARTCHAR 1FF7
ENCODING 8183
SWIDTH 840 0
DWIDTH 14 0
BBX 12 15 2 -3
BITMAP
0780
0480
0000
2020
6020
4230
C630
C630
8420
8C20
CE60
F3C0
0000
0800
0C00
ENDCHAR
STARTCHAR 1FF8
ENCODING 8184
SWIDTH 900 0
DWIDTH 15 0
BBX 13 12 2 0
BITMAP
01E0
C7F0
6C18
0C08
1808
1808
1008
1018
1018
1830
1860
0FC0
ENDCHAR
STARTCHAR 1FF9
ENCODING 8185
SWIDTH 780 0
DWIDTH 13 0
BBX 12 12 2 0
BITMAP
03C0
6FE0
D830
3030
3030
6030
6030
6030
6060
6060
31C0
1F00
ENDCHAR
STARTCHAR 1FFA
ENCODING 8186
SWIDTH 900 0
DWIDTH 15 0
BBX 14 12 2 0
BITMAP
01E0
C7F8
6E18
0C0C
180C
180C
1808
1818
1830
1820
0C40
3CF0
ENDCHAR
STARTCHAR 1FFB
ENCODING 8187
SWIDTH 840 0
DWIDTH 14 0
BBX 12 12 2 0
BITMAP
03C0
6FE0
D830
3010
3010
2030
2030
2030
2060
30C0
1180
F1E0
ENDCHAR
STARTCHAR 1FFC
ENCODING 8188
SWIDTH 1020 0
DWIDTH 17 0
BBX 17 12 1 0
BITMAP
03C000
0FE000
183000
303180
303100
203100
603300
602300
206200
20C200
318200
F1E300
ENDCHAR
STARTCHAR 1FFD
ENCODING 8189
SWIDTH 360 0
DWIDTH 6 0
BBX 3 3 4 10
BITMAP
20
60
C0
ENDCHAR
STARTCHAR 1FFE
ENCODING 8190
SWIDTH 360 0
DWIDTH 6 0
BBX 2 3 5 10
BITMAP
C0
80
80
ENDCHAR
STARTCHAR 2013
ENCODING 8211
SWIDTH 480 0
DWIDTH 8 0
BBX 9 2 1 4
BITMAP
FF80
FF00
ENDCHAR
STARTCHAR 2014
ENCODING 8212
SWIDTH 1020 0
DWIDTH 17 0
BBX 17 2 1 4
BITMAP
FFFF80
FFFF80
ENDCHAR
STARTCHAR 2015
ENCODING 8213
SWIDTH 1020 0
DWIDTH 17 0
BBX 17 2 1 4
BITMAP
FFFF80
FFFF80
ENDCHAR
STARTCHAR 2018
ENCODING 8216
SWIDTH 240 0
DWIDTH 4 0
BBX 3 4 3 9
BITMAP
20
60
40
C0
ENDCHAR
STARTCHAR 2019
ENCODING 8217
SWIDTH 240 0
DWIDTH 4 0
BBX 3 4 3 8
BITMAP
60
60
40
C0
ENDCHAR
STARTCHAR 201A
ENCODING 8218
SWIDTH 240 0
DWIDTH 4 0
BBX 3 4 0 -2
BITMAP
20
60
40
C0
ENDCHAR
STARTCHAR 201C
ENCODING 8220
SWIDTH 420 0
DWIDTH 7 0
BBX 6 4 3 9
BITMAP
24
6C
48
D8
ENDCHAR
STARTCHAR 201D
ENCODING 8221
SWIDTH 420 0
DWIDTH 7 0
BBX 6 4 3 8
BITMAP
6C
6C
48
D8
ENDCHAR
STARTCHAR 201E
ENCODING 8222
SWIDTH 420 0
DWIDTH 7 0
BBX 6 4 0 -2
BITMAP
24
6C
48
D8
ENDCHAR
STARTCHAR 2020
ENCODING 8224
SWIDTH 480 0
DWIDTH 8 0
BBX 6 14 3 -2
BITMAP
10
10
10
30
FC
20
20
60
40
40
40
C0
80
80
ENDCHAR
STARTCHAR 2021
ENCODING 8225
SWIDTH 480 0
DWIDTH 8 0
BBX 8 14 1 -2
BITMAP
04
04
04
0C
3F
08
08
18
7E
FE
10
30
20
20
ENDCHAR
STARTCHAR 2022
ENCODING 8226
SWIDTH 360 0
DWIDTH 6 0
BBX 4 4 2 4
BITMAP
70
F0
F0
70
ENDCHAR
STARTCHAR 2026
ENCODING 8230
SWIDTH 1020 0
DWIDTH 17 0
BBX 13 2 2 0
BITMAP
C218
C618
ENDCHAR
STARTCHAR 2030
ENCODING 8240
SWIDTH 1200 0
DWIDTH 20 0
BBX 17 12 3 0
BITMAP
306000
D8C000
898000
890000
920000
F60000
0DC700
1B6D80
122880
222880
624900
C3CF00
ENDCHAR
STARTCHAR 2039
ENCODING 8249
SWIDTH 300 0
DWIDTH 5 0
BBX 4 7 2 1
BITMAP
30
60
C0
80
C0
40
60
ENDCHAR
STARTCHAR 203A
ENCODING 8250
SWIDTH 300 0
DWIDTH 5 0
BBX 4 7 1 1
BITMAP
20
30
30
10
20
60
C0
ENDCHAR
STARTCHAR 2044
ENCODING 8260
SWIDTH 120 0
DWIDTH 2 0
BBX 10 12 -2 0
BITMAP
00C0
0080
0100
0300
0600
0C00
0800
1000
3000
6000
C000
8000
ENDCHAR
STARTCHAR 2070
ENCODING 8304
SWIDTH 360 0
DWIDTH 6 0
BBX 6 7 2 5
BITMAP
38
6C
4C
CC
C8
D8
70
ENDCHAR
STARTCHAR 2074
ENCODING 8308
SWIDTH 360 0
DWIDTH 6 0
BBX 6 7 2 5
BITMAP
0C
18
28
48
F8
10
10
ENDCHAR
STARTCHAR 2075
ENCODING 8309
SWIDTH 360 0
DWIDTH 6 0
BBX 6 7 2 5
BITMAP
3C
20
20
78
08
18
F0
ENDCHAR
STARTCHAR 2076
ENCODING 8310
SWIDTH 360 0
DWIDTH 6 0
BBX 6 7 2 5
BITMAP
0C
30
40
78
C8
48
70
ENDCHAR
STARTCHAR 2077
ENCODING 8311
SWIDTH 360 0
DWIDTH 6 0
BBX 5 7 3 5
BITMAP
F8
18
30
20
40
C0
80
ENDCHAR
STARTCHAR 2078
ENCODING 8312
SWIDTH 360 0
DWIDTH 6 0
BBX 6 7 2 5
BITMAP
38
6C
48
30
C8
88
70
ENDCHAR
STARTCHAR 2079
ENCODING 8313
SWIDTH 360 0
DWIDTH 6 0
BBX 6 7 2 5
BITMAP
38
48
4C
78
08
30
C0
ENDCHAR
STARTCHAR 2080
ENCODING 8320
SWIDTH 360 0
DWIDTH 6 0
BBX 5 7 1 0
BITMAP
10
68
48
88
88
98
70
ENDCHAR
STARTCHAR 2081
ENCODING 8321
SWIDTH 360 0
DWIDTH 6 0
BBX 3 6 2 0
BITMAP
60
A0
20
60
40
40
ENDCHAR
STARTCHAR 2082
ENCODING 8322
SWIDTH 360 0
DWIDTH 6 0
BBX 5 7 1 0
BITMAP
30
58
08
10
60
C0
F0
ENDCHAR
STARTCHAR 2083
ENCODING 8323
SWIDTH 360 0
DWIDTH 6 0
BBX 5 7 1 0
BITMAP
30
58
08
30
18
18
F0
ENDCHAR
STARTCHAR 2084
ENCODING 8324
SWIDTH 360 0
DWIDTH 6 0
BBX 5 6 1 0
BITMAP
18
28
58
F8
10
10
ENDCHAR
STARTCHAR 2085
ENCODING 8325
SWIDTH 360 0
DWIDTH 6 0
BBX 5 6 1 0
BITMAP
38
40
70
18
18
F0
ENDCHAR
STARTCHAR 2086
ENCODING 8326
SWIDTH 360 0
DWIDTH 6 0
BBX 6 7 1 0
BITMAP
04
38
40
78
88
88
70
ENDCHAR
STARTCHAR 2087
ENCODING 8327
SWIDTH 360 0
DWIDTH 6 0
BBX 5 6 2 0
BITMAP
F8
30
60
40
C0
80
ENDCHAR
STARTCHAR 2088
ENCODING 8328
SWIDTH 360 0
DWIDTH 6 0
BBX 5 7 1 0
BITMAP
10
68
48
70
D8
88
F0
ENDCHAR
STARTCHAR 2089
ENCODING 8329
SWIDTH 360 0
DWIDTH 6 0
BBX 5 7 1 0
BITMAP
10
68
48
48
38
10
E0
ENDCHAR
STARTCHAR 20AC
ENCODING 8364
SWIDTH 540 0
DWIDTH 9 0
BBX 9 12 2 0
BITMAP
0380
0F80
1800
3000
7F00
2000
6000
FC00
6000
6000
3000
3E00
ENDCHAR
STARTCHAR 20AE
ENCODING 8366
SWIDTH 540 0
DWIDTH 9 0
BBX 10 12 2 0
BITMAP
7FC0
7F80
0C00
0C00
0F00
3800
7800
1E00
3800
D000
3000
3000
ENDCHAR
STARTCHAR 20B4
ENCODING 8372
SWIDTH 540 0
DWIDTH 9 0
BBX 8 12 2 0
BITMAP
1E
3F
03
03
FF
0C
38
FF
C0
C0
C0
7C
ENDCHAR
STARTCHAR 20B9
ENCODING 8377
SWIDTH 540 0
DWIDTH 9 0
BBX 9 12 3 0
BITMAP
7F80
7F00
0400
FE00
0400
0C00
F800
8000
C000
6000
6000
3000
ENDCHAR
STARTCHAR 2113
ENCODING 8467
SWIDTH 480 0
DWIDTH 8 0
BBX 6 13 2 0
BITMAP
38
6C
64
64
64
68
78
70
60
E0
60
64
3C
ENDCHAR
STARTCHAR 2116
ENCODING 8470
SWIDTH 1080 0
DWIDTH 18 0
BBX 18 12 1 0
BITMAP
183180
182640
1C2440
346440
346CC0
266780
224200
63C000
63DF80
41DF80
418000
C18000
ENDCHAR
STARTCHAR 2122
ENCODING 8482
SWIDTH 780 0
DWIDTH 13 0
BBX 12 6 2 6
BITMAP
FA20
2620
2560
2560
24B0
2430
ENDCHAR
STARTCHAR 2126
ENCODING 8486
SWIDTH 780 0
DWIDTH 13 0
BBX 12 12 1 0
BITMAP
03C0
0FE0
1830
3030
3030
2030
6030
6020
2060
20C0
3180
F1E0
ENDCHAR
STARTCHAR 212E
ENCODING 8494
SWIDTH 960 0
DWIDTH 16 0
BBX 14 12 2 0
BITMAP
0780
1860
2010
6018
6018
E01C
FFE0
6000
6000
6000
2010
1FE0
ENDCHAR
STARTCHAR 2153
ENCODING 8531
SWIDTH 900 0
DWIDTH 15 0
BBX 12 12 3 0
BITMAP
1060
60C0
A180
2100
2200
6660
4CB0
1820
10C0
2020
6020
C3C0
ENDCHAR
STARTCHAR 2154
ENCODING 8532
SWIDTH 900 0
DWIDTH 15 0
BBX 13 12 2 0
BITMAP
3830
4820
0840
10C0
6180
C330
FA58
0410
0C60
1810
3010
21E0
ENDCHAR
STARTCHAR 2155
ENCODING 8533
SWIDTH 900 0
DWIDTH 15 0
BBX 12 12 3 0
BITMAP
1060
60C0
A180
2100
2200
6600
4CF0
1880
10E0
2020
6020
C3E0
ENDCHAR
STARTCHAR 2156
ENCODING 8534
SWIDTH 900 0
DWIDTH 15 0
BBX 13 12 2 0
BITMAP
3810
4820
0860
10C0
6180
C100
FA78
0640
0C70
1810
1010
21F0
ENDCHAR
STARTCHAR 2157
ENCODING 8535
SWIDTH 900 0
DWIDTH 15 0
BBX 13 12 2 0
BITMAP
3830
0820
0840
30C0
0980
1B00
F278
0440
0C70
1810
3010
21F0
ENDCHAR
STARTCHAR 2158
ENCODING 8536
SWIDTH 900 0
DWIDTH 15 0
BBX 13 12 2 0
BITMAP
0C10
1820
2860
48C0
F980
1100
1278
0640
0C70
1810
1010
21F0
ENDCHAR
STARTCHAR 2159
ENCODING 8537
SWIDTH 900 0
DWIDTH 15 0
BBX 12 12 3 0
BITMAP
1060
60C0
A080
2100
2300
6600
4C70
0880
11E0
3130
6120
C1E0
ENDCHAR
STARTCHAR 215A
ENCODING 8538
SWIDTH 900 0
DWIDTH 15 0
BBX 13 12 2 0
BITMAP
3C10
2020
2060
78C0
0980
1900
F238
0640
0CF0
1898
1090
20F0
ENDCHAR
STARTCHAR 215B
ENCODING 8539
SWIDTH 900 0
DWIDTH 15 0
BBX 12 12 3 0
BITMAP
1060
60C0
A180
2100
2200
6660
4C90
1990
10E0
2120
6120
C1E0
ENDCHAR
STARTCHAR 215C
ENCODING 8540
SWIDTH 900 0
DWIDTH 15 0
BBX 13 12 2 0
BITMAP
3830
0820
0840
30C0
0980
1B30
F248
04C8
0C70
1890
3090
20F0
ENDCHAR
STARTCHAR 215D
ENCODING 8541
SWIDTH 900 0
DWIDTH 15 0
BBX 13 12 2 0
BITMAP
3C30
2020
2040
78C0
0980
1B30
F248
04C8
0C70
1890
3090
20F0
ENDCHAR
STARTCHAR 215E
ENCODING 8542
SWIDTH 900 0
DWIDTH 15 0
BBX 12 12 3 0
BITMAP
F840
1880
3180
2300
4200
C460
8C90
1990
30E0
2120
4120
C1E0
ENDCHAR
STARTCHAR 2202
ENCODING 8706
SWIDTH 600 0
DWIDTH 10 0
BBX 8 13 2 0
BITMAP
3C
27
03
01
01
3F
63
C1
C3
82
86
CC
78
ENDCHAR
STARTCHAR 2206
ENCODING 8710
SWIDTH 600 0
DWIDTH 10 0
BBX 10 12 0 0
BITMAP
0180
0380
0280
0680
0C80
0CC0
18C0
10C0
30C0
20C0
6040
FFC0
ENDCHAR
STARTCHAR 220F
ENCODING 8719
SWIDTH 660 0
DWIDTH 11 0
BBX 12 14 1 -2
BITMAP
1FF0
1FE0
1060
3060
3060
3040
2040
60C0
60C0
6080
4080
C180
C180
C100
ENDCHAR
STARTCHAR 2211
ENCODING 8721
SWIDTH 480 0
DWIDTH 8 0
BBX 11 14 0 -2
BITMAP
1FE0
1FE0
1800
0800
0C00
0400
0600
0600
0C00
1800
3000
6000
FF00
FF00
ENDCHAR
STARTCHAR 2212
ENCODING 8722
SWIDTH 540 0
DWIDTH 9 0
BBX 8 2 2 4
BITMAP
FF
FF
ENDCHAR
STARTCHAR 2215
ENCODING 8725
SWIDTH 120 0
DWIDTH 2 0
BBX 10 12 -2 0
BITMAP
00C0
0080
0100
0300
0600
0C00
0800
1000
3000
6000
C000
8000
ENDCHAR
STARTCHAR 2219
ENCODING 8729
SWIDTH 240 0
DWIDTH 4 0
BBX 2 2 2 4
BITMAP
C0
C0
ENDCHAR
STARTCHAR 221A
ENCODING 8730
SWIDTH 540 0
DWIDTH 9 0
BBX 10 13 2 0
BITMAP
0040
00C0
0080
0180
0100
0300
0200
E600
6400
2C00
2800
3800
3000
ENDCHAR
STARTCHAR 221E
ENCODING 8734
SWIDTH 600 0
DWIDTH 10 0
BBX 9 4 2 3
BITMAP
7700
9980
9900
FF00
ENDCHAR
STARTCHAR 222B
ENCODING 8747
SWIDTH 360 0
DWIDTH 6 0
BBX 10 16 -1 -3
BITMAP
01C0
0300
0200
0200
0600
0600
0400
0400
0C00
0C00
0800
0800
1800
1800
3000
E000
ENDCHAR
STARTCHAR 2248
ENCODING 8776
SWIDTH 540 0
DWIDTH 9 0
BBX 9 6 1 2
BITMAP
3880
2780
0300
3000
7900
CF00
ENDCHAR
STARTCHAR 2260
ENCODING 8800
SWIDTH 540 0
DWIDTH 9 0
BBX 8 10 2 0
BITMAP
02
02
04
7F
08
10
FE
20
40
40
ENDCHAR
STARTCHAR 2264
ENCODING 8804
SWIDTH 540 0
DWIDTH 9 0
BBX 9 9 1 1
BITMAP
0380
0E00
7800
7000
1C00
0700
0100
0000
FF00
ENDCHAR
STARTCHAR 2265
ENCODING 8805
SWIDTH 540 0
DWIDTH 9 0
BBX 9 9 1 1
BITMAP
3800
0E00
0380
0380
1E00
7000
0000
0000
FF00
ENDCHAR
STARTCHAR 25CA
ENCODING 9674
SWIDTH 540 0
DWIDTH 9 0
BBX 8 11 2 1
BITMAP
0C
1C
36
62
C3
C3
C6
4C
78
30
20
ENDCHAR
STARTCHAR E0FF
ENCODING 57599
SWIDTH 780 0
DWIDTH 13 0
BBX 12 12 2 0
BITMAP
0F00
3FC0
7E60
F9E0
EE70
AF70
BFF0
EF70
ECE0
7B60
3FC0
1F80
ENDCHAR
STARTCHAR EFFD
ENCODING 61437
SWIDTH 1680 0
DWIDTH 28 0
BBX 27 7 1 0
BITMAP
10043040
681A59A0
48120920
881C3320
88361A20
9B221A60
733CF1C0
ENDCHAR
STARTCHAR F000
ENCODING 61440
SWIDTH 960 0
DWIDTH 16 0
BBX 14 12 1 0
BITMAP
7CFC
8000
8504
8504
8504
8000
3878
8000
8504
8504
8000
3878
ENDCHAR
STARTCHAR F001
ENCODING 61441
SWIDTH 600 0
DWIDTH 10 0
BBX 12 16 0 -3
BITMAP
0780
0EB0
0830
0800
1F20
1F60
1060
1040
3040
30C0
20C0
2080
6080
6000
4000
C000
ENDCHAR
STARTCHAR F002
ENCODING 61442
SWIDTH 660 0
DWIDTH 11 0
BBX 12 16 0 -3
BITMAP
07B0
0EB0
0820
0820
1F60
1F60
1040
1040
30C0
30C0
20C0
20C0
6060
6000
4000
C000
ENDCHAR
STARTCHAR F0FF
ENCODING 61695
SWIDTH 480 0
DWIDTH 8 0
BBX 7 7 2 6
BITMAP
38
76
DE
BA
DE
6E
3C
ENDCHAR
STARTCHAR F200
ENCODING 61952
SWIDTH 3540 0
DWIDTH 59 0
BBX 58 13 2 0
BITMAP
0060000000000F00
0060000000001E80
006000000C0017C0
006000000C0037C0
C27E308F8FB096C0
C27F309FCFB09B80
C261B0984C308F00
C261B0984C308000
C261B0984C308000
C261B0984C308000
C261B0984C108000
6263189844188000
7E7E0F98478F8000
ENDCHAR
STARTCHAR F506
ENCODING 62726
SWIDTH 900 0
DWIDTH 15 0
BBX 12 12 3 0
BITMAP
1040
60C0
A180
2100
2200
6600
4DF0
1820
1040
20C0
6080
C180
ENDCHAR
STARTCHAR F507
ENCODING 62727
SWIDTH 900 0
DWIDTH 15 0
BBX 13 12 2 0
BITMAP
3830
4820
0840
10C0
6180
C300
FAF8
0410
0C20
1860
3040
20C0
ENDCHAR
STARTCHAR F508
ENCODING 62728
SWIDTH 900 0
DWIDTH 15 0
BBX 13 12 2 0
BITMAP
3830
0860
0840
3080
0980
1B00
F6F8
0410
0820
1860
3040
20C0
ENDCHAR
STARTCHAR F509
ENCODING 62729
SWIDTH 900 0
DWIDTH 15 0
BBX 13 12 2 0
BITMAP
0C30
1860
2840
4880
F980
1300
12F8
0410
0C20
1860
3040
20C0
ENDCHAR
STARTCHAR F50A
ENCODING 62730
SWIDTH 900 0
DWIDTH 15 0
BBX 13 12 2 0
BITMAP
3C30
2060
2040
7880
0980
1B00
F2F8
0410
0C20
1860
3040
20C0
ENDCHAR
STARTCHAR F50B
ENCODING 62731
SWIDTH 900 0
DWIDTH 15 0
BBX 13 12 2 0
BITMAP
0C30
3060
4040
7880
C980
4B00
72F8
0410
0C20
1860
3040
20C0
ENDCHAR
STARTCHAR F50C
ENCODING 62732
SWIDTH 900 0
DWIDTH 15 0
BBX 12 12 3 0
BITMAP
1060
60C0
A180
2100
2200
6660
4CB0
1910
11B0
20E0
6060
C180
ENDCHAR
STARTCHAR F50D
ENCODING 62733
SWIDTH 900 0
DWIDTH 15 0
BBX 13 12 2 0
BITMAP
3830
4820
0840
10C0
6180
C330
FA58
0488
0CD8
1870
1030
20C0
ENDCHAR
STARTCHAR F50E
ENCODING 62734
SWIDTH 900 0
DWIDTH 15 0
BBX 13 12 2 0
BITMAP
0C30
1820
2840
48C0
F980
1330
1258
0488
0CD8
1870
3030
20C0
ENDCHAR
STARTCHAR F50F
ENCODING 62735
SWIDTH 900 0
DWIDTH 15 0
BBX 13 12 2 0
BITMAP
3C30
2020
2040
78C0
0980
1B30
F258
0488
0CD8
1870
3030
20C0
ENDCHAR
STARTCHAR F510
ENCODING 62736
SWIDTH 900 0
DWIDTH 15 0
BBX 12 12 3 0
BITMAP
F840
1880
3180
2300
4200
C460
8CB0
1910
31B0
20E0
4060
C180
ENDCHAR
STARTCHAR F511
ENCODING 62737
SWIDTH 900 0
DWIDTH 15 0
BBX 13 12 2 0
BITMAP
3830
6C20
4840
30C0
C980
8B30
7258
0488
0CD8
1870
3030
20C0
ENDCHAR
STARTCHAR F800
ENCODING 63488
SWIDTH 540 0
DWIDTH 9 0
BBX 8 12 2 0
BITMAP
0E
3F
23
61
41
C3
C3
C3
C2
C6
CC
78
ENDCHAR
STARTCHAR F801
ENCODING 63489
SWIDTH 360 0
DWIDTH 6 0
BBX 5 12 2 0
BITMAP
08
18
78
D8
18
10
30
30
30
20
20
60
ENDCHAR
STARTCHAR F802
ENCODING 63490
SWIDTH 480 0
DWIDTH 8 0
BBX 8 12 1 0
BITMAP
0E
3F
01
01
03
06
0C
18
30
60
C0
FE
ENDCHAR
STARTCHAR F803
ENCODING 63491
SWIDTH 480 0
DWIDTH 8 0
BBX 8 12 1 0
BITMAP
1E
3F
03
03
02
1C
1E
02
02
06
8E
FC
ENDCHAR
STARTCHAR F804
ENCODING 63492
SWIDTH 540 0
DWIDTH 9 0
BBX 9 12 1 0
BITMAP
0180
0380
0700
0D00
1B00
3300
6200
4200
FF00
0600
0400
0400
ENDCHAR
STARTCHAR F805
ENCODING 63493
SWIDTH 480 0
DWIDTH 8 0
BBX 9 12 1 0
BITMAP
1F80
1F80
1000
1000
3000
3C00
0E00
0200
0200
0600
8E00
FC00
ENDCHAR
STARTCHAR F806
ENCODING 63494
SWIDTH 540 0
DWIDTH 9 0
BBX 8 12 2 0
BITMAP
01
0F
18
20
60
7C
C6
C2
82
86
C4
7C
ENDCHAR
STARTCHAR F807
ENCODING 63495
SWIDTH 480 0
DWIDTH 8 0
BBX 8 12 2 0
BITMAP
7F
7F
06
04
0C
18
30
30
60
40
C0
C0
ENDCHAR
STARTCHAR F808
ENCODING 63496
SWIDTH 540 0
DWIDTH 9 0
BBX 9 12 1 0
BITMAP
0F00
1B80
3180
3180
3180
1B00
3E00
6300
4300
C300
4600
7C00
ENDCHAR
STARTCHAR F809
ENCODING 63497
SWIDTH 540 0
DWIDTH 9 0
BBX 9 12 1 0
BITMAP
0E00
1B00
3180
2180
2180
2180
3F80
0300
0300
0600
1C00
F000
ENDCHAR
STARTCHAR F80A
ENCODING 63498
SWIDTH 360 0
DWIDTH 6 0
BBX 5 7 3 7
BITMAP
30
48
88
88
88
90
60
ENDCHAR
STARTCHAR F80B
ENCODING 63499
SWIDTH 360 0
DWIDTH 6 0
BBX 3 7 4 7
BITMAP
20
E0
20
40
40
40
40
ENDCHAR
STARTCHAR F80C
ENCODING 63500
SWIDTH 360 0
DWIDTH 6 0
BBX 5 7 3 7
BITMAP
70
58
18
30
40
80
F0
ENDCHAR
STARTCHAR F80D
ENCODING 63501
SWIDTH 360 0
DWIDTH 6 0
BBX 6 7 2 7
BITMAP
38
0C
08
38
08
08
F0
ENDCHAR
STARTCHAR F80E
ENCODING 63502
SWIDTH 360 0
DWIDTH 6 0
BBX 5 7 3 7
BITMAP
08
38
78
D0
F8
10
30
ENDCHAR
STARTCHAR F80F
ENCODING 63503
SWIDTH 360 0
DWIDTH 6 0
BBX 5 7 3 7
BITMAP
38
40
40
70
10
10
E0
ENDCHAR
STARTCHAR F810
ENCODING 63504
SWIDTH 360 0
DWIDTH 6 0
BBX 5 7 3 7
BITMAP
18
70
40
F8
88
90
60
ENDCHAR
STARTCHAR F811
ENCODING 63505
SWIDTH 360 0
DWIDTH 6 0
BBX 6 7 3 7
BITMAP
7C
08
10
20
60
40
C0
ENDCHAR
STARTCHAR F812
ENCODING 63506
SWIDTH 360 0
DWIDTH 6 0
BBX 5 7 3 7
BITMAP
30
48
48
70
90
90
E0
ENDCHAR
STARTCHAR F813
ENCODING 63507
SWIDTH 360 0
DWIDTH 6 0
BBX 5 7 3 7
BITMAP
30
48
88
F8
18
30
C0
ENDCHAR
STARTCHAR F814
ENCODING 63508
SWIDTH 360 0
DWIDTH 6 0
BBX 5 7 1 -2
BITMAP
30
58
88
88
98
90
E0
ENDCHAR
STARTCHAR F815
ENCODING 63509
SWIDTH 360 0
DWIDTH 6 0
BBX 3 6 2 -2
BITMAP
60
E0
40
40
40
C0
ENDCHAR
STARTCHAR F816
ENCODING 63510
SWIDTH 360 0
DWIDTH 6 0
BBX 6 7 0 -2
BITMAP
10
28
0C
18
30
40
F8
ENDCHAR
STARTCHAR F817
ENCODING 63511
SWIDTH 360 0
DWIDTH 6 0
BBX 6 7 0 -2
BITMAP
18
2C
08
30
08
08
F0
ENDCHAR
STARTCHAR F818
ENCODING 63512
SWIDTH 360 0
DWIDTH 6 0
BBX 5 6 1 -2
BITMAP
18
70
50
F8
10
20
ENDCHAR
STARTCHAR F819
ENCODING 63513
SWIDTH 360 0
DWIDTH 6 0
BBX 6 6 0 -2
BITMAP
3C
20
38
08
08
F8
ENDCHAR
STARTCHAR F81A
ENCODING 63514
SWIDTH 360 0
DWIDTH 6 0
BBX 5 6 1 -1
BITMAP
38
40
F0
98
90
F0
ENDCHAR
STARTCHAR F81B
ENCODING 63515
SWIDTH 360 0
DWIDTH 6 0
BBX 5 6 1 -2
BITMAP
F8
10
20
60
40
C0
ENDCHAR
STARTCHAR F81C
ENCODING 63516
SWIDTH 360 0
DWIDTH 6 0
BBX 5 7 1 -2
BITMAP
30
58
C8
70
90
90
F0
ENDCHAR
STARTCHAR F81D
ENCODING 63517
SWIDTH 360 0
DWIDTH 6 0
BBX 5 7 1 -2
BITMAP
30
58
88
D8
70
30
C0
ENDCHAR
STARTCHAR FB00
ENCODING 64256
SWIDTH 720 0
DWIDTH 12 0
BBX 16 16 0 -3
BITMAP
078F
0E98
0830
0820
1F3C
1F7C
1060
1040
3040
30C0
20C0
2080
6080
6180
4180
C300
ENDCHAR
STARTCHAR FB01
ENCODING 64257
SWIDTH 600 0
DWIDTH 10 0
BBX 12 16 0 -3
BITMAP
0780
0EB0
0830
0800
1F20
1F60
1060
1040
3040
30C0
20C0
2080
6080
6000
4000
C000
ENDCHAR
STARTCHAR FB02
ENCODING 64258
SWIDTH 660 0
DWIDTH 11 0
BBX 12 16 0 -3
BITMAP
07B0
0EB0
0820
0820
1F60
1F60
1040
1040
30C0
30C0
20C0
20C0
6060
6000
4000
C000
ENDCHAR
STARTCHAR FB03
ENCODING 64259
SWIDTH 1020 0
DWIDTH 17 0
BBX 18 16 0 -3
BITMAP
078E00
0E9AC0
0830C0
082000
1F3C80
1F7D80
106180
104180
304100
30C100
20C300
208300
608200
618000
418000
C30000
ENDCHAR
STARTCHAR FB04
ENCODING 64260
SWIDTH 1020 0
DWIDTH 17 0
BBX 18 16 0 -3
BITMAP
078E40
0E9AC0
0830C0
082080
1F3C80
1F7D80
106180
104100
304100
30C300
20C300
208300
608180
618000
418000
C30000
ENDCHAR
ENDFONT
